/* XPM */
static char *dummy[]={
"64 64 44 1",
"w c #000000",
"P c #000040",
"L c #00004c",
"N c #000064",
"O c #000070",
"M c #00007c",
"K c #000098",
"x c #202020",
"C c #28200c",
"i c #2c2c2c",
"p c #382c14",
"h c #383838",
"I c #403018",
"o c #483818",
"f c #484848",
"A c #543c1c",
"g c #545454",
"H c #5c4020",
"e c #646464",
"z c #6c4824",
"c c #707070",
"n c #744c28",
"b c #7c7c7c",
"v c #80502c",
"l c #885830",
"a c #8c8c8c",
"F c #905c34",
". c #980088",
"k c #989898",
"u c #9c6038",
"y c #a0643c",
"G c #a86840",
"d c #a8a8a8",
"t c #b47044",
"# c #b4b4b4",
"m c #bc7848",
"j c #c0c0c0",
"E c #c87c4c",
"s c #d08050",
"D c #dc8854",
"J c #e88c58",
"r c #f0945c",
"q c #fc9c60",
"B c #fca470",
"................................................................",
"................................................................",
"................................................................",
"................................................................",
"................................................................",
"................................................................",
"................................................................",
"................................................................",
"................................................................",
"................................................................",
"................................................................",
"................................................................",
"................................................................",
"................................................................",
"................................................................",
"................................................................",
"..............................#aabbc............................",
".............................#deeeefg...........................",
"............................aacegghihf..........................",
"............................aaegffhhih..........................",
"............................aaegffhhih..........................",
"...........................ajcgfhhhhiih.........................",
"...........................#kbbeeghhhii.........................",
"............................bbceegfhii..........................",
".............................lmlnooop...........................",
".............................lqrstuvw...........................",
".............................effixxwxx..........................",
"..........................mrryzAixxxAill........................",
".........................mBBBrsssmttlCivl.......................",
".........................BrttttttttyACivv.......................",
"........................DrEyFyyyyGyACAvHv.......................",
"........................DDEHvGGGunowCAnHvv......................",
"........................DDlHnnvvlowCAzAHvv......................",
".......................EDtlHAnnvowCAAIInvv......................",
".......................EEylonAnwwCAAIIIllv......................",
".......................EEylolCwwCAAAIIHtFn......................",
".......................myyzoCwwCIAAICCntFn......................",
".......................GtzzffhhhiixwwwvFv.......................",
"........................syzffhhhiixwwwHFn.......................",
"........................mynoyvvzoHHHooHG........................",
"........................ooozvvvlGFFFnHo.........................",
".........................JvzvvGzGGGunHo.........................",
"..........................svFGvzGGGuuno.........................",
"..........................ssGGzHAAAAAno.........................",
"..........................FnooCAllvvvpo.........................",
"..........................JunzozGGuuvzp.........................",
"..........................JEuzozsGGuvzH.........................",
"..........................JEuzoysEGuvzH.........................",
"...........................uEzotDEmuvH..........................",
"...........................JunoCGFlvvH..........................",
"...........................JEAotJJEEzH..........................",
"...........................uEzottttvyH..........................",
"............................uAAsJJJJzH..........................",
"............................xxwDJJJyHH..........................",
"............................KLwlFFFHH...........................",
"............................MLwwNwwwA...........................",
"............................MLwLKMwww...........................",
".............................OwMKLwww...........................",
".............................MwKNLww............................",
".............................LKKKLLw............................",
".............................wKNNNLw............................",
"..............................PwwwLww...........................",
"..............................iiiwwww...........................",
"...............................xxxxw............................"};
