/* XPM */
static char *dummy[]={
"64 64 47 1",
"h c #000000",
"M c #000040",
"Q c #00004c",
"N c #000064",
"R c #00007c",
"P c #000098",
"S c #0000a4",
"O c #0000a8",
"G c #202020",
"E c #28200c",
"i c #2c2c2c",
"J c #382c14",
"g c #383838",
"D c #403018",
"w c #483818",
"f c #484848",
"A c #543c1c",
"e c #545454",
"H c #5c4020",
"d c #646464",
"p c #6c4824",
"b c #707070",
"o c #744c28",
"a c #7c7c7c",
"I c #80502c",
"v c #885830",
"k c #8c8c8c",
"F c #905c34",
". c #980088",
"l c #989898",
"m c #9c6038",
"C c #a0643c",
"u c #a86840",
"# c #a8a8a8",
"z c #b47044",
"t c #bc7848",
"c c #c0c0c0",
"L c #c87c4c",
"B c #d08050",
"y c #dc8854",
"j c #dcdcdc",
"K c #e88c58",
"s c #f0945c",
"x c #fc9c60",
"q c #fca470",
"r c #fcb080",
"n c #fcb890",
"................................................................",
"................................................................",
"................................................................",
"................................................................",
"................................................................",
"................................................................",
"................................................................",
"................................................................",
"................................................................",
"................................................................",
"................................................................",
"................................................................",
"................................................................",
"................................................................",
"................................................................",
"................................................................",
"..........................###aabb...............................",
".........................#cabbdeee..............................",
".........................#aeeeffggf.............................",
".........................aa#heffggi.............................",
"........................jc#hhefgggi.............................",
"..........................k##lkadfgi............................",
"..........................m##lkaadfgi...........................",
"..........................nnhhhhhh..............................",
"..........................nnhmooop..............................",
"..........................qhrstuvp..............................",
"............................iiihhhh.............................",
"...........................jiiihhhhw............................",
".........................xxyyzmmAAhih...........................",
"........................xxtBBBBzoohhAm..........................",
".......................xxyoCCCCCoDhhAo..........................",
".......................xyuAoCCCCoEhAAw..........................",
".......................xyyvAoFFFDhDDAw..........................",
".......................xyyvAoFFphhAAEA..........................",
".......................yyyAAoophhoAAEw..........................",
"........................yAvAoohhoAAAEw..........................",
".......................yuuvAwhhooAAEAw..........................",
"........................ytFAhhhhhhhhAw..........................",
".......................yytAGhhhhhhhhHH..........................",
".......................yytADHHHHHwHHHp..........................",
".......................ytFADHooooHooH...........................",
".......................IIADAoooooAooH...........................",
".......................nCCAHoooooJooD...........................",
".......................sstAHoooooJooD...........................",
".......................ssvAAAJJJJEJHD...........................",
"........................stvvvIpDEEEE............................",
"........................KKKvvvppHDDE............................",
"........................KKKKuuppDDDE............................",
".......................KKKKuuvpDDDDD............................",
".......................KKKLLvpDDADDD............................",
".......................KKKKKLxvAADDD............................",
".......................KKKKvhhhhDDDD............................",
"........................KKvMhhhhhDD.............................",
".........................LvMMhhhhDD.............................",
"...........................MNMhhhhDD............................",
"............................MNhhGGGD............................",
".............................hMhGGGD............................",
"............................ONhGGGGD............................",
"...........................ONhGGGGhh............................",
"...........................PNGGGGhhh............................",
"...........................QhGGQQhhh............................",
".............................OOOQQhhh...........................",
"............................NRRSSQhhh...........................",
"..............................MMMMhhh..........................."};
