/* XPM */
static char *dummy[]={
"64 64 44 1",
"u c #000000",
"M c #000040",
"L c #00004c",
"O c #000064",
"P c #000070",
"N c #000098",
"v c #202020",
"y c #28200c",
"i c #2c2c2c",
"p c #382c14",
"h c #383838",
"H c #403018",
"o c #483818",
"f c #484848",
"F c #543c1c",
"g c #545454",
"I c #5c4020",
"K c #600064",
"e c #646464",
"x c #6c4824",
"c c #707070",
"n c #744c28",
"b c #7c7c7c",
"E c #80502c",
"l c #885830",
"a c #8c8c8c",
"J c #905c34",
". c #980088",
"k c #989898",
"C c #9c6038",
"G c #a0643c",
"t c #a86840",
"D c #b47044",
"# c #b4b4b4",
"m c #bc7848",
"j c #c0c0c0",
"w c #c87c4c",
"B c #d08050",
"d c #d0d0d0",
"z c #dc8854",
"s c #e88c58",
"r c #f0945c",
"A c #fca470",
"q c #fcb080",
"................................................................",
"................................................................",
"................................................................",
"................................................................",
"................................................................",
"................................................................",
"................................................................",
"................................................................",
"................................................................",
"................................................................",
"................................................................",
"................................................................",
"................................................................",
"................................................................",
"................................................................",
"................................................................",
"..............................#aabbc............................",
".............................#deeeefg...........................",
"............................aaceggfhhf..........................",
"............................daeefffhih..........................",
"............................faeefffhih..........................",
"...........................ajcefhhhhhih.........................",
"...........................#kkbcegfhhii.........................",
"............................bbccegffii..........................",
".............................lmlnooop...........................",
".............................lqrsstnu...........................",
"............................ffhiivvuui..........................",
"..........................twwxhiivvuyui.........................",
"........................tzAAAArrBrrBBggBt.......................",
".......................tzAArrrrrBBBBhhhBBt......................",
".......................tAmtBBsssCmBhhhDCBD......................",
"......................trAEEDBBBDElFhhDDFEt......................",
"......................trronxtDDGlFuuDDFHFtt.....................",
"......................trmIyxGGEEvuuGGJHFxtt.....................",
"......................zrBnyoxlpuuvGGJoyxEtt.....................",
"......................zsmnyoFvuuvFEExoyxEtG.....................",
"......................zsmoyyvvvpFEEpoyyxEtt.....................",
"......................zBCouhffhhhhivuuyFEtB.....................",
"......................zBJouhffhhhhivuuyHxtm.....................",
"......................zBExHEEEExoIIIooyFFEm.....................",
"......................BDEHEDBBwmCCCJExoyxEt.....................",
"......................xxpHtrsBwmCCCJExoypEt.....................",
".......................tEHtrsBwmECCJExoyEt......................",
".......................BEHtssBwmICCJExouEw......................",
".......................wtyEEEEEyKyHHFFFxtm......................",
"........................woGDDDEIKoFFIIIIm.......................",
".........................pDDDDJIyInFIIII........................",
".........................xBsttJIyJEnnII.........................",
".........................xBsttJIptEnnIII........................",
".........................xBsttJIpEIpHHII........................",
".........................DBszzGEptEExxII........................",
".........................DCJxxxHyJIIIII.........................",
".........................DtzztnFpyvvvvxI........................",
".........................xDDJJJnyvuuvLL.........................",
"..........................FHHFxHyvuuvLL.........................",
"..........................vuuuvM.MuuLNL.........................",
"..........................vuuuvM.MuOLP..........................",
"..........................vuuuvM..uONO..........................",
"...........................uuuvM.MuuvN..........................",
"...........................uuuM..MvvvvO.........................",
"...........................uuuM..vvvvvL.........................",
"..........................OuuuuM..vvvv..........................",
"..........................vuuuuM................................",
"..........................vuuuuM................................"};
