/* XPM */
static char *dummy[]={
"64 64 43 1",
"n c #000000",
"L c #000040",
"H c #00004c",
"O c #000058",
"M c #000064",
"J c #000070",
"N c #00007c",
"K c #000088",
"I c #0000a8",
"t c #202020",
"i c #2c2c2c",
"h c #383838",
"E c #483818",
"g c #484848",
"G c #543c1c",
"d c #545454",
"m c #5c4020",
"f c #646464",
"B c #6c4824",
"c c #707070",
"z c #744c28",
"b c #7c7c7c",
"k c #80502c",
"x c #885830",
"a c #8c8c8c",
"A c #905c34",
". c #980088",
"e c #989898",
"o c #9c6038",
"u c #a0643c",
"l c #a86840",
"j c #a8a8a8",
"y c #b47044",
"# c #b4b4b4",
"s c #bc7848",
"p c #c87c4c",
"D c #d08050",
"r c #dc8854",
"v c #e88c58",
"C c #f0945c",
"w c #fc9c60",
"F c #fca470",
"q c #fcb080",
"................................................................",
"................................................................",
"................................................................",
"................................................................",
"................................................................",
"................................................................",
"................................................................",
"................................................................",
"................................................................",
"................................................................",
"................................................................",
"................................................................",
"................................................................",
"................................................................",
"................................................................",
"................................................................",
"................................#aabcdd.........................",
"...............................#ebcfgggd........................",
"..............................eabddghhhg........................",
"..............................ebfdghhhhg........................",
"..............................ccdghhiiihg.......................",
".............................jeabfghiik.........................",
"............................jeabfghiikl.........................",
"...............................mmmmnlll.........................",
"...............................oooonpll.........................",
"...............................qrrsqnpl.........................",
"..............................iiiinnn...........................",
".............................kiiiineft..........................",
"............................upvwwuiislx.........................",
"...........................uyvvwuiwwrslx........................",
"...........................uyvvuiwwswslx........................",
"...........................uyvpiuwrzwslx........................",
"...........................uypuiwwzwssux........................",
"...........................uypiuvppwrsAB........................",
"............................uuiwvupwuuAB........................",
"............................uiAvvuwwqwB.........................",
".............................iBvvuwqoCB.........................",
".............................hgghkwwwBB.........................",
".............................hgghkppCkks........................",
"............................uuukkkppplks........................",
"............................Drrprrlsskk.........................",
"...........................uDrprwrsllku.........................",
"...........................uvrlrwrskkrsE........................",
"...........................uAAArrrAlrruE........................",
"...........................AyyoAAzmlFCxmE.......................",
"............................vvDomGmmkxBmE.......................",
"...........................pvwvpxAAxAkBBmE......................",
"...........................pwwvpxxluAkkBmE......................",
"...........................pwwvluxluukzBBE......................",
"...........................pDDllkmkxxkkkBE......................",
"..........................ppwwDlBm.klllkmmE.....................",
"..........................pllluABE..zxBBkBE.....................",
".........................pwwwDlkmE..zllkkzE.....................",
".........................pppuuskE...AAAkzEE.....................",
".........................HIJzukBE....BBBEEn.....................",
".........................KIJHnmm.....LMNHnn.....................",
"........................HIHHHnn.......MNHnn.....................",
"........................KIKHnn........KLOLn.....................",
"......................JIINHJn.........LMNLn.....................",
"......................ttLILn...........MNLnLLn..................",
"......................ttLLL............MNNnnnnn.................",
"......................tttLLLL..........MNNLnnn..................",
".......................ttLnnnn.........LLLLL....................",
".......................tttnnn..................................."};
