/* XPM */
static char *dummy[]={
"64 64 54 1",
"u c #000000",
"U c #000040",
"S c #00004c",
"Q c #000058",
"Y c #000064",
"V c #000070",
"R c #00007c",
"n c #000088",
"W c #000098",
"X c #0000a4",
"l c #0000a8",
"T c #0000bc",
"Z c #0000e0",
"i c #202020",
"F c #28200c",
"g c #2c2c2c",
"N c #382c14",
"h c #383838",
"M c #403018",
"v c #483818",
"e c #484848",
"E c #543c1c",
"d c #545454",
"P c #5c4020",
"c c #646464",
"J c #6c4824",
"b c #707070",
"B c #744c28",
"a c #7c7c7c",
"w c #80502c",
"K c #885830",
"f c #8c8c8c",
"L c #905c34",
". c #980088",
"k c #989898",
"r c #9c6038",
"m c #a0643c",
"x c #a86840",
"# c #a8a8a8",
"D c #b47044",
"A c #b4b4b4",
"H c #bc7848",
"j c #c0c0c0",
"o c #c87c4c",
"t c #d08050",
"I c #dc8854",
"O c #dcdcdc",
"z c #e88c58",
"G c #f0945c",
"s c #fc9c60",
"y c #fca470",
"q c #fcb080",
"p c #fcb890",
"C c #fcfcfc",
"................................................................",
"................................................................",
"................................................................",
"................................................................",
"................................................................",
"................................................................",
"................................................................",
"................................................................",
"................................................................",
"................................................................",
"................................................................",
"................................................................",
"................................................................",
"................................................................",
"................................................................",
"................................................................",
".............................#aabcde............................",
"............................#fadeeege...........................",
"............................baddeeehg...........................",
"...........................bbbbeeiihg...........................",
"..........................fjj#kabgghge..........................",
"...........................hlmnlebbdeg..........................",
"...........................hopqqrehhhhh.........................",
"............................msstruvv............................",
"............................woxsriwv............................",
"............................myodiwmv............................",
".............................uwwzouuu...........................",
"............................uuqyodAuuu..........................",
"...........................BiuqouCduBBBv........................",
"..........................BDguEuuuFBGGHmv.......................",
"..........................DvgIBIIGGGGrmmm.......................",
".........................JKGggBDLBEGLHmmmv......................",
".........................JxGIgBLGGMGEHHmBN......................",
".........................JrrIggJmmMHEHHmBN......................",
".........................JHLIEgBMMHBNHHmBN......................",
".........................JHBHHggBHHBNIImBN......................",
".........................JHvHHugggBBNvBmvN......................",
"..........................FBhhOfhiiiuIIHmN......................",
"..........................HMhh#chiiiuvHBvN......................",
"..........................BFLHBHrBEFBIIHBN......................",
".........................JHPLIBHrwEFrIImEN......................",
".........................JHLxIBHrwEFIImwN.......................",
".........................JHLxIBHrwPENNwEN.......................",
"..........................uLxIBHrwPmymNN........................",
"..........................mMMMMMMMMpGorv........................",
"..........................mPrrrPrrrDsoPv........................",
"...........................wHHwvwHxsowNv........................",
"...........................wIrwvrIHHwvNN........................",
"...........................wIrrvrIHHxBvN........................",
"...........................wIxrvBIHHLBvN........................",
"...........................wGHrPvGIILBFN........................",
"............................HmJPvHIxLvvE........................",
"............................IHwKvHIHHrPE........................",
"............................HHLKMxHHHrBE........................",
"............................wLJJMvrwwBBF........................",
".............................iiiuiiiiuuu........................",
".............................lQiuulRSSSu........................",
".............................lQiuuTRSSSu........................",
".............................lliuunRTSSu........................",
".............................ggUuuUTRSu.........................",
"..............................gUUugVRSu.........................",
"............................WWXYYMTZlViu........................",
"...........................RUuuuMTYYiiiu........................",
"..........................UUUuuugRiiiiiu........................"};
