/* XPM */
static char *dummy[]={
"64 64 52 1",
"k c #000000",
"N c #000040",
"U c #00004c",
"X c #000058",
"R c #000064",
"O c #000070",
"Q c #00007c",
"T c #000088",
"S c #000098",
"W c #0000a4",
"P c #0000a8",
"V c #0000d4",
"m c #0004fc",
"o c #202020",
"M c #28200c",
"h c #2c2c2c",
"d c #383838",
"J c #403018",
"u c #483818",
"g c #484848",
"E c #543c1c",
"c c #545454",
"G c #5c4020",
"e c #646464",
"C c #6c4824",
"f c #707070",
"p c #744c28",
"# c #7c7c7c",
"n c #80502c",
"F c #885830",
"b c #8c8c8c",
"D c #905c34",
". c #980088",
"A c #9c6038",
"l c #a0643c",
"I c #a86840",
"a c #a8a8a8",
"t c #b47044",
"L c #b4b4b4",
"y c #bc7848",
"i c #c0c0c0",
"z c #c87c4c",
"s c #d08050",
"j c #d0d0d0",
"v c #dc8854",
"H c #e88c58",
"x c #f0945c",
"w c #fc9c60",
"q c #fca470",
"B c #fcb080",
"K c #fcb890",
"r c #fcbc9c",
"................................................................",
"................................................................",
"................................................................",
"................................................................",
"................................................................",
"................................................................",
"................................................................",
"................................................................",
"................................................................",
"................................................................",
"................................................................",
"................................................................",
"................................................................",
"................................................................",
"................................................................",
"................................................................",
"................................................................",
"................................................................",
".............................#ab#cd.............................",
"............................#aefcghh............................",
"............................b#ffcgdh............................",
"...........................#b#ffccghh...........................",
"..........................##ijiabfccdd..........................",
"..........................#gklmlnmnkod..........................",
"..........................hopqrstrqpoh..........................",
"...........................ouvwxxwvuo...........................",
"............................uyvztvyu............................",
"...........................kkAwBBwukk...........................",
"..........................ekkkClllkkk...........................",
".........................zedfjkkkkjfkD..........................",
"........................zzgeEkgFGdkktvl.........................",
".......................lsygdDtHyvttvvssl........................",
".......................lHDtddDtylDDtHsyyp.......................",
".......................lyDAIooDylysFtlysp.......................",
".......................yICAvpoodDpAAluysE.......................",
".......................ysIAyvpJkovBKspysF.......................",
".......................zsICIzzCJJBxvvttAy.......................",
".......................ssGulznsCDBxvvtttC.......................",
"........................qldcfciLdJstMFFFC.......................",
"........................Kzdcfc##ddddCpppC.......................",
"..........................GCnnnnEnnGGCCC........................",
".........................ntsssyIplDFpEM.........................",
".........................DswxvsIFlDFpGE.........................",
".........................tHwxvsIApDFpGu.........................",
".........................tlDDDDDlpDFpGJ.........................",
".........................ltyvvzlCMGGEJJ.........................",
".........................DvHHHvzFGCCEuJ.........................",
".........................DvHHHHzFGnpCE..........................",
"..........................vHHHHzDGnppG..........................",
".........................IHHHHHttpFppG..........................",
".........................yHIHHHvFFApEpG.........................",
".........................HIzzzzAzpEEEJG.........................",
".........................nnzzzzIpJEuJo..........................",
"..........................nAzzzICooook..........................",
"..........................nnFFFCMkkkk...........................",
"...........................kooookNNNo...........................",
"...........................OPOokkNQRo...........................",
"...........................OPOokkoSRo...........................",
"...........................OPOokkoTSR...........................",
"............................POok.kooo...........................",
"............................kOok................................",
"...........................UOVQNk...............................",
"..........................dRTWTXod..............................",
"..........................dNNNoood.............................."};
