/* XPM */
static char *dummy[]={
"64 64 48 1",
"s c #000000",
"P c #000040",
"R c #00004c",
"S c #000064",
"n c #000070",
"l c #000088",
"T c #000098",
"k c #0000a8",
"Q c #0000b0",
"w c #202020",
"G c #28200c",
"h c #2c2c2c",
"K c #382c14",
"g c #383838",
"M c #403018",
"o c #483818",
"f c #484848",
"H c #543c1c",
"e c #545454",
"y c #5c4020",
"d c #646464",
"J c #6c4824",
"j c #707070",
"E c #744c28",
"c c #7c7c7c",
"m c #80502c",
"x c #885830",
"# c #8c8c8c",
"D c #905c34",
". c #980088",
"b c #989898",
"I c #9c6038",
"v c #a0643c",
"p c #a86840",
"i c #a8a8a8",
"u c #b47044",
"C c #bc7848",
"a c #c0c0c0",
"A c #c87c4c",
"q c #d08050",
"B c #d0d0d0",
"F c #dc8854",
"O c #e88c58",
"r c #f0945c",
"t c #fc9c60",
"L c #fca470",
"z c #fcb080",
"N c #fcb890",
"................................................................",
"................................................................",
"................................................................",
"................................................................",
"................................................................",
"................................................................",
"................................................................",
"................................................................",
"................................................................",
"................................................................",
"................................................................",
"................................................................",
"................................................................",
"................................................................",
"................................................................",
"................................................................",
".................................#abccde........................",
"................................#a#defghg.......................",
"................................a#deffghh.......................",
"................................iceeffghhg......................",
"................................#defcdeehhh.....................",
"...............................ab#jcfklmng......................",
"..............................ab#jjfopqrmg......................",
".................................mosttquv.......................",
".................................upwtqxxy.......................",
".................................zrtwequv.......................",
"...............................ssstAmmo.........................",
"..............................sssBeAAmos........................",
"............................CjeeseisDmswE.......................",
"...........................CFFFxeGsssHshuE......................",
"..........................CFrrFrxhhCCIppEu......................",
"..........................rrFCCDrxoopIppExJ.....................",
".........................CrrFCvHppxsoExxEoJ.....................",
".........................rrrFvEHEpposoxxEoJ.....................",
"........................CrFvvEoKExxxosoxEoJ.....................",
".......................CrLLvJoKExxxEMssEoHHJ....................",
".......................CrLvJooKEEMEEMosooJJJ....................",
".......................CrLFFpJsssssccssEGHppp...................",
"........................CCFrrpJossseessMoHxpp...................",
".........................pCFCDtNAMHHMHHo.Hxpp...................",
"...........................qvONtAEEEMJJo........................",
"..........................qqqONtIEEJoJJo........................",
"..........................qqqAAIEEEyoJJo........................",
"..........................vvIxvyEEEMyMMs........................",
"..........................AOxxyHHooMMyy.........................",
"..........................AOAImJyyHHyEE.........................",
"..........................AOApxEJyHyEEEE........................",
"..........................AOApxmJyHyJEEE........................",
"..........................AOAuIxJyHyJEEEE.......................",
".........................OAOAuIxJyHmJEEEE.......................",
"..........................tttFuIJHyHmmEEE.......................",
".........................AvvuuuxJHvxmmEEE.......................",
".........................AOAAuIJyHJJJyyyE.......................",
".........................vAuuIxJHsKoyyEE........................",
".........................GEEmJJyKsssss..........................",
".........................nsswsssssss............................",
".........................nllnPsssss.............................",
".........................nlQnPsss...............................",
".........................nlQnPss................................",
".........................nQnPssss...............................",
".........................nRssssss...............................",
"........................nSQQSPssss..............................",
"........................nQTSSSPPs...............................",
"........................gggPPssss..............................."};
