/* XPM */
static char *dummy[]={
"64 64 44 1",
"t c #000000",
"M c #000040",
"P c #000058",
"L c #000064",
"l c #000088",
"k c #0000a8",
"O c #0000b0",
"v c #202020",
"A c #28200c",
"h c #2c2c2c",
"N c #382c14",
"g c #383838",
"K c #403018",
"j c #483818",
"f c #484848",
"n c #543c1c",
"e c #545454",
"x c #5c4020",
"C c #600064",
"d c #646464",
"E c #6c4824",
"w c #744c28",
"c c #7c7c7c",
"s c #80502c",
"B c #885830",
"# c #8c8c8c",
"y c #905c34",
". c #980088",
"b c #989898",
"o c #9c6038",
"F c #a0643c",
"m c #a86840",
"i c #a8a8a8",
"D c #b47044",
"H c #bc7848",
"a c #c0c0c0",
"p c #c87c4c",
"u c #d08050",
"J c #dc8854",
"r c #e88c58",
"z c #f0945c",
"q c #fc9c60",
"G c #fca470",
"I c #fcb890",
"................................................................",
"................................................................",
"................................................................",
"................................................................",
"................................................................",
"................................................................",
"................................................................",
"................................................................",
"................................................................",
"................................................................",
"................................................................",
"................................................................",
"................................................................",
"................................................................",
"................................................................",
"................................................................",
"................................................................",
"................................#abccde.........................",
"...............................#a#defghg........................",
"...............................a#deffghh........................",
"...............................iceefghhhg.......................",
"...............................#decdeehhhh......................",
"..............................ib##jklmnlg.......................",
".............................ib##jopqprsg.......................",
"................................jtqupmos........................",
"................................svqppwxn........................",
"...............................ttsvqpmow........................",
"..............................ttctrssjv.........................",
"...........................ypfftictssjvw........................",
".........................yzzppffAtvtntyBw.......................",
"........................yzzuzpyCgCmstmBBBw......................",
".......................yzzuDoyymvgCsBwEEBs......................",
".......................zDuDFwnyyDvCCBwwnwBw.....................",
"......................GGpmywxnyByFvCCwnBnws.....................",
"......................zzDss.HwyBBwEvCCnnEooB....................",
"......................zuzzo.HHyBBwwjvCwHIzBB....................",
"......................uzzzD..HmBswwjvCCHJpFB....................",
".......................pzpGq.gghvtcdfttHJpFB....................",
".......................mpGGpBgghvteefttnHFF.....................",
"........................pGGmBFywxxjKjjK.........................",
".........................pmBuuHmywwwjEx.........................",
"............................uHHyswwwxEx.........................",
"...........................uuHoyBwwwxEx.........................",
"...........................uHoBEnnjKxEx.........................",
"...........................BmmpmsExnKK..........................",
"............................BHupysExxj..........................",
"............................DpupmyExx...........................",
"............................DorpDyExxn..........................",
"............................DorpumsExx..........................",
"...........................HFomuuHBExxn.........................",
"...........................FHFsBDuFBxxx.........................",
"..........................xHHFsxuHFsxxn.........................",
"..........................LHFBwxHBxExxnn........................",
".........................LLtywnxDBwxxxnn........................",
".........................LLvtKK.oHwwnxnK........................",
"......................Mkkttttt...EnKNAAK........................",
"......................MLMttt.....OlMttt.........................",
"......................MMtttt.....LOMttt.........................",
"......................tLtttt......OlPtt.........................",
".......................tttttt.....LMMPtt........................",
"........................ttttt......OlMtt........................",
"..................................LllLttt.......................",
"..................................LLMMMtttt.....................",
"..................................ggggMMMMt....................."};
