/* XPM */
static char *dummy[]={
"64 64 48 1",
"r c #000000",
"P c #000040",
"R c #00004c",
"T c #000058",
"S c #000064",
"O c #000070",
"l c #000088",
"k c #0000a8",
"Q c #0000b0",
"v c #202020",
"F c #28200c",
"h c #2c2c2c",
"J c #382c14",
"g c #383838",
"K c #403018",
"n c #483818",
"f c #484848",
"G c #543c1c",
"e c #545454",
"x c #5c4020",
"d c #646464",
"I c #6c4824",
"j c #707070",
"D c #744c28",
"c c #7c7c7c",
"m c #80502c",
"w c #885830",
"# c #8c8c8c",
"C c #905c34",
". c #980088",
"b c #989898",
"H c #9c6038",
"u c #a0643c",
"o c #a86840",
"i c #a8a8a8",
"t c #b47044",
"B c #bc7848",
"a c #c0c0c0",
"z c #c87c4c",
"p c #d08050",
"A c #d0d0d0",
"E c #dc8854",
"N c #e88c58",
"q c #f0945c",
"s c #fc9c60",
"M c #fca470",
"y c #fcb080",
"L c #fcb890",
"................................................................",
"................................................................",
"................................................................",
"................................................................",
"................................................................",
"................................................................",
"................................................................",
"................................................................",
"................................................................",
"................................................................",
"................................................................",
"................................................................",
"................................................................",
"................................................................",
"................................................................",
"................................................................",
".............................#abccde............................",
"............................#a#defghg...........................",
"............................a#deffghh...........................",
"............................iceeffghhg..........................",
"............................#defcdeehhh.........................",
"...........................ab#jcfklmkg..........................",
"..........................ab#jjfnopqmg..........................",
".............................mnrssptu...........................",
".............................tovspwwx...........................",
".............................yqsveptu...........................",
"............................rrrszmmr............................",
"...........................rrrAezzmrr...........................",
".........................BjeereirCmrvD..........................",
"........................BEEEweFrrrGrhtD.........................",
"........................EqqEqwhhBBHooDt.........................",
".......................BqEBBCqwrroHooDwI........................",
".......................BqEBuGoowrrDwwDnI........................",
".......................BqEBuGDooorrwwDnI........................",
".......................BqEBuJDwwwwrrwDnI........................",
".......................BqBuuJDwwwDKrrDnI........................",
".......................BEBDnJDDKDDKDrnnI........................",
".......................BEEEurrrrrccrrDF.........................",
".......................BEzCnrrrrreerrKn.........................",
".......................oBEEuDFGKGGKGGFD.........................",
".......................oEEBuIFGDDDKDDxnI........................",
"........................BEBBuFGDDDKDDDnI........................",
"........................BEECCGxDDDKDDDnI........................",
".........................BCuLuxDDDKDDDr.........................",
".........................uLLzzKFFrrrrFu.........................",
".........................uLLsmmIGJGImxu.........................",
".........................uzLMzmIGJGmmu..........................",
".........................uzNtHHIxJGmmu..........................",
".........................uzNzHHIxJImuC..........................",
".........................NzNztHIGJmmmu..........................",
".........................ussNztmnxGmmu..........................",
".........................zuuCmIIJGmmm...........................",
".........................zNzztmIJImmu...........................",
".........................uztHIIGKxmmu...........................",
".........................FDDmIIJKxICm...........................",
".........................rrrvrrrrrrr............................",
".........................rllOPrrOPrr............................",
".........................rlQOPrrOPrr............................",
".........................rlQOPrrOPrr............................",
"..........................rQOPrOPrrr............................",
"..........................rRrrrOPrr.............................",
".........................rSQQOrKOPrrr...........................",
".........................rQSSPrrKPrrrr..........................",
".........................rSTPrrrhPrrrrr........................."};
