/* XPM */
static char *dummy[]={
"64 64 51 1",
"u c #000000",
"T c #000040",
"Q c #00004c",
"W c #000064",
"R c #000070",
"S c #00007c",
"n c #000088",
"l c #0000a8",
"U c #0000bc",
"V c #0000e0",
"i c #202020",
"G c #28200c",
"g c #2c2c2c",
"M c #382c14",
"h c #383838",
"O c #403018",
"v c #483818",
"e c #484848",
"E c #543c1c",
"d c #545454",
"P c #5c4020",
"c c #646464",
"L c #6c4824",
"b c #707070",
"B c #744c28",
"a c #7c7c7c",
"w c #80502c",
"J c #885830",
"f c #8c8c8c",
"K c #905c34",
". c #980088",
"k c #989898",
"r c #9c6038",
"m c #a0643c",
"x c #a86840",
"# c #a8a8a8",
"D c #b47044",
"A c #b4b4b4",
"F c #bc7848",
"j c #c0c0c0",
"o c #c87c4c",
"t c #d08050",
"I c #dc8854",
"N c #dcdcdc",
"z c #e88c58",
"H c #f0945c",
"s c #fc9c60",
"y c #fca470",
"q c #fcb080",
"p c #fcb890",
"C c #fcfcfc",
"................................................................",
"................................................................",
"................................................................",
"................................................................",
"................................................................",
"................................................................",
"................................................................",
"................................................................",
"................................................................",
"................................................................",
"................................................................",
"................................................................",
"................................................................",
"................................................................",
"................................................................",
"................................................................",
"..........................#aabcde...............................",
".........................#fadeeege..............................",
".........................baddeeehg..............................",
"........................bbbbeeiihg..............................",
".......................fjj#kabgghge.............................",
"........................hlmnlebbdeg.............................",
"........................hopqqrehhhhh............................",
".........................msstruvv...............................",
".........................woxsriwv...............................",
".........................myodiwmwv..............................",
"...........................uwwzouuu.............................",
"..........................uuqyodAuuu............................",
".........................BiuqouCduBBBv..........................",
"........................BDhuEuFuGBHHFmv.........................",
"........................DvhwBIIHHHHrmmmv........................",
"........................JHwhBDKJJHKFmmmBv.......................",
"........................xHrhBKHHJHEJFFBmB.......................",
"........................rrIhhJmmJFLEJBFmmB......................",
".........................KIwhDJJFBLEvvBmBB......................",
".........................BFFhhDFFBLEEJIFmB......................",
".......................LFvFFBhggBBLEEDIImM......................",
".....................DHHGBhhNfhiiiiiwIImE.......................",
".....................DHDHOhh#chiiiiixxLwM.......................",
".....................DHD..GKFBFrBwLpzmrE........................",
"..........................PKIKooDDwHxxrM........................",
"..........................KtIKooDDDorrE.........................",
"..........................tsIKoooDDLEE..........................",
"..........................wwwBBJoDDJJEE.........................",
"..........................mooormOOOOOOO.........................",
".........................tyyyHDDDDrxJJP.........................",
".........................yyyyHDDzzIxxwM.........................",
"........................tyyqyHKDIzIFxwM.........................",
"........................yyyyttKvFIztxwv.........................",
"........................yqqyyDvvDDFFKBv.........................",
"........................yzoDDyKxxrrIPPG.........................",
".........................oxxDDxvxxxxIm..........................",
"..........................LxLwwvxBwwPwwv........................",
"............................wwvvuBwwKPOO........................",
"...............................uuvBBLPvO........................",
".................................iiiiuuu........................",
"..................................QQuuuu........................",
"..................................RQQuuu........................",
"...................................nSRuu........................",
"...................................TUuuu........................",
"...................................gRSQuu.......................",
"..................................OUVlRiu.......................",
"................................RUUWWiiuu.......................",
"................................gWSiuuhhh......................."};
