/* XPM */
static char *dummy[]={
"47 66 53 1",
"L c #000000",
"K c #00007c",
"N c #0000a8",
"O c #0000fc",
"Y c #202020",
"I c #28200c",
"c c #2c2c2c",
"v c #382c14",
"b c #383838",
"D c #403018",
"p c #483818",
"a c #484848",
"j c #543c1c",
"H c #545454",
"q c #5c4020",
". c #5c60fc",
"l c #6c4824",
"J c #707070",
"m c #744c28",
"# c #7c80fc",
"n c #80502c",
"o c #885830",
"U c #905c34",
"d c #9c4c00",
"u c #9c6038",
"r c #a0643c",
"Q c #a80000",
"h c #a85400",
"G c #a86840",
"P c #a8a8a8",
"f c #b45400",
"t c #b47044",
"R c #bc7848",
"y c #c87c4c",
"e c #cc6000",
"W c #d08050",
"M c #d0d0d0",
"s c #dc8854",
"g c #e46c00",
"B c #e88c58",
"S c #f0945c",
"i c #fc7800",
"k c #fc8820",
"C c #fc9c60",
"w c #fca470",
"z c #fcb080",
"x c #fcb890",
"X c #fcbc9c",
"A c #fcc4a4",
"V c #fcd4bc",
"E c #fcd8c4",
"F c #fce8dc",
"T c #fcfcfc",
".............................................##",
".............................................##",
"aaaaaaaaaabbbbbbbbbbbbbbbbbbbbbbbbbaaaaaaaaaaaa",
"aaaaaaaaaabbbbbbbbbbbbbbbbbbbbbbbbbaaaaaaaaaaaa",
"aaaaaaaaccddeeffeeeeggeegggggggggggeeddbbaaaaaa",
"aaaaaaaaccddeeffeeeeggeegggggggggggeeddbbaaaaaa",
"aaaaaaccddhhffeeffeeeeeeeeeeeggiiggggeeddbbaaaa",
"aaaaaaccddhhffeeffeeeeeeeeeeeggiiggggeeddbbaaaa",
"aaaaaaccddhhffeeffeeeeeeeeeeeggiiggggeeddbbaaaa",
"aaaaaajjhhhhhhhhhhhhhhhhhffffeeggiikkiieellaaaa",
"aaaaaajjhhhhhhhhhhhhhhhhhffffeeggiikkiieellaaaa",
"aaaaccddhhhhddjjmmllllhhmmmnnnneeiikkggggoobbaa",
"aaaaccddhhhhddjjmmllllhhmmmnnnneeiikkggggoobbaa",
"aaaaccddhhddjjmmppppmmmmhqqjjmmddggiihhmmeebbaa",
"aaaaccddhhddjjmmppppmmmmhqqjjmmddggiihhmmeebbaa",
"aaaaccddddmmrrssssssttuumqqvvjjmmgghhrrmmddbbaa",
"aaaaccddddmmrrssssssttuumqqvvjjmmgghhrrmmddbbaa",
"aaaaccjjuuuuwwxxxxwwwwsssyyrruuuueezzssuummbbaa",
"aaaaccjjuussAAAAAAAAAAAAzBBssrrCChhzzAAttjjccaa",
"aaaaccjjuussAAAAAAAAAAAAzBBssrrCChhzzAAttjjccaa",
"aaaaccjjuuzzCCwwzzAAAAAAAzzBByyCCzzAAAAssjjccaa",
"aaaaccjjuuzzCCwwzzAAAAAAAzzBByyCCzzAAAAssjjccaa",
"aaaaccDDttsszzAAEEFFEEAAAAAssyyzzAAFFzzssjjccaa",
"aaaaccDDttsszzAAEEFFEEAAAAAssyyzzAAFFzzssjjccaa",
"aaaaccDDttzzbbccGGsszzxxxzzCCssGGaaHHEEssDDccaa",
"aaaaccDDttzzbbccGGsszzxxxzzCCssGGaaHHEEssDDccaa",
"aaaaccDDttzzbbccGGsszzxxxzzCCssGGaaHHEEssDDccaa",
"aaccwwIIssHHJJKKLLLLLLGGGGGLLLLccKKJJHHzzIIwwcc",
"aaccwwIIssHHJJKKLLLLLLGGGGGLLLLccKKJJHHzzIIwwcc",
"aaccssIIssssMMNNOOPPQQRRSGGQQPPNNOOTTssssIICCcc",
"aaccssIIssssMMNNOOPPQQRRSGGQQPPNNOOTTssssIICCcc",
"aaccttUUssxxwwwwwwwwxxzzVwwAAwwwwwwwwxxssUUttcc",
"aaccttUUssxxwwwwwwwwxxzzVwwAAwwwwwwwwxxssUUttcc",
"aaccssCCwwVVVVFFFFVVxxwwEAAAAAAVVFFFFVVwwxxsscc",
"aaccssCCwwVVVVFFFFVVxxwwEAAAAAAVVFFFFVVwwxxsscc",
"aaccCCRRwwAAVVVVAAAAWWzzVAASSAAAAVVVVAAwwsswwcc",
"aaccCCRRwwAAVVVVAAAAWWzzVAASSAAAAVVVVAAwwsswwcc",
"aaaaGGnnRRzzAAAAAASSGGooooouuwwAAAAAAzzRRnnGGaa",
"aaaaGGnnRRzzAAAAAASSGGooooouuwwAAAAAAzzRRnnGGaa",
"aaaaccnnwwsswwAAxxwwCCCCWwwxxzzAAAAwwssCCnnccaa",
"aaaaccnnwwsswwAAxxwwCCCCWwwxxzzAAAAwwssCCnnccaa",
"aaaaccnnwwsswwAAxxwwCCCCWwwxxzzAAAAwwssCCnnccaa",
"aaaabbnnzzCCxxAAwwzzxxxxwxxAAzzwwAAzzCCwwnnbbaa",
"aaaabbnnzzCCxxAAwwzzxxxxwxxAAzzwwAAzzCCwwnnbbaa",
"aaaaaacczzwwzzAARRuuRRWWWWWRRuuRRAAzzwwzzccaaaa",
"aaaaaacczzwwzzAARRuuRRWWWWWRRuuRRAAzzwwzzccaaaa",
"aaaaaacczzzzzzAAzzCCxxAAAEEAACCzzAAzzXXxxYYaaaa",
"aaaaaacczzzzzzAAzzCCxxAAAEEAACCzzAAzzXXxxYYaaaa",
"aaaaaaccsszzzzAAAAzzwwSSBSSwwzzAAAAzzzzxxYYaaaa",
"aaaaaaccsszzzzAAAAzzwwSSBSSwwzzAAAAzzzzxxYYaaaa",
"aaaaaaccuusszzAAVVFFVVAAAAAAAVVFFAAzzwwAAYYaaaa",
"aaaaaaccUUuusswwAAAAAAzzszzAAAAAAwwSSCCAAbbaaaa",
"aaaaaaccUUuusswwAAAAAAzzszzAAAAAAwwSSCCAAbbaaaa",
"aaaaaaccUUlluuRRssssssyyGyyssssssRRuuAAAAbbaaaa",
"aaaaaaccUUlluuRRssssssyyGyyssssssRRuuAAAAbbaaaa",
"aaaaaabbUUqqllppppppppppqllmmmmUUUUyyAAAAbbaaaa",
"aaaaaabbUUqqllppppppppppqllmmmmUUUUyyAAAAbbaaaa",
"aaaaaabbUUqqnnmmmmnnuuuuuuuuuGGyyAAAAyywwaaaaaa",
"aaaaaabbUUqqnnmmmmnnuuuuuuuuuGGyyAAAAyywwaaaaaa",
"aaaaaabbUUqqnnmmmmnnuuuuuuuuuGGyyAAAAyywwaaaaaa",
"aaaaaaaammqqmmnnuuuussttyyyyyGGzzXXAAAAyyaaaaaa",
"aaaaaaaammqqmmnnuuuussttyyyyyGGzzXXAAAAyyaaaaaa",
"aaaaaaaammmmnnuuWWsszzssAAAwwyyssVVwwwwrraaaaaa",
"aaaaaaaammmmnnuuWWsszzssAAAwwyyssVVwwwwrraaaaaa",
"aaaaaaaammmmuuuurrCCzzsswAAxxwwyyxxwwrrrraaaaaa",
"aaaaaaaammmmuuuurrCCzzsswAAxxwwyyxxwwrrrraaaaaa"};
