/* XPM */
static char *dummy[]={
"47 66 54 1",
"M c #000064",
"Q c #0000a4",
"P c #0000a8",
"V c #0000fc",
"O c #202020",
"K c #28200c",
"c c #2c2c2c",
"v c #382c14",
"b c #383838",
"D c #403018",
"p c #483818",
"a c #484848",
"j c #543c1c",
"E c #545454",
"q c #5c4020",
". c #5c60fc",
"l c #6c4824",
"F c #707070",
"m c #744c28",
"N c #7c7c7c",
"# c #7c80fc",
"n c #80502c",
"o c #885830",
"J c #905c34",
"d c #9c4c00",
"u c #9c6038",
"r c #a0643c",
"T c #a80000",
"h c #a85400",
"I c #a86840",
"f c #b45400",
"t c #b47044",
"L c #bc7848",
"S c #c0c0c0",
"y c #c87c4c",
"e c #cc6000",
"X c #d08050",
"s c #dc8854",
"g c #e46c00",
"C c #e88c58",
"R c #ececec",
"U c #f0945c",
"i c #fc7800",
"k c #fc8820",
"A c #fc9c60",
"w c #fca470",
"z c #fcb080",
"x c #fcb890",
"Z c #fcbc9c",
"B c #fcc4a4",
"Y c #fcccb0",
"W c #fcd4bc",
"G c #fcd8c4",
"H c #fce8dc",
".............................................##",
".............................................##",
"aaaaaaaaaabbbbbbbbbbbbbbbbbbbbbbbbbaaaaaaaaaaaa",
"aaaaaaaaaabbbbbbbbbbbbbbbbbbbbbbbbbaaaaaaaaaaaa",
"aaaaaaaaccddeeffeeeeggeegggggggggggeeddbbaaaaaa",
"aaaaaaaaccddeeffeeeeggeegggggggggggeeddbbaaaaaa",
"aaaaaaccddhhffeeffeeeeeeeeeeeggiiggggeeddbbaaaa",
"aaaaaaccddhhffeeffeeeeeeeeeeeggiiggggeeddbbaaaa",
"aaaaaaccddhhffeeffeeeeeeeeeeeggiiggggeeddbbaaaa",
"aaaaaajjhhhhhhhhhhhhhhhhhffffeeggiikkiieellaaaa",
"aaaaaajjhhhhhhhhhhhhhhhhhffffeeggiikkiieellaaaa",
"aaaaccddhhhhddjjmmllllhhmmmnnnneeiikkggggoobbaa",
"aaaaccddhhhhddjjmmllllhhmmmnnnneeiikkggggoobbaa",
"aaaaccddhhddjjmmppppmmmmhqqjjmmddggiihhmmeebbaa",
"aaaaccddhhddjjmmppppmmmmhqqjjmmddggiihhmmeebbaa",
"aaaaccddddmmrrssssssttuumqqvvjjmmgghhrrmmddbbaa",
"aaaaccddddmmrrssssssttuumqqvvjjmmgghhrrmmddbbaa",
"aaaaccjjuuuuwwxxxxwwwwsssyyrruuuueezzssuummbbaa",
"aaaaccjjuuyyssAAwwzzBBBBzCCssrrAAhhzzBBttjjccaa",
"aaaaccjjuuyyssAAwwzzBBBBzCCssrrAAhhzzBBttjjccaa",
"aaaaccjjuuzzwwzzxxBBBBBBBzzCCyyAAzzBBBBssjjccaa",
"aaaaccjjuuzzwwzzxxBBBBBBBzzCCyyAAzzBBBBssjjccaa",
"aaaaccDDttssbbccEEFFGGBBBBBssyyzzBBHHzzssjjccaa",
"aaaaccDDttssbbccEEFFGGBBBBBssyyzzBBHHzzssjjccaa",
"aaccIIDDttEEJJmmjjjjFFxxxzzAAssaabbbbGGssDDccaa",
"aaccIIDDttEEJJmmjjjjFFxxxzzAAssaabbbbGGssDDccaa",
"aaccIIDDttEEJJmmjjjjFFxxxzzAAssaabbbbGGssDDccaa",
"aaccssKKssLLMMMMNNaajjIIIIIOOOOccEEFFaazzKKyycc",
"aaccssKKssLLMMMMNNaajjIIIIIOOOOccEEFFaazzKKyycc",
"aaccttJJssssPPQQRRSSTTLLUIITTPPVVRRSSssssKKAAcc",
"aaccttJJssssPPQQRRSSTTLLUIITTPPVVRRSSssssKKAAcc",
"aaccssAAssxxzzwwwwzzxxzzWwwBBzzwwwwzzxxssJJLLcc",
"aaccssAAssxxzzwwwwzzxxzzWwwBBzzwwwwzzxxssJJLLcc",
"aaccAALLwwWWWWHHHHWWxxwwGBBBBBBWWHHHHWWwwwwsscc",
"aaccAALLwwWWWWHHHHWWxxwwGBBBBBBWWHHHHWWwwwwsscc",
"aaaaLLnnwwBBWWWWBBBBXXzzWBBUUBBBBWWWWBBwwzzAAcc",
"aaaaLLnnwwBBWWWWBBBBXXzzWBBUUBBBBWWWWBBwwzzAAcc",
"aaaaccnnLLzzBBBBBBUUIIooooouuwwBBBBBBzzLLnnyyaa",
"aaaaccnnLLzzBBBBBBUUIIooooouuwwBBBBBBzzLLnnyyaa",
"aaaabbnnwwsszzBBxxwwAAAAXwwxxwwxxBBBBssAAnnccaa",
"aaaabbnnwwsszzBBxxwwAAAAXwwxxwwxxBBBBssAAnnccaa",
"aaaabbnnwwsszzBBxxwwAAAAXwwxxwwxxBBBBssAAnnccaa",
"aaaaaannAAAAwwBBzzUUxxxxzzzBBzzUUxxBBAAwwnnbbaa",
"aaaaaannAAAAwwBBzzUUxxxxzzzBBzzUUxxBBAAwwnnbbaa",
"aaaaaaccAAwwwwBBBBLLuuLLXXXLLuuuuwwBBwwwwccaaaa",
"aaaaaaccAAwwwwBBBBLLuuLLXXXLLuuuuwwBBwwwwccaaaa",
"aaaaaaccyyzzzzBBBBwwAAxxBGGYYBBAAzzBBxxwwOOaaaa",
"aaaaaaccyyzzzzBBBBwwAAxxBGGYYBBAAzzBBxxwwOOaaaa",
"aaaaaaccuusszzBBBBBBzzwwUCCUUwwzzBBBBxxzzOOaaaa",
"aaaaaaccuusszzBBBBBBzzwwUCCUUwwzzBBBBxxzzOOaaaa",
"aaaaaaccuuuussZZBBWWHHWWBBBBBBBWWHHBBzzwwOOaaaa",
"aaaaaaccJJuuJJsswwBBBBBBzsszzBBBBBBwwUUxxbbaaaa",
"aaaaaaccJJuuJJsswwBBBBBBzsszzBBBBBBwwUUxxbbaaaa",
"aaaaaaccJJllJJuuLLssssssyIIyyssssssLLttBBbbaaaa",
"aaaaaaccJJllJJuuLLssssssyIIyyssssssLLttBBbbaaaa",
"aaaaaabbJJqqJJllpppppppppqqllmmooJJIIyyBBbbaaaa",
"aaaaaabbJJqqJJllpppppppppqqllmmooJJIIyyBBbbaaaa",
"aaaaaabbJJqqnnmmmmnnuuuuuuuuuIIyyBBBBCCwwaaaaaa",
"aaaaaabbJJqqnnmmmmnnuuuuuuuuuIIyyBBBBCCwwaaaaaa",
"aaaaaabbJJqqnnmmmmnnuuuuuuuuuIIyyBBBBCCwwaaaaaa",
"aaaaaaaammqqmmnnuuuussttyyyyyIIzzZZBBBBssaaaaaa",
"aaaaaaaammqqmmnnuuuussttyyyyyIIzzZZBBBBssaaaaaa",
"aaaaaaaammmmnnuuXXsszzssBBBwwyyssWWxxzzLLaaaaaa",
"aaaaaaaammmmnnuuXXsszzssBBBwwyyssWWxxzzLLaaaaaa",
"aaaaaaaammmmuuuurrAAzzsswBBxxwwyyxxwwLLrraaaaaa",
"aaaaaaaammmmuuuurrAAzzsswBBxxwwyyxxwwLLrraaaaaa"};
