/* XPM */
static char *dummy[]={
"47 66 56 1",
"R c #000064",
"U c #0000a8",
"Y c #0000c8",
"V c #0000fc",
"H c #202020",
"Z c #2024fc",
"N c #28200c",
"c c #2c2c2c",
"v c #382c14",
"b c #383838",
"F c #403018",
"p c #483818",
"a c #484848",
"j c #543c1c",
"P c #545454",
"q c #5c4020",
". c #5c60fc",
"L c #646464",
"l c #6c4824",
"O c #707070",
"m c #744c28",
"Q c #7c7c7c",
"# c #7c80fc",
"n c #80502c",
"o c #885830",
"M c #905c34",
"d c #9c4c00",
"u c #9c6038",
"r c #a0643c",
"W c #a80000",
"h c #a85400",
"I c #a86840",
"f c #b45400",
"t c #b47044",
"S c #b4b4b4",
"K c #bc7848",
"y c #c87c4c",
"e c #cc6000",
"J c #d08050",
"T c #d0d0d0",
"s c #dc8854",
"X c #dcdcdc",
"g c #e46c00",
"B c #e88c58",
"E c #f0945c",
"i c #fc7800",
"k c #fc8820",
"C c #fc9c60",
"w c #fca470",
"z c #fcb080",
"x c #fcb890",
"1 c #fcbc9c",
"A c #fcc4a4",
"0 c #fcd4bc",
"D c #fcd8c4",
"G c #fce8dc",
".............................................##",
".............................................##",
"aaaaaaaaaabbbbbbbbbbbbbbbbbbbbbbbbbaaaaaaaaaaaa",
"aaaaaaaaaabbbbbbbbbbbbbbbbbbbbbbbbbaaaaaaaaaaaa",
"aaaaaaaaccddeeffeeeeggeegggggggggggeeddbbaaaaaa",
"aaaaaaaaccddeeffeeeeggeegggggggggggeeddbbaaaaaa",
"aaaaaaccddhhffeeffeeeeeeeeeeeggiiggggeeddbbaaaa",
"aaaaaaccddhhffeeffeeeeeeeeeeeggiiggggeeddbbaaaa",
"aaaaaaccddhhffeeffeeeeeeeeeeeggiiggggeeddbbaaaa",
"aaaaaajjhhhhhhhhhhhhhhhhhffffeeggiikkiieellaaaa",
"aaaaaajjhhhhhhhhhhhhhhhhhffffeeggiikkiieellaaaa",
"aaaaccddhhhhddjjmmllllhhmmmnnnneeiikkggggoobbaa",
"aaaaccddhhhhddjjmmllllhhmmmnnnneeiikkggggoobbaa",
"aaaaccddhhddjjmmppppmmmmhqqjjmmddggiihhmmeebbaa",
"aaaaccddhhddjjmmppppmmmmhqqjjmmddggiihhmmeebbaa",
"aaaaccddddmmrrssssssttuumqqvvjjmmgghhrrmmddbbaa",
"aaaaccddddmmrrssssssttuumqqvvjjmmgghhrrmmddbbaa",
"aaaaccjjuuuuwwxxxxwwwwsssyyrruuuueezzssuummbbaa",
"aaaaccjjuussAAAAAAAAAAAAzBBssrrCChhCCAAttjjccaa",
"aaaaccjjuussAAAAAAAAAAAAzBBssrrCChhCCAAttjjccaa",
"aaaaccjjuuzzCCwwzzAAAAAAzwwBByyCCzzDDEEssjjccaa",
"aaaaccjjuuzzCCwwzzAAAAAAzwwBByyCCzzDDEEssjjccaa",
"aaaaccFFttsszzAADDGGDDAAAxxssHHccccaaDDssjjccaa",
"aaaaccFFttsszzAADDGGDDAAAxxssHHccccaaDDssjjccaa",
"aaaaccFFttzzbbccaaIIssxxwJJHHppqqllKKLLssFFMMaa",
"aaaaccFFttzzbbccaaIIssxxwJJHHppqqllKKLLssFFMMaa",
"aaaaccFFttzzbbccaaIIssxxwJJHHppqqllKKLLssFFMMaa",
"aaccyyNNssaaOOPPHHHHHHIIIIImmbbLLQQRRwwzzNNzzcc",
"aaccyyNNssaaOOPPHHHHHHIIIIImmbbLLQQRRwwzzNNzzcc",
"aaccBBNNssssSSTTUUVVWWKKEIIWWSSXXYYZZwwssmmBBcc",
"aaccBBNNssssSSTTUUVVWWKKEIIWWSSXXYYZZwwssmmBBcc",
"aaccKKMMssxxwwwwwwwwxxzz0wwAAwwwwwwwwxxssttyycc",
"aaccKKMMssxxwwwwwwwwxxzz0wwAAwwwwwwwwxxssttyycc",
"aaccssCCww0000GGGG00xxwwDAAAAAA00GGGG00wwxxCCcc",
"aaccssCCww0000GGGG00xxwwDAAAAAA00GGGG00wwxxCCcc",
"aaccCCKKwwAA0000AAAAJJzz0AAEEAAAA0000AAwwJJCCcc",
"aaccCCKKwwAA0000AAAAJJzz0AAEEAAAA0000AAwwJJCCcc",
"aaaattnnKKzzAAAAAAEEIIooooouuwwAAAAAAzzKKnnmmaa",
"aaaattnnKKzzAAAAAAEEIIooooouuwwAAAAAAzzKKnnmmaa",
"aaaammnnBBsswwxxAAwwCCBBswwxxzzAAAAzzEECCnnccaa",
"aaaammnnBBsswwxxAAwwCCBBswwxxzzAAAAzzEECCnnccaa",
"aaaammnnBBsswwxxAAwwCCBBswwxxzzAAAAzzEECCnnccaa",
"aaaabbnnwwCCxxAAEEzzxxwwzxxAAEEzzAAxxCCwwnnbbaa",
"aaaabbnnwwCCxxAAEEzzxxwwzxxAAEEzzAAxxCCwwnnbbaa",
"aaaabbnnzzwwAAAAuuttKKJJJKKuuKKAAxxxxzzzzccaaaa",
"aaaabbnnzzwwAAAAuuttKKJJJKKuuKKAAxxxxzzzzccaaaa",
"aaaabbnnzzAAAAzzCCxxAAAADAACCwwAAxx11xxxxHHaaaa",
"aaaabbnnzzAAAAzzCCxxAAAADAACCwwAAxx11xxxxHHaaaa",
"aaaaaannzzAAAAAAzzwwEEBBEwwzzAAAAxxzzzzxxHHaaaa",
"aaaaaannzzAAAAAAzzwwEEBBEwwzzAAAAxxzzzzxxHHaaaa",
"aaaaaaccss11AA00GG00AAAAAAA00GGAAzzwwxxAAHHaaaa",
"aaaaaaccuusswwAAAAAAzzsszAAAAAAwwEECCAAAAbbaaaa",
"aaaaaaccuusswwAAAAAAzzsszAAAAAAwwEECCAAAAbbaaaa",
"aaaaaacclluuKKssssssyyIIyssssssKKuuxxAAAAbbaaaa",
"aaaaaacclluuKKssssssyyIIyssssssKKuuxxAAAAbbaaaa",
"aaaaaabbMMqqppppppppppqqlmmmmMMMMyyBBAAAAbbaaaa",
"aaaaaabbMMqqppppppppppqqlmmmmMMMMyyBBAAAAbbaaaa",
"aaaaaabbMMqqnnmmmmnnuuuuuuuuuIIyyAAwwsswwaaaaaa",
"aaaaaabbMMqqnnmmmmnnuuuuuuuuuIIyyAAwwsswwaaaaaa",
"aaaaaabbMMqqnnmmmmnnuuuuuuuuuIIyyAAwwsswwaaaaaa",
"aaaaaaaammqqmmnnuuuussttyyyyyKKzz11AACCyyaaaaaa",
"aaaaaaaammqqmmnnuuuussttyyyyyKKzz11AACCyyaaaaaa",
"aaaaaaaammmmnnuuJJsszzssAxxEEyyww00wwwwrraaaaaa",
"aaaaaaaammmmnnuuJJsszzssAxxEEyyww00wwwwrraaaaaa",
"aaaaaaaammmmuuuurrCCzzEEwAAzzEEyyxxwwrrrraaaaaa",
"aaaaaaaammmmuuuurrCCzzEEwAAzzEEyyxxwwrrrraaaaaa"};
