/* XPM */
static char *dummy[]={
"64 64 52 1",
"k c #000000",
"P c #000040",
"U c #00004c",
"Q c #000058",
"V c #000064",
"O c #000070",
"S c #00007c",
"T c #000088",
"W c #000098",
"p c #0000a8",
"X c #0000bc",
"R c #202020",
"N c #28200c",
"n c #2c2c2c",
"u c #382c14",
"i c #383838",
"q c #483818",
"h c #484848",
"t c #543c1c",
"g c #545454",
"I c #5c4020",
"f c #646464",
"E c #6c4824",
"c c #707070",
"A c #744c28",
"j c #7c7c7c",
"D c #80502c",
"x c #885830",
"b c #8c8c8c",
"H c #905c34",
". c #980088",
"a c #989898",
"o c #9c6038",
"w c #a0643c",
"K c #a86840",
"d c #a8a8a8",
"C c #b47044",
"# c #b4b4b4",
"z c #bc7848",
"m c #c0c0c0",
"G c #c87c4c",
"F c #d08050",
"e c #d0d0d0",
"v c #dc8854",
"l c #dcdcdc",
"B c #e88c58",
"s c #f0945c",
"L c #fc9c60",
"y c #fca470",
"M c #fcb080",
"r c #fcb890",
"J c #fcfcfc",
"................................................................",
"................................................................",
"................................................................",
"................................................................",
"................................................................",
"................................................................",
"................................................................",
"................................................................",
"................................................................",
"................................................................",
"................................................................",
"................................................................",
"................................................................",
"................................................................",
"................................................................",
"................................................................",
".............................#aaabbc............................",
"............................debfggghg...........................",
"............................dbfgggghig..........................",
"............................jjfgbkghii..........................",
"..........................allmdjkkgnnn..........................",
".............................opqjccghnn.........................",
"............................rrsoqgcfghii........................",
".............................rrsoktqu...........................",
".............................vrskwxqu...........................",
".............................yykzwxqu...........................",
"..............................ksAAkkkk..........................",
"..............................kkkkkkkk..........................",
".............................nfekAAAtu..........................",
".............................nefBBBBotu.........................",
"............................nvkBBvCAtDu.........................",
"............................nzBBBvoottu.........................",
"............................nEBvBvCoAtu.........................",
"............................znzwBBFoAtu.........................",
".............................nEGHBFCott.........................",
".............................znnACFFoIt.........................",
".............................HEnkHFooIt.........................",
"..............................JkCBvCotk.........................",
"..............................dkCBFoAk..........................",
".............................GBCKBvCAku.........................",
".............................CBCKFvoutu.........................",
"............................GBBLMoCqttu.........................",
"............................LBBMyywwttu.........................",
"............................GCCHyyGDttu.........................",
".............................LyvssDkkk..........................",
"............................vLyyzwAAANu.........................",
"............................LyysvzoINIu.........................",
"...........................ByyyyvCCINIu.........................",
"...........................vyszCoIqNqIu.........................",
"..........................KysHHAqANNquu.........................",
"..........................KsyyBzCKEuNq..........................",
"...........................zzBBzszEukuu.........................",
"............................KxxxsEukkkku........................",
".............................xEEEukkkkkkkk......................",
"...............................kukkkkkkkkkk.....................",
".................................OPkkkQkkkR.....................",
".................................SPPkRPPkR......................",
"..................................SPPTUPk.......................",
"..................................SVWUUkR.......................",
"...................................PTUUR........................",
"..................................SPVRk.........................",
"................................SSXPkPRk........................",
"..............................SSpSSVVVPk........................",
"..............................RRRRkkkkkk........................"};
