/* XPM */
static char *dummy[]={
"64 64 48 1",
"k c #000000",
"P c #000040",
"S c #00004c",
"Q c #000064",
"M c #000070",
"O c #00007c",
"p c #0000a8",
"R c #0000b0",
"T c #0000bc",
"N c #202020",
"n c #2c2c2c",
"u c #382c14",
"i c #383838",
"q c #483818",
"h c #484848",
"t c #543c1c",
"g c #545454",
"I c #5c4020",
"f c #646464",
"F c #6c4824",
"c c #707070",
"A c #744c28",
"j c #7c7c7c",
"D c #80502c",
"x c #885830",
"b c #8c8c8c",
"G c #905c34",
". c #980088",
"a c #989898",
"o c #9c6038",
"w c #a0643c",
"L c #a86840",
"d c #a8a8a8",
"C c #b47044",
"# c #b4b4b4",
"z c #bc7848",
"m c #c0c0c0",
"E c #c87c4c",
"H c #d08050",
"e c #d0d0d0",
"v c #dc8854",
"l c #dcdcdc",
"B c #e88c58",
"s c #f0945c",
"y c #fca470",
"K c #fcb080",
"r c #fcb890",
"J c #fcfcfc",
"................................................................",
"................................................................",
"................................................................",
"................................................................",
"................................................................",
"................................................................",
"................................................................",
"................................................................",
"................................................................",
"................................................................",
"................................................................",
"................................................................",
"................................................................",
"................................................................",
"................................................................",
"................................................................",
"..............................#aaabbc...........................",
".............................debfggghg..........................",
".............................dbfgggghig.........................",
".............................jjfgbkghii.........................",
"...........................allmdjkkgnnn.........................",
"..............................opqjccghnn........................",
".............................rrsoqgcfghii.......................",
"..............................rrsoktqu..........................",
"..............................vrskwxqu..........................",
"..............................yykzwxqu..........................",
"...............................ksAAkkkk.........................",
"...............................kkkkkkkk.........................",
"..............................nfekAAAtu.........................",
"..............................nefBBBBotu........................",
".............................nvkBBvCAtDu........................",
".............................nzBBEvoottu........................",
".............................nFBvwvCoAtu........................",
".............................znzwzvCoAtu........................",
"..............................nFEGvHCot.........................",
"..............................znnACCHoI.........................",
"..............................GFnktAooI.........................",
"...............................JkCvvCot.........................",
"...............................dkCvCoAk.........................",
"..............................EvBCvCoutu........................",
"..............................vvBCvoAutu........................",
"..............................vKKoqqqttu........................",
"..............................vKyywwtttu........................",
"..............................tGyyEDtttu........................",
"..............................CvssDkkkk.........................",
"..............................CzwIuuttu.........................",
"...............................svzowAIu.........................",
"...............................svvvzAIu.........................",
"...............................svzGICIu.........................",
"...............................CvzLxtu..........................",
"................................CvzwAu..........................",
"...............................szGAtuu..........................",
"...............................svvvzAAu.........................",
"...............................CvvvoAAu.........................",
"................................zzoottu.........................",
"................................MMNNNk..........................",
"................................OpPPNk..........................",
"................................OpQPNk..........................",
"................................RpQSkk..........................",
".................................pNkS...........................",
"................................OQQNk...........................",
"..............................OOTOQPNk..........................",
"............................OOpOOQQQPk..........................",
"............................NNNNkkkkkk.........................."};
