/* XPM */
static char *dummy[]={
"64 64 49 1",
"k c #000000",
"P c #000040",
"T c #00004c",
"S c #000064",
"R c #00007c",
"o c #0000a8",
"Q c #0000b0",
"U c #0000bc",
"O c #202020",
"N c #28200c",
"n c #2c2c2c",
"w c #382c14",
"i c #383838",
"J c #403018",
"u c #483818",
"h c #484848",
"v c #543c1c",
"g c #545454",
"F c #5c4020",
"f c #646464",
"M c #6c4824",
"c c #707070",
"B c #744c28",
"j c #7c7c7c",
"p c #80502c",
"y c #885830",
"b c #8c8c8c",
"L c #905c34",
". c #980088",
"a c #989898",
"t c #9c6038",
"x c #a0643c",
"H c #a86840",
"d c #a8a8a8",
"E c #b47044",
"# c #b4b4b4",
"A c #bc7848",
"m c #c0c0c0",
"q c #c87c4c",
"G c #d08050",
"e c #d0d0d0",
"D c #dc8854",
"l c #dcdcdc",
"C c #e88c58",
"s c #f0945c",
"K c #fc9c60",
"z c #fca470",
"I c #fcb080",
"r c #fcb890",
"................................................................",
"................................................................",
"................................................................",
"................................................................",
"................................................................",
"................................................................",
"................................................................",
"................................................................",
"................................................................",
"................................................................",
"................................................................",
"................................................................",
"................................................................",
"................................................................",
"................................................................",
"................................................................",
".............................#aaabbc............................",
"............................debfgghhg...........................",
"............................dbfggghhig..........................",
"............................jjf#kghhii..........................",
"..........................llmajkkgnnnn..........................",
".............................opjjcghnnn.........................",
"............................qrstujcghiii........................",
".............................rsskkvuw...........................",
".............................rsskxyuw...........................",
".............................zzkAxyuw...........................",
"..............................ksBBkkkk..........................",
"..............................kkkkkkkk..........................",
".............................nfdkBBBvw..........................",
".............................njkzzzCtvw.........................",
"............................nhkzzDEtvpw.........................",
"............................phCxzssDAvFF........................",
"............................ChCxssssttpFF.......................",
"............................CpnssGGAHtpFF.......................",
".............................zxssGAtppvpFF......................",
".............................xsCGxxtFvvtFF......................",
"...........................DzAIsqxpJpvvppF......................",
"........................IIAKssGKKpkkkkkApF......................",
".......................HssxKKKKKpkkkkkkApF......................",
".......................HssEAAApppELpMvvwpF......................",
"........................HAApppKKDDEtpMvwF.......................",
"............................DIDKKDEtpMvwx.......................",
"............................DKqKKDEtpMvw........................",
"............................KKEKKyBvNNNw........................",
"...........................AsxxxFFBBvvvv........................",
"...........................AssHzzDExxvww........................",
"..........................AAssAzzDDxxBBw........................",
"..........................AsssGLzzDDxBBvw.......................",
"..........................AsGGAAzzDDxxBvw.......................",
".........................AsGAHyvFzzzDDxvv.......................",
".........................sssGAxBwzzAExpxvw......................",
".........................sAssqwwwwzAHpDxwvw.....................",
"........................AzzpAABBw.zzDDAwAFww....................",
"........................AzzDtBBw...zAAAAMvkk....................",
"........................BAAttvvw....HLBBvwkkk...................",
".........................ooOOOk......HBvOOkkk...................",
".........................ooPPOk........OOPkkkk..................",
"........................QoRSPO.........RPkPOkkkk................",
"........................QoSTkk..........oSTkTOOkk...............",
"........................QoOkT.............TTTSPOk...............",
"........................RSSOk..............RSTSPk...............",
"......................RRURSPOk............RRUUSk................",
"....................RRoRRSSSPk..........RRoRRSPk................",
"....................OOOOkkkkkk..........OOOOkkk................."};
