/* XPM */
static char *dummy[]={
"64 64 49 1",
"m c #000000",
"P c #000040",
"T c #00004c",
"S c #000064",
"R c #00007c",
"p c #0000a8",
"Q c #0000b0",
"U c #0000bc",
"O c #202020",
"n c #2c2c2c",
"x c #382c14",
"i c #383838",
"K c #403018",
"w c #483818",
"h c #484848",
"E c #543c1c",
"g c #545454",
"H c #5c4020",
"f c #646464",
"N c #6c4824",
"c c #707070",
"D c #744c28",
"j c #7c7c7c",
"u c #80502c",
"A c #885830",
"b c #8c8c8c",
"I c #905c34",
". c #980088",
"a c #989898",
"o c #9c6038",
"B c #a0643c",
"J c #a86840",
"d c #a8a8a8",
"v c #b47044",
"# c #b4b4b4",
"G c #bc7848",
"l c #c0c0c0",
"t c #c87c4c",
"q c #d08050",
"e c #d0d0d0",
"y c #dc8854",
"k c #dcdcdc",
"F c #e88c58",
"C c #f0945c",
"z c #fc9c60",
"r c #fca470",
"M c #fcb080",
"s c #fcb890",
"L c #fcfcfc",
"................................................................",
"................................................................",
"................................................................",
"................................................................",
"................................................................",
"................................................................",
"................................................................",
"................................................................",
"................................................................",
"................................................................",
"................................................................",
"................................................................",
"................................................................",
"................................................................",
"................................................................",
"................................................................",
".............................#aaabbc............................",
"............................debfggghg...........................",
"............................dbfgggghig..........................",
"............................jjfghjihii..........................",
"..........................akkldjjminnn..........................",
".............................oopijcghnn.........................",
"............................qrstuijjghii........................",
".............................sssvmmwx...........................",
".............................yzsvmAwx...........................",
".............................rrumBAwx...........................",
"..............................mCtimmmm..........................",
"..............................mmmmmmmm..........................",
".............................nfdfDDDEx..........................",
".............................njfFFFFoEx.........................",
"............................nnmFFyvoEux.........................",
"............................unFFtyyyGEH.........................",
"............................FnFyByyGoooH........................",
"............................FunBGyyGyooH........................",
".............................FnnIuqyGuyoH.......................",
"............................yGFnnuuoHoyyHH......................",
"..........................yyJGFgmEDKuuoooH......................",
".........................yyyJDLfmmmmovyyoH......................",
".......................MMDDBDDdfmmmmDvyyoH......................",
".......................MoooDDtzqvIIuxExyoH......................",
".......................GGoo..yzqvJIutMowH.......................",
"........................GG..yMMzvJIuMrrBB.......................",
"............................yzqtvJIuIrruu.......................",
"............................IIIuuuIuvvuum.......................",
"............................CMrrvvNNKKxx........................",
"...........................GCMrrCvvNExxx........................",
"...........................rMrMCyGoHKxKx........................",
"..........................GMMrMIGDHHxwKxx.......................",
"..........................rMryGCHIHwxEKxx.......................",
".........................GMFGJAEHwKxHHxKx.......................",
".........................MMMFGBDwKxGHwuHKx......................",
".........................rGMMtwwKxGGJuuEKKx.....................",
"........................GrruGGDDx..GAGGwHHKx....................",
"........................GrryoDDx...JGGGuNEmm....................",
"........................DGGooEEx....JIDDExmmm...................",
".........................ppOOOm......JDEOOmmm...................",
".........................ppPPOm........OOPmmmm..................",
"........................QpRSPO.........RPmPOmmmm................",
"........................QpSTmm..........pSTmTOOmm...............",
"........................QpOmT.............TTTSPOm...............",
"........................RSSOm..............RSTSPm...............",
"......................RRURSPOm............RRUUSm................",
"....................RRpRRSSSPm..........RRpRRSPm................",
"....................OOOOmmmmmm..........OOOOmmm................."};
