/* XPM */
static char *dummy[]={
"64 64 48 1",
"u c #000000",
"L c #000040",
"T c #00004c",
"S c #000058",
"Q c #000064",
"N c #000070",
"M c #000088",
"R c #000098",
"P c #0000a4",
"m c #0000a8",
"O c #0000c8",
"C c #202020",
"h c #2c2c2c",
"D c #382c14",
"g c #383838",
"E c #403018",
"l c #483818",
"e c #484848",
"t c #543c1c",
"d c #545454",
"K c #5c4020",
"c c #646464",
"s c #6c4824",
"b c #707070",
"o c #744c28",
"a c #7c7c7c",
"r c #80502c",
"n c #885830",
"k c #8c8c8c",
"y c #905c34",
". c #980088",
"# c #989898",
"p c #9c6038",
"J c #a0643c",
"x c #a86840",
"j c #a8a8a8",
"B c #b47044",
"i c #b4b4b4",
"H c #bc7848",
"I c #c87c4c",
"q c #d08050",
"f c #d0d0d0",
"w c #dc8854",
"G c #e88c58",
"v c #f0945c",
"F c #fc9c60",
"A c #fca470",
"z c #fcb890",
"................................................................",
"................................................................",
"................................................................",
"................................................................",
"................................................................",
"................................................................",
"................................................................",
"................................................................",
"................................................................",
"................................................................",
"................................................................",
"................................................................",
"................................................................",
"................................................................",
"................................................................",
"................................................................",
"............................##abcde.............................",
"...........................#fbceeghg............................",
"..........................#abcdeeghh............................",
"..........................#abddeeghh............................",
"..........................#abdeabeghhh..........................",
".........................fijkbalmno.............................",
"........................fikkadlpqqqn............................",
"...........................rstuvwqx.............................",
"...........................qqqevvys.............................",
"...........................zAAwevwB.............................",
"..........................gghhnxnu..............................",
"..........................gghhCCuu..............................",
"..........................Deehhudeh.............................",
".........................xcEFFFoukh.............................",
"........................GcEFAGGGotuo............................",
".......................GwEGAFGHIpouo............................",
".......................GqEGAFvHHsotE............................",
"......................GqssGqvvqqqrou............................",
"......................GqsJGHvvHGyrEu............................",
".....................BqJsJHvHvGyBptu............................",
".....................BJssJHJpGGpsx..............................",
"......................JssguuExIxBqJ.............................",
"......................JJsguuuExxHHJJr...........................",
".......................JBHxnssEsxxxxrF..........................",
".......................BBwGFFHJtEssroIB.........................",
"........................BwFFqHJrstEEyyy.........................",
"........................BwFFHHJrstD..rr.........................",
"........................yyyyrEEKKtD.............................",
".........................HHHHnnEEDDK............................",
".........................FFFGHyoKtDD............................",
"........................IFFFGyyotKDDK...........................",
"........................IFFGIyootoKDD...........................",
".......................IGFGIBootDyoKDK..........................",
".......................IxFIByottBJoKDD..........................",
"......................IFFxBytotlxBnnKDK.........................",
".....................GFxArxotDlBIBxoKDD.........................",
"....................yIGGxxDtDl.wBxrttDD.........................",
"....................LyyIrDoDDl.wBBHxrotD........................",
"....................MMyyyotDD...yyyoollD........................",
"...................NOMMuuDDD.....NCCCuu.........................",
"..................NOPQLuuD.......NOMLuu.........................",
"..................NNPLuuu.........OORLu.........................",
"................NOOSPLuu..........LRMLuu........................",
"...............NOOCLuu.............TLCuC........................",
"...............NNRLuu..............ONuuu........................",
"................NMuuu.............NORuuuuu......................",
"................LNLuuuu...........NOMLuuuuuu....................",
".................LLLLuuu..........NNNLuuuuuu...................."};
