/* XPM */
static char *dummy[]={
"64 64 46 1",
"t c #000000",
"N c #000040",
"Q c #00004c",
"O c #000070",
"R c #000088",
"M c #000098",
"m c #0000a8",
"P c #0000c8",
"A c #202020",
"h c #2c2c2c",
"B c #382c14",
"g c #383838",
"J c #403018",
"l c #483818",
"f c #484848",
"s c #543c1c",
"d c #545454",
"K c #5c4020",
"c c #646464",
"r c #6c4824",
"b c #707070",
"E c #744c28",
"a c #7c7c7c",
"q c #80502c",
"n c #885830",
"k c #8c8c8c",
"v c #905c34",
". c #980088",
"# c #989898",
"o c #9c6038",
"I c #a0643c",
"z c #a86840",
"j c #a8a8a8",
"F c #b47044",
"i c #b4b4b4",
"G c #bc7848",
"H c #c87c4c",
"p c #d08050",
"e c #d0d0d0",
"y c #dc8854",
"D c #e88c58",
"u c #f0945c",
"C c #fc9c60",
"x c #fca470",
"L c #fcb080",
"w c #fcb890",
"................................................................",
"................................................................",
"................................................................",
"................................................................",
"................................................................",
"................................................................",
"................................................................",
"................................................................",
"................................................................",
"................................................................",
"................................................................",
"................................................................",
"................................................................",
"................................................................",
"................................................................",
"................................................................",
"............................##abcdd.............................",
"...........................#ebcffghd............................",
"..........................#abcdffghh............................",
"..........................#abddffghh............................",
"..........................#abddfabfghh..........................",
".........................#ijkabalmn.............................",
"........................#ikkabdloppp............................",
"...........................qrstoupp.............................",
"...........................pppptupv.............................",
"...........................wxxyztxp.............................",
"..........................gghhnznt..............................",
"..........................gghhAAtt..............................",
"..........................Bhhhhtafh.............................",
".........................zBpCCChtah.............................",
".........................BpCxppDhttE............................",
".........................FDxCpGHottE............................",
".........................FDxCpIIrEtJ............................",
".........................FDCDpIroqtt............................",
".........................FDCDpIroqJt............................",
"..........................DCCDGrKqst............................",
"..........................DCHIsBBBs.............................",
"..........................DCCDoKta..............................",
"..........................tDCDIKtd..............................",
".........................FyDCFHqsss.............................",
".........................FyDHCGFsss.............................",
".........................FuFDpqoCGs.............................",
".........................FuFoqIxHCs.............................",
".........................FuFoqHwwHsE............................",
"..........................opqrruwyJs............................",
".........................pFLGGKrssJs............................",
".........................pFDxDFvrrsJE...........................",
".........................pFFDuFFvnrJs...........................",
"..........................FFDLuuFnEsJ...........................",
"..........................GoqnzuFFErJ...........................",
"..........................oDLLuuGEsJJ...........................",
"..........................oMNuuGvrJJ............................",
".........................oMONquvrJJ.............................",
".........................PONttsBB...............................",
"........................PMNttttl................................",
"......................PPOMOttttt................................",
"......................OOMOttNNtt................................",
"......................QNMMOtNNt.................................",
".......................ttNNQtNt.................................",
"........................ttQQtt..................................",
"..........................ttttt.................................",
".........................OPMttttt...............................",
".........................OPRNtttttt.............................",
".........................OOONtttttt............................."};
