/* XPM */
static char * ccc_xpm[] = {
"64 64 372 2",
"  	c #491D13",
". 	c #3C1911",
"+ 	c #401A12",
"@ 	c #441B12",
"# 	c #65281A",
"$ 	c #7A311F",
"% 	c #923926",
"& 	c #622719",
"* 	c #612619",
"= 	c #5D2417",
"- 	c #5E2518",
"; 	c #5F2518",
"> 	c #64271A",
", 	c #34120B",
"' 	c #290D07",
") 	c #1C0805",
"! 	c #170503",
"~ 	c #260C06",
"{ 	c #35130B",
"] 	c #3E1911",
"^ 	c #481D13",
"/ 	c #3F180F",
"( 	c #220B06",
"_ 	c #451B12",
": 	c #210A05",
"< 	c #030100",
"[ 	c #000000",
"} 	c #0C0201",
"| 	c #200A06",
"1 	c #31120B",
"2 	c #471C12",
"3 	c #230A05",
"4 	c #090201",
"5 	c #36160E",
"6 	c #30120B",
"7 	c #220804",
"8 	c #2A0C05",
"9 	c #4E1D11",
"0 	c #6D2B1B",
"a 	c #722D1C",
"b 	c #732E1D",
"c 	c #752F1D",
"d 	c #8F3725",
"e 	c #521C11",
"f 	c #1B0503",
"g 	c #823221",
"h 	c #79301F",
"i 	c #903825",
"j 	c #8B3624",
"k 	c #913926",
"l 	c #772F1E",
"m 	c #8F3825",
"n 	c #1A0603",
"o 	c #030000",
"p 	c #3F160B",
"q 	c #662818",
"r 	c #652517",
"s 	c #5C2115",
"t 	c #6E291A",
"u 	c #4D1A0F",
"v 	c #1A0502",
"w 	c #762D1D",
"x 	c #833221",
"y 	c #31130C",
"z 	c #532014",
"A 	c #77301E",
"B 	c #722B1C",
"C 	c #511C11",
"D 	c #893523",
"E 	c #8E3725",
"F 	c #34150E",
"G 	c #36140C",
"H 	c #4A1C11",
"I 	c #4B1C11",
"J 	c #552014",
"K 	c #78301E",
"L 	c #702C1C",
"M 	c #5A2214",
"N 	c #632718",
"O 	c #813221",
"P 	c #451B11",
"Q 	c #3A170F",
"R 	c #64281A",
"S 	c #0A0201",
"T 	c #5B2315",
"U 	c #2D0D06",
"V 	c #050100",
"W 	c #0E0201",
"X 	c #521E12",
"Y 	c #742E1D",
"Z 	c #6A2719",
"` 	c #020000",
" .	c #060101",
"..	c #190503",
"+.	c #652718",
"@.	c #552013",
"#.	c #3E140B",
"$.	c #843322",
"%.	c #130402",
"&.	c #070101",
"*.	c #1E0703",
"=.	c #361108",
"-.	c #0B0201",
";.	c #4E1C10",
">.	c #210804",
",.	c #8A3523",
"'.	c #100402",
").	c #5C2417",
"!.	c #491A0F",
"~.	c #6B2A1A",
"{.	c #321007",
"].	c #1B0602",
"^.	c #45190E",
"/.	c #40160C",
"(.	c #481A0F",
"_.	c #682919",
":.	c #220704",
"<.	c #220A05",
"[.	c #270C07",
"}.	c #3F160D",
"|.	c #632719",
"1.	c #080101",
"2.	c #41170C",
"3.	c #1C0603",
"4.	c #6F2C1B",
"5.	c #461C12",
"6.	c #411911",
"7.	c #5E2417",
"8.	c #572113",
"9.	c #1F0703",
"0.	c #170402",
"a.	c #5E2416",
"b.	c #612517",
"c.	c #310F07",
"d.	c #712D1C",
"e.	c #803120",
"f.	c #612618",
"g.	c #130403",
"h.	c #471A0F",
"i.	c #2C0D07",
"j.	c #4A1B0F",
"k.	c #280B05",
"l.	c #47190E",
"m.	c #5F2516",
"n.	c #531D11",
"o.	c #34130B",
"p.	c #2B0D06",
"q.	c #622619",
"r.	c #300F08",
"s.	c #6C2B1A",
"t.	c #4D1C10",
"u.	c #3C1810",
"v.	c #3E180F",
"w.	c #471A10",
"x.	c #5D2315",
"y.	c #260A04",
"z.	c #290C06",
"A.	c #1A0503",
"B.	c #2A0C06",
"C.	c #501E13",
"D.	c #40180F",
"E.	c #120402",
"F.	c #45190F",
"G.	c #260A05",
"H.	c #5A2316",
"I.	c #250A05",
"J.	c #4F1D11",
"K.	c #592214",
"L.	c #491B10",
"M.	c #4A1B10",
"N.	c #572115",
"O.	c #1F0804",
"P.	c #542014",
"Q.	c #351209",
"R.	c #592216",
"S.	c #2F0E07",
"T.	c #2D0E07",
"U.	c #0F0201",
"V.	c #39170F",
"W.	c #1C0704",
"X.	c #30110A",
"Y.	c #481C13",
"Z.	c #31110A",
"`.	c #010000",
" +	c #0E0302",
".+	c #200905",
"++	c #37140C",
"@+	c #34130C",
"#+	c #2F120B",
"$+	c #3A160E",
"%+	c #3D170F",
"&+	c #431A11",
"*+	c #3B1810",
"=+	c #2F120C",
"-+	c #32120B",
";+	c #431B12",
">+	c #461B12",
",+	c #33120B",
"'+	c #050101",
")+	c #270D08",
"!+	c #0F0302",
"~+	c #110302",
"{+	c #34140D",
"]+	c #37170F",
"^+	c #2C100A",
"/+	c #140402",
"(+	c #401910",
"_+	c #1B0804",
":+	c #100302",
"<+	c #1B0704",
"[+	c #1E0905",
"}+	c #160503",
"|+	c #2D0F08",
"1+	c #230C07",
"2+	c #3D170E",
"3+	c #0C0302",
"4+	c #411910",
"5+	c #040100",
"6+	c #421910",
"7+	c #501C11",
"8+	c #310E07",
"9+	c #6F291A",
"0+	c #7E3020",
"a+	c #340F08",
"b+	c #2D0E06",
"c+	c #250A04",
"d+	c #110301",
"e+	c #612316",
"f+	c #2A100A",
"g+	c #190502",
"h+	c #45170D",
"i+	c #371108",
"j+	c #863322",
"k+	c #270A05",
"l+	c #79311F",
"m+	c #501D11",
"n+	c #351008",
"o+	c #8A3624",
"p+	c #8C3624",
"q+	c #3D1911",
"r+	c #752F1E",
"s+	c #6E2C1B",
"t+	c #762F1E",
"u+	c #572215",
"v+	c #5D2416",
"w+	c #622617",
"x+	c #642718",
"y+	c #6A2A1A",
"z+	c #873423",
"A+	c #100301",
"B+	c #180502",
"C+	c #501E11",
"D+	c #3D150B",
"E+	c #230904",
"F+	c #5B2317",
"G+	c #0D0201",
"H+	c #160402",
"I+	c #521F13",
"J+	c #702D1C",
"K+	c #150503",
"L+	c #36150E",
"M+	c #391710",
"N+	c #441A11",
"O+	c #37150D",
"P+	c #421A10",
"Q+	c #3A1810",
"R+	c #3E170F",
"S+	c #30120C",
"T+	c #2D110B",
"U+	c #1F0A05",
"V+	c #38170F",
"W+	c #37160F",
"X+	c #3A160D",
"Y+	c #421A11",
"Z+	c #240C07",
"`+	c #391810",
" @	c #31120C",
".@	c #38150D",
"+@	c #33150D",
"@@	c #250B06",
"#@	c #080201",
"$@	c #481C12",
"%@	c #3B160E",
"&@	c #0F0402",
"*@	c #240B06",
"=@	c #301009",
"-@	c #0D0301",
";@	c #3C160E",
">@	c #1B0603",
",@	c #0E0301",
"'@	c #1A0604",
")@	c #33130D",
"!@	c #140302",
"~@	c #561E13",
"{@	c #782D1D",
"]@	c #300D07",
"^@	c #1F0603",
"/@	c #43170D",
"(@	c #6F2C1C",
"_@	c #4A190E",
":@	c #6F291B",
"<@	c #6C281A",
"[@	c #4C1A0F",
"}@	c #602516",
"|@	c #3F160C",
"1@	c #3A120A",
"2@	c #883523",
"3@	c #2B0B05",
"4@	c #662618",
"5@	c #4E1D10",
"6@	c #3A130A",
"7@	c #662518",
"8@	c #541F12",
"9@	c #7F3120",
"0@	c #200803",
"a@	c #6A291A",
"b@	c #562013",
"c@	c #46190E",
"d@	c #180402",
"e@	c #582216",
"f@	c #39160F",
"g@	c #300F07",
"h@	c #331008",
"i@	c #1D0603",
"j@	c #5A2215",
"k@	c #632617",
"l@	c #552115",
"m@	c #120301",
"n@	c #2E0E06",
"o@	c #280A05",
"p@	c #2E0E07",
"q@	c #42170D",
"r@	c #572114",
"s@	c #3B140A",
"t@	c #1E0804",
"u@	c #2C0D06",
"v@	c #320E07",
"w@	c #2B0F09",
"x@	c #602618",
"y@	c #5C2315",
"z@	c #3B120A",
"A@	c #33130C",
"B@	c #4E1D12",
"C@	c #4B1B0F",
"D@	c #2B0C05",
"E@	c #531F12",
"F@	c #150402",
"G@	c #46190F",
"H@	c #4A1B11",
"I@	c #120302",
"J@	c #672819",
"K@	c #39150D",
"L@	c #43180E",
"M@	c #511E12",
"N@	c #782E1E",
"O@	c #4C1C11",
"P@	c #39130B",
"Q@	c #853322",
"R@	c #562115",
"S@	c #3E160C",
"T@	c #37130A",
"U@	c #3C170F",
"V@	c #3C1811",
"W@	c #280D07",
"X@	c #110402",
"Y@	c #3F1912",
"Z@	c #32110A",
"`@	c #220B07",
" #	c #3E1810",
".#	c #3F1A12",
"+#	c #431A12",
"@#	c #441B11",
"    . .     +   @ .     @     + @     +     @ .   + @     +     +     . @     @     .   @     + @     + @   @       @     +     ",
"  # $ $ $ % % % % % % % % % %     # $ $ $ % % % % % % % % % % @   $ $ % % % % % % % % % % % %     $ $ $ $ $ $ $ % % % % % % % @ ",
"@ # $ $ $ $ $ $ % $ $ $ % % % @   # $ $ $ $ $ $ % $ $ $ % % %     $ $ $ $ $ $ $ % % $ $ $ % % @   $ $ $ $ $ $ $ $ % $ $ % % %   ",
"  # # $ $ $ $ $ $ $ $ $ $ % %   . # $ $ $ $ $ $ $ % $ $ $ % %   + # $ $ $ $ $ $ % $ $ $ $ $ %     # $ $ $ $ $ $ $ $ $ $ $ % %   ",
"+ # # $ $ $ $ $ $ $ $ $ $ $ %   @ # # $ $ $ $ $ $ $ $ $ $ $ % .   # $ $ $ $ $ $ $ $ $ $ $ $ % +   # $ $ $ $ $ $ $ $ $ $ $ $ % . ",
"  # # # # # # # $ $ $ $ $ $ $ .   # # # # # # # $ $ $ $ $ $ %   . # # # # # # $ $ $ $ $ $ $ $   + # # # $ $ $ $ $ $ $ $ $ $ %   ",
"  # # # # # # # & * & = - ; &   + > * # # # # # # # # # # # # +   # # # # # # # # # # # $ $ $     # # # # # # # # $ $ $ $ $ %   ",
"+ @     +     @ , ' ) ! ) ~ { ] ^ / ( _   +   @     . .       @ +     @ +     @ @   . +     . + @   .   +   @ @     . .     + @ ",
".       @ .   . : < [ [ } | 1 2 2 3 4 5       @ @ .       + @     @ .     + @   @       @     + .     @ @     . @ .         @ . ",
"% % % % % % %   6 7 8 9 0 a b c d e f g % % % ^ 2 h $ $ % % % % % i j k % % % ^ 2 & l h $ $ $ m k k % % % % %     # $ $ $ $ $ % ",
"$ $ $ $ $ % %   n o } p a q r s t u v w i m x y { z A $ $ $ $ $ l B C w D k E F G H I J K $ L M N O K b E % k P Q R # $ $ $ $ $ ",
"$ $ $ $ $ $ %   S [ [ [ T U } o V W } X Y Z f `  ...+.h $ $ $ K @.} o o #.D $.%.[ &.*.=.0 b } } V -.;.>.M l ,.'.-.).# $ $ $ $ $ ",
"$ $ $ $ $ % %   3 &.!.~.{.o ].^./.[ S (._.S :.<.[.&.}.|.# $ $ ~.1.1.2.3.3.4.i 5.6.7.8.9.!.Y 9.0.a.L b.[ c.d.e.` ~ f.# $ $ $ $ $ ",
"# # $ $ $ $ $ @ g.} h.; i.< j.d.Y k.1.l.m.o n.o.3 3.p.q.|.& # I [ r.s.t.b.K i u.v.w.x.y.z.= A.B.- $ a 0.} C./.< D.# $ $ $ # # # ",
"# # # # # # #   E.&.F.; B.< G.H.* I.V J.K.[ o [ [ [ z.L.[ [ r.M.< r.; * |.> N.O.4 ` [ [ *.P.A.Q.R.R q.S.< T.U.4 V.# # # # # # # ",
".         . @ + W.` X.Y.Z.`. +.+++4 `.@+#+` E.@+$+%+&+*+=+++2 -+[ E./ ;+_ >+,+'+E.)+&+!+~+{+!+O.]+@ 2 )+[ -.`.^+&+.         + @ ",
"+ .     @       /+1.,+@ (+4 < '+ .[  .(+5. +4 _+3 :+<+P 2 2 @ *+&.` [+,+}+/ {+'+E.|+1+[ ! 2+3+<+(+    4+ .[ 5+6++ +   . .     + ",
". $ $ % % % % % 7+8+9+% k 0+a+&./+b+!.h $ ~.c+1.d+v e+E % % % Y.f+V [ o g+O E h+5+W v -.i+j+k+[.6.# $ l+m+[ n+,.% % % % % % %   ",
"  $ $ $ $ $ $ $ o+p+$ $ $ % i ^ q+r+$ $ $ $ b s+a x t+$ % % %   2 u+v+@.w+K $ t+x q x+y+z+k i 6.  # $ $ h s.b $ % $ $ $ % % % + ",
"  # $ $ $ $ $ $ % $ $ $ $ $ % +   # $ $ $ $ $ $ $ $ $ $ $ % % +   # > K h $ $ $ $ h h $ $ % %     # $ $ $ $ $ $ $ % $ $ $ % %   ",
"+ # $ $ $ $ $ $ $ $ $ $ $ $ %     # $ $ $ $ $ $ $ $ $ $ $ $ %   + # # $ $ $ $ $ $ $ $ $ $ $ % +   # # $ $ $ $ $ $ $ $ $ $ $ %   ",
"  # # # # # # $ $ $ $ $ $ $ $ . + # # # $ $ $ $ $ $ $ $ $ $ %   . # # # # # # # $ $ $ $ $ $ $   + # # # # # # # $ $ $ $ $ $ % . ",
". # # # # # # # # # # # $ $ $ .   # # # # # # # # $ $ $ $ $ % +   # # # # # # # # # # # # # #     # # # # # # # # # # # # # #   ",
"+     @   @     @     + +   .   @   .     + @     + .     +   @ + @     + @     @ .     +   . + @   .   + +     +     . @     @ ",
"  @ +   @     . @ .     +     .   @     +     @     @ @     @   +     . +     @ @   +     @     .     @     + . @ .     +   @   ",
"% % % % % % %   + # $ $ $ $ $ % % % % % % % %     # $ $ $ $ $ % % % % % % % % .   $ $ $ $ $ $ $ % % % % % % % +   $ $ $ % % % % ",
"$ % % % % % % .   # # # $ $ $ $ $ % $ $ % % % +   # # $ $ $ $ $ $ $ $ $ $ % %   + $ $ $ $ $ % % % % % % % % %     # $ $ $ $ $ $ ",
"$ $ $ $ % % % . !+A+..B+A+c+C+r+$ % $ $ $ $ %   @ # # $ $ $ $ $ $ $ $ $ $ $ %   @ # $ $ $ $ $ $ $ % $ $ $ % %   @ # $ $ $ $ $ $ ",
"$ $ $ $ $ $ %   }+&.1.V S D+L $ $ $ $ $ $ $ %   . # # $ $ $ $ $ $ $ $ $ $ % % @   # $ $ $ $ $ $ $ % $ $ $ $ % @   # # # # $ $ $ ",
"# # $ $ $ $ % + ! < [ [ E+F+# # # $ $ $ # # $ @   # $ $ $ # # # # # $ $ $ $ $   + # # # # # $ $ $ $ $ $ $ $ %   + # # # # # # # ",
"# # # # # # #    .G+H+I+; # # > > # # # # # #     |.|.# |.f.# # R R > & & # #     # # # # # # R |.& c J+t+$ $ ^ ^ > # # # # # # ",
".     + +   @ + K+< .+L+M+. N+O+y P+2 @ Q+R+/ ;+&+S+G 4+T+U+P ^ V+W+X+,+{ ]+  @ Y+N+P+Q+    + V+++Z.Z+W.Z.`+D. @.@+@;+  .     @ ",
"  . .     + +   5+[ [ [ @@2+ +` ` :+,+u.1.5+` #@$@4 S &.o `.%@] {+&@[ `.G+*@_ Y+=@-@`. +;@+ + >@[ `.'+,@'@)@`.5+`.5+>+    + @ + ",
". # % % % % % % f !@h+~@{@]@^@[+*@&./@(@W -._@o+E f &.:@<@5+[@2 *+Y }@|@1@d+g 2@f -.3@4@e+% % 2 v.~.5@/+6@@.[ A+7@D k % % % %   ",
"@ # $ $ % $ $ $ } A+8@Y 9@H+1@Z.6 /+0@a@S b@Y $ s+V /+q c@-.d@4+^ e@_.}@D+d+e+B o *.w+l % % k 6.f@q @.0.g@@.[ h@a $ $ % $ % %   ",
"  # # $ $ $ $ $ /+i@j@$ k@[ [ [ [ [ G.l@m@y+$ $ L 1./+b.n@o o@u.P p@g+V [ [ q@r@1.s@b $ $ % p+t@5+` [ [ u@@.[ s@Y $ $ % $ $ % + ",
"  # # $ $ $ $ # i@>.T $ ~.B+v@w@X+H.x@y@B+s.$ $ s.V h@u+c.1.z@>+A@S B@4.L ].C@a.o /.Y # $ $ e.< <+i.b.W D@E@[ 9 K $ $ $ $ $ %   ",
". # # # $ $ $ $ F@>.T $ K n@i@! o.G@h.H@I@s.$ $ J@o z.P.>.S s@*+K@S Q.L.L@[ r.I+V i@z H.M@$ N@`.}+O@P@[ k.v+o b@h # # $ $ $ $   ",
"  # # # # # # # 1.G+w.# # Q@n+` `.} p@w.I@R.# # R@` S@R@..} T@  *+P@1.I@G.>@M.).k.< < I@I h K *@`.< S S p@R.1.l@# # $ $ $ $ $ + ",
"+     @   @ +   ! 1+`+    @ >+f@U@U@&+v.)+>+@   V@W@v.]+@@@@u.  + Y.P 6.v.++q+Y.K@X@} .+u.    Y@U@Z@`@' Q ^ _ @ +     .     + @ ",
"  @   @ @     .  #`+    + + @     @ . ^ >++ @ @ @ `+^   u.P   . +     . .#2 @ @ +# #/ @#@ @     . Y+>+>+@   + . @ . @     + @   ",
"% % % % % % % +   # % % % % % % % % % % % % %   + $ $ $ % % % % % % % % % % %     $ $ $ $ $ $ % % % % % % % %     # $ $ $ % % % ",
"$ $ $ % % % %     # $ $ $ $ % % % % % $ % % %     # $ $ $ $ % % % % $ $ % % %   + $ $ $ $ $ $ $ $ % $ $ $ % %   + # $ $ $ $ % $ ",
"$ $ $ $ $ $ %   . # # $ $ $ $ $ $ $ $ $ $ % % . @ # $ $ $ $ $ $ $ $ $ $ $ % % .   # $ $ $ $ $ $ % $ $ $ $ $ % .   # # $ $ $ $ $ ",
"$ $ $ $ $ $ % @   # # # $ $ $ $ $ $ $ $ $ % %   . # $ $ $ $ $ $ # # $ $ $ % % @   # $ $ $ $ $ $ $ $ $ $ $ $ $   . # # $ $ $ $ $ ",
"$ $ $ # $ $ $ +   # # # # # # $ $ $ $ $ # # %     # # # # # $ # $ $ $ $ $ $ %   + # # # $ $ $ # # # # $ $ % %   + # # # $ $ $ $ ",
"# # # # # $ $   + # # # # # # # # # # # # # # + + # # # # # # # # # # # $ $ $ + + # # # # # # # # # $ $ $ $ $ +   # # # # # # # ",
"  @         @   @ .       . +     . +     . + @ @     +     + @     +     .       +     @ +     .   +   +     + @     + .   +   ",
"+ .   .   + +     . .   @ +     @ @     @ +     + +     . +   + +   .   @     @ @       @     + @ @     @ +     + +     . +   + ",
". $ $ $ % % % % % % % % % % % .   $ $ $ $ $ $ $ % % % % % % %     # % % % % % % % % % % % % %   + # $ $ $ % % % % % % % % % %   ",
"  # $ $ $ % % % $ $ $ $ % % %     $ $ $ $ $ $ $ $ $ $ % $ % % +   # $ $ % $ $ $ $ $ $ $ % % %     # $ $ # $ $ $ $ $ $ $ $ % %   ",
"  # $ $ $ $ $ $ $ $ $ $ $ % % + . # $ $ $ $ $ $ $ $ $ % $ $ %   + # # $ $ $ $ $ $ $ $ $ $ $ % +   # # # $ $ $ $ $ $ $ $ $ $ % + ",
"+ # # $ $ $ $ $ $ $ $ # $ $ %   @ # $ $ $ $ $ $ $ $ $ $ $ $ % . + # # $ $ $ $ # $ $ $ $ $ $ % + @ # # $ $ $ $ $ $ $ $ # $ $ %   ",
"  # # # # # # # $ $ # # $ $ %     # # $ $ $ $ $ $ # # $ $ $ $     # # # $ $ $ $ # $ $ $ $ $ %     # # # # $ $ $ $ $ # # $ $ $   ",
". # # # # # # # # # # # # $ $ .   # # # # # # # # # $ $ $ $ $     # # # # # # # # # # # # % %     # # # # # # # # # # # # # # + ",
"+     @   @ +     . .     @   + @     . +   @ @     .   @     @ + @     +     @ @   . +     . + @ @   . +     @   +   . @     @ ",
"  @     @     . @     @       .     . .     @     .     + + @       . .   + @     @     @     + .     @     +   @ .   @     @   ",
"% % % % % % %   + $ $ $ $ $ $ % % % % % % % % +   # $ $ $ % % % % % % % % % %   + # % % % % % % % % % % % % %     $ $ $ % % % % ",
"% % $ $ % % %     $ $ $ $ $ $ $ $ % $ $ $ % %   + # $ $ $ $ % $ $ $ $ % % % % .   # $ $ $ $ % % % % % $ % % % +   # $ $ $ $ % % ",
"$ $ $ $ $ % % .   # $ $ $ $ $ $ % $ $ $ $ $ %   @ # # $ $ $ $ $ $ $ $ $ $ $ % +   # # $ $ $ $ $ $ $ $ $ $ % %   @ # $ $ $ $ $ $ ",
"# # $ $ $ % %   . # $ $ $ $ $ $ $ $ $ $ $ $ $ @   # # $ $ $ $ $ $ $ $ $ $ $ %   @ # # # $ $ $ $ $ $ $ $ $ % %   . # $ $ $ $ $ $ ",
"$ $ $ $ $ $ % @ + # # # $ $ $ # # # # $ $ % % +   # # # $ $ $ $ $ $ $ # $ $ $   + # # # # # # $ $ $ $ $ # # % @   # # # # # $ # ",
"# # # # $ $ $     # # # # # # # # # $ $ $ $ $   + # # # # # # # # # # # # $ $     # # # # # # # # # # # # # #   + # # # # # # # ",
".     +   . @   @       . .     . .     .   +   @     +     +   . .   @       @   + +     +   .     + +     @ + @     + .     @ "};
