/* XPM */
static char *dummy[]={
"64 64 88 2",
".F c #0c00ff",
".G c #0d00ff",
".H c #0e00ff",
".K c #0f00ff",
".L c #1000ff",
".I c #1100ff",
".M c #1200ff",
".P c #1300ff",
".R c #1400ff",
".U c #1500ff",
".W c #1600ff",
".V c #1700ff",
".X c #1800ff",
"#v c #190048",
".2 c #1900ff",
"#u c #1a0048",
".Z c #1a00ff",
"#t c #1b0048",
".0 c #1b00ff",
"#s c #1c0048",
".1 c #1c00ff",
"#r c #1d0048",
".6 c #1d00ff",
"#q c #1e0048",
".4 c #1e00ff",
"#p c #1f0048",
".5 c #1f00ff",
"#o c #200048",
".8 c #2000ff",
"#n c #210048",
".7 c #2100ff",
"#m c #220048",
"#. c #2200ff",
"#l c #230048",
"#a c #2300ff",
"#k c #240048",
"#b c #2400ff",
"#j c #250048",
"#c c #2500ff",
"#i c #260048",
"#e c #2600ff",
"#g c #270048",
"#h c #280048",
"#f c #290048",
"#d c #2a0048",
"## c #2b0048",
".9 c #2c0048",
".3 c #2d0048",
".Y c #2e0048",
".T c #2f0048",
".S c #300048",
".Q c #310048",
".B c #320048",
".x c #330048",
".d c #340048",
".p c #350048",
".b c #360048",
"Qt c #370048",
".c c #380048",
".a c #390048",
".# c #3a0048",
".o c #3b0048",
".e c #3c0048",
".u c #3d0048",
".y c #3e0048",
".g c #3f0048",
".j c #400048",
".i c #410048",
".h c #420048",
".n c #430048",
".f c #440048",
".m c #450048",
".k c #460048",
".l c #470048",
".s c #480048",
".q c #490048",
".r c #4a0048",
".t c #4b0048",
".v c #4c0048",
".A c #4d0048",
".w c #4e0048",
".E c #4f0048",
".z c #500048",
".C c #510048",
".D c #520048",
".J c #530048",
".O c #540048",
".N c #550048",
"Qt.#.a.b.c.#.#.d.c.#.e.#.e.f.f.g.h.h.i.f.f.h.j.f.k.l.k.m.k.m.n.h.n.f.m.k.m.k.l.l.f.i.n.m.l.n.j.i.g.f.f.e.o.e.o.c.p.#.#.c.b.a.#Qt",
".c.a.p.pQt.#.b.c.c.o.o.#.j.f.n.j.n.h.f.l.k.n.f.k.q.r.l.l.l.k.m.f.m.l.k.l.s.l.r.q.k.f.n.k.q.k.i.i.j.n.f.j.#.o.o.a.a.b.#Qt.p.b.a.c",
"Qt.p.p.d.cQt.b.a.a.o.o.e.h.m.h.j.h.h.l.s.f.f.s.q.r.t.s.q.l.s.l.m.l.s.s.l.q.q.t.r.q.s.m.f.q.q.h.i.j.h.m.h.u.o.e.#.#QtQt.c.p.p.bQt",
".d.d.d.b.#.bQt.#.#.o.e.i.h.m.j.j.n.m.s.m.f.l.q.r.v.w.r.q.l.r.q.l.q.r.r.l.q.r.w.v.t.q.l.f.k.r.m.h.j.i.m.h.i.e.o.#.#.c.b.#.b.d.d.d",
".x.d.d.a.cQt.a.e.a.e.y.i.n.m.i.h.f.k.l.k.m.s.q.v.v.z.v.s.l.r.r.s.r.v.r.s.s.v.z.v.A.q.s.m.k.q.l.h.i.i.m.n.i.y.e.a.e.aQt.c.a.p.d.d",
".B.x.d.c.dQt.#.#.a.y.j.h.f.m.j.h.m.k.l.l.s.s.r.t.v.C.v.s.q.t.q.q.t.t.t.q.q.v.C.v.t.r.s.s.l.s.l.f.i.g.m.f.h.j.y.a.#.#Qt.d.a.p.x.B",
".x.B.b.b.d.a.e.c.c.e.u.y.h.h.j.h.i.j.h.f.k.f.k.s.t.C.w.q.t.v.q.t.A.v.A.t.q.w.D.v.s.k.m.k.f.n.n.j.j.g.h.h.y.u.e.a.a.e.a.d.b.b.x.x",
".x.b.b.x.b.o.cQt.c.o.e.o.j.g.o.g.g.e.y.h.n.j.i.k.v.C.w.s.t.v.q.t.w.v.A.t.s.E.z.q.f.i.j.n.h.j.y.g.u.#.y.g.e.e.o.a.a.a.e.b.xQt.b.x",
".BQt.d.xQt.#QtQt.F.G.G.G.G.G.H.H.H.H.G.G.H.H.H.I.C.J.A.s.v.v.s.q.v.v.A.v.s.A.A.l.G.H.H.H.H.H.G.G.G.H.H.H.G.G.G.K.y.#.#Qt.d.dQt.B",
".B.d.B.d.bQt.b.b.G.K.K.L.L.L.L.L.K.L.L.K.L.L.I.M.N.O.A.q.v.v.r.r.v.A.A.v.q.A.A.l.K.I.L.L.L.L.K.K.L.K.L.L.L.K.K.I.i.oQtQt.p.B.p.B",
".B.d.B.p.b.b.cQt.G.L.K.L.L.L.L.L.L.L.L.L.L.L.I.P.J.J.A.q.t.v.r.q.t.A.A.t.q.A.v.m.K.I.I.I.L.K.K.L.L.L.L.L.K.L.L.I.i.uQt.b.p.B.d.B",
".Q.Q.B.p.p.c.cQt.G.L.L.L.K.L.L.L.L.L.I.L.L.I.M.R.C.z.v.s.r.r.r.s.r.w.v.r.s.v.q.n.L.M.I.I.L.L.L.L.L.L.L.L.L.K.K.I.h.u.c.p.b.x.Q.Q",
".S.T.x.dQt.cQtQt.H.L.L.L.L.L.L.L.I.I.I.I.I.M.M.R.z.w.v.s.r.t.s.s.q.v.v.r.s.t.s.h.I.M.M.I.I.I.L.L.L.L.L.L.L.K.L.I.i.e.aQt.d.x.S.Q",
".S.S.x.d.c.c.cQt.H.L.L.L.L.L.L.I.I.I.I.M.M.M.M.R.E.v.r.l.q.q.m.s.q.s.r.q.s.q.m.i.L.M.M.M.I.I.I.L.L.L.I.L.L.L.L.M.h.u.a.c.d.x.S.Q",
".Q.S.x.p.a.a.a.a.H.L.L.L.I.L.I.M.M.M.M.M.M.M.M.R.w.t.t.k.m.m.f.s.r.l.k.m.l.t.f.j.K.M.M.M.M.M.M.M.M.I.I.I.L.L.L.M.f.y.a.a.p.x.Q.Q",
".S.S.xQt.a.a.aQt.H.L.L.L.I.L.M.P.P.P.P.P.M.M.P.U.t.s.r.k.n.f.k.q.t.q.k.n.k.r.i.y.I.P.M.M.M.P.P.M.M.M.M.I.L.L.L.I.h.y.a.aQt.x.S.Q",
".Q.Q.d.bQt.a.cQt.H.L.L.I.M.M.M.P.P.R.P.P.P.M.R.U.l.l.l.m.h.f.m.m.l.s.m.n.k.l.j.o.M.R.M.P.M.M.P.P.P.R.P.I.I.I.L.I.h.u.#Qt.b.d.Q.Q",
".S.Q.d.p.b.c.cQt.H.L.L.I.M.M.M.P.P.P.P.R.P.M.U.V.m.m.k.m.g.h.h.f.k.m.f.j.m.m.g.a.M.P.R.R.M.P.P.P.P.P.P.M.I.I.L.I.i.u.aQt.p.d.B.S",
".T.B.d.d.b.b.b.b.H.L.L.I.M.M.M.P.P.P.P.R.R.P.W.X.l.m.m.k.h.h.n.n.m.k.n.n.k.f.y.o.P.W.W.W.P.M.P.P.R.P.P.M.M.I.L.I.j.o.b.b.d.d.B.S",
".Y.B.d.x.p.b.p.b.H.L.L.I.M.P.P.M.P.P.R.R.U.W.V.Z.l.f.m.k.h.i.h.n.m.m.h.n.m.m.y.#.P.U.W.W.R.P.M.P.R.R.P.M.M.M.L.I.j.#.b.b.x.p.B.Y",
".Y.Q.d.x.d.p.x.x.K.I.I.I.M.P.P.M.M.M.P.R.R.V.X.0.l.n.n.m.h.j.j.i.n.n.i.h.f.n.y.#.R.V.X.V.W.P.M.M.M.P.R.P.M.I.L.M.u.c.b.d.d.d.Q.Y",
".S.B.d.x.x.d.x.S.K.I.M.M.P.P.M.M.M.R.R.W.X.Z.Z.1.m.n.j.h.j.y.g.j.h.h.g.j.h.j.u.a.P.X.2.X.X.W.U.P.P.M.P.P.M.M.M.P.#.c.p.d.x.d.B.S",
".S.B.d.d.x.d.Q.Y.K.I.M.M.P.P.M.P.R.W.V.V.X.2.Z.0.n.j.y.y.o.a.o.o.e.e.a.o.u.y.o.a.R.X.2.2.X.X.W.W.R.M.M.P.M.M.I.R.c.b.d.d.d.d.B.S",
".S.B.x.d.x.x.T.3.I.P.P.R.U.R.R.U.V.W.2.Z.0.0.Z.0.y.cQt.a.a.b.p.p.bQt.b.a.aQt.b.a.2.Z.1.Z.Z.Z.2.X.U.R.R.R.R.P.P.UQt.x.d.x.d.x.B.S",
".S.Q.x.B.B.x.S.x.c.a.e.e.c.a.o.o.u.j.j.g.y.g.j.u.X.X.2.X.V.X.V.W.R.U.2.2.X.X.X.1.h.f.g.y.g.i.j.u.e.e.cQt.o.e.#.#Qt.B.d.B.x.x.Q.S",
".S.Q.B.B.Q.B.x.x.d.pQtQt.b.bQt.c.#.e.u.e.#.o.o.b.X.1.4.5.0.Z.2.X.W.V.0.1.0.0.4.5.g.j.o.#.e.u.u.#.#.c.p.p.bQt.b.b.p.x.x.Q.B.B.Q.S",
".T.S.Q.Q.B.x.x.d.d.d.b.p.x.x.x.p.c.a.c.a.bQt.b.S.X.4.5.4.Z.X.X.X.V.X.0.Z.0.0.6.7.o.oQtQt.a.a.a.cQt.p.x.Q.p.p.d.d.d.x.x.B.B.Q.S.S",
".Y.T.S.S.B.B.B.x.x.d.x.p.B.Q.B.p.c.p.cQt.p.d.x.T.W.5.6.6.6.2.X.2.X.X.0.0.0.6.6.7.#.a.d.pQt.c.p.c.b.d.B.Q.d.x.d.x.x.B.x.B.Q.S.T.T",
".Y.T.Y.T.Q.Q.Q.x.d.B.B.x.Q.Q.x.p.p.p.b.b.p.x.Q.Y.1.4.0.0.0.0.Z.0.0.0.1.0.1.6.0.5.c.p.x.b.b.b.b.p.b.p.B.S.B.B.x.d.x.B.B.Q.T.T.T.Y",
".Y.Y.Y.T.S.Q.B.x.x.B.S.Q.S.Q.B.d.p.d.p.pQt.x.T.3.1.8.1.6.6.0.0.0.0.1.4.4.6.4.6.4.c.d.xQt.p.p.p.p.p.d.Q.T.S.Q.B.x.x.B.Q.S.T.Y.Y.Y",
".9.3.3.Y.T.S.Q.Q.Q.Q.S.S.S.T.Q.Q.B.B.B.Q.Q.T.9.9.Z.5.4.4.4.4.4.1.0.4.7#..5.6.0.6.p.Q.T.B.B.B.B.B.x.x.S.Y.T.S.Q.Q.Q.Q.S.T.Y.Y.3.3",
".9.9.9.3.Y.T.T.S.S.Q.S.S.3.Y.T.Y.Y.Y.Y.3.Y.9##.9.0.1.1.6.5.5.8.6.6.8.8.8.6.1.0.1.B.Y.9.T.3.Y.Y.Q.d.B.Y.9.S.S.Q.Q.S.T.T.Y.3.9.9.9",
".9.9.9.9.3.Y.T.T.T.S.Q.S.3.9.Y.9.I.P.R.R.U.P.I.X.0.1.0.6.5#.#.#a.7#.#a#..7.4.4.6.Z.2.X.M.P.R.R.W.b.x.3.9.S.Q.S.T.T.S.Y.3.9.9.9.9",
".3.9.9.9.3.Y.T.T.Y.T.T.S.3.9.9.9.U.X.2.Z.Z.2.1.8.7.5.5.7#.#.#b#a#a#c#a#a#..7.5.4.4.8.8.1.2.X.X.0.b.B.9.9.T.S.T.T.T.T.Y.3.9.9.3.3",
".3.3.9.3.3.Y.Y.3.3.Y.Q.T.9###d##.U.2.2.Z.0.1.6.5#.#..7.8.8#a#e#b#b#c#c#b#..8.4.5.8.7.5.6.1.X.X.0.b.S##.9.T.Q.T.3.Y.Y.Y.3.3.9.3.Y",
".3.3.3.Y.Y.Y.3.3.9.3.S.T.9#d#d#f.W.Z.0.0.0.0.0.4#..8.4.5.7#..7#b#c#b#c#a.8.5.6.6.5.5.6.Z.0.Z.Z.1.d.S##.9.T.S.3.9.3.Y.Y.Y.Y.3.3.Y",
".3.3.3.Y.Y.Y.3.9####.3.3#####d#g.R.0.Z.0.0.0.6.5.8.4.4.5.7.7.7#.#a#a#..7.8.5.0.1.6.5.5.0.Z.2.2.1.B.T####.3.3##.9.9.3.Y.Y.Y.3.3.3",
".9.9##.9.3.9#####d#d.3.3#####f#g.P.2.Z.2.X.Z.X.V.0.8.8.7#..4.5.7.8.7.8.5.5.5.4.5.5.2.W.W.2.X.X.0.B.T####.3.3###d##.9.3.3.9##.9.9",
"####.9####.9###d#d##.3.9#f#f#f#g.P.Z.X.X.X.X.X.X.6.7.8#..5.6.4.5.5.4.5.5.6.1.8.8.8.0.W.W.W.X.X.Z.x.Y#f#d.9.3###d####.9.9##.9####",
"#d#d#####d#d#d#d#f#f#####h#h#h#i.P.X.V.V.V.X.X.0.6.6.5#..5.6.8.7.5.4.4.8.5.4.8.5.6.1.2.W.W.W.X.Z.B.Y#h#h.9###f#f#d#d#d#######d##",
"###d#f#d#d#d#d#d#f#d#d###f#f#h#j.P.W.R.U.V.X.V.Z.1.6.8.8.5.8.7#..8.5.8#.#..4.4.5.1.Z.X.W.W.W.U.W.Q.Y#f#f###d#d#f#d#d#d#d#d#f####",
"#d###f#d#d#d#d#d#d#######f#h#g#j.I.P.U.W.X.X.2.0.Z.0.1.X.6.5.8.7.7.7.8.8.8.1.W.0.Z.X.X.X.V.V.W.W.Q.3#h#d#######d#d#d#d#d#d#f###d",
"#h#f#f#f###d#d#d####.3.9#d#g#g#j.I.U.W.W.X.X.Z.0.Z.Z.X.X.Z.1.6.5.1.1.4.1.6.Z.W.X.X.X.X.X.X.V.U.X.Q.3#h#d.9.3#####d#d#####d#f#f#f",
"#h#f#f#d#d#d#d#d##.9.9.9#d#f#h#j.I.R.R.W.X.Z.2.Z.2.X.2.2.Z.0.0.Z.W.W.0.1.6.Z.X.X.V.X.X.2.X.W.W.W.Q.Y#f#d.3.9.9###d#d#d#d#d#f#d#h",
"#i#h#f#d#f#f#f#f#f.3.Y.9#f#f#h#j.I.R.R.R.R.X.2.2.X.X.2.X.2.2.Z.Z.X.X.Z.Z.Z.2.X.X.V.X.X.X.W.R.R.U.Q.Y#f#f.9.Y.3#f#f#d#f#d#d#f#h#g",
"#j#i#h#f#f#f#h#h#f##.9###g#h#g#j.I.W.W.W.W.W.X.X.W.V.X.X.2.Z.X.X.X.X.X.X.Z.2.X.X.W.W.V.V.W.U.U.V.S.3#g#g.9.9###f#h#f#f#f#f#f#g#j",
"#j#i#g#h#h#h#h#h#d#####d#g#h#i#k.I.U.W.W.U.U.V.V.W.V.X.X.2.2.V.V.V.V.V.X.0.Z.X.X.W.W.W.V.R.R.U.W.S.9#g#h#d#####d#h#h#h#h#h#g#i#j",
"#k#j#j#i#i#g#g#g#f#d#d#f#i#i#k#l.I.U.U.W.W.P.W.W.W.2.Z.0.1.0.Z.Z.2.2.0.1.6.1.2.V.W.R.U.W.P.U.U.U.T#d#j#g#f#d#d#f#g#g#g#i#i#j#i#k",
"#m#j#k#k#i#i#i#i#h#d#d#f#g#j#k#m.P.W.R.U.R.P.U.U.S.B.S.S.Q.S.T.3.Y.Q.B.Q.S.S.T#d.U.U.P.U.P.R.R.W.T#d#k#h#d###d#f#i#i#g#i#k#j#j#l",
"#l#k#l#k#j#i#j#k#i#h#d#f#i#j#k#m.M.R.R.U.R.P.P.U.S.T.3.Y.Y.3###d.9.3.Y.Y.Y.3#d#j.M.R.P.P.P.P.R.W.T#d#k#h#f#d#h#g#k#j#i#j#k#k#k#l",
"#l#l#l#j#j#k#k#l#j#g#h#g#i#i#j#m.L.R.P.R.P.R.P.U.Y.9#d#####d#h#g#f#d####.9#d#i#n.L.P.P.P.P.P.P.U.T#d#i#h#h#h#g#i#l#k#j#j#j#k#k#l",
"#l#l#l#k#k#k#l#l#k#i#g#g#j#i#j#l.K.M.M.M.P.M.P.W.Y###h#d###f#g#i#g#d#####d#f#j#n.M.R.R.P.M.M.M.R.T#d#i#g#h#g#i#j#k#l#k#j#k#l#l#l",
"#l#l#l#l#k#k#m#l#i#j#i#g#k#k#l#m.K.M.M.M.M.M.P.U.Y#d#i#g#h#g#k#j#i#g#h#f#g#i#k#o.M.P.P.M.M.M.I.P.Y#h#k#i#h#g#j#i#l#m#k#k#l#l#l#k",
"#l#l#m#l#l#k#l#l#k#k#j#i#k#l#m#p.K.I.M.M.M.M.P.R.3#f#j#j#i#k#n#l#k#j#j#i#j#i#m#p.I.P.M.P.M.I.I.P.9#i#m#i#g#j#k#j#l#l#k#l#l#l#l#l",
"#n#n#o#m#m#m#m#m#l#l#k#l#m#n#p#q.H.I.L.L.I.M.M.R.9#f#j#j#k#l#o#n#l#l#k#k#j#j#m#p.I.P.M.M.I.L.L.M###l#n#k#k#k#l#l#m#m#l#m#m#n#n#n",
"#o#o#p#p#n#n#o#o#m#m#l#m#p#q#q#p.L.M.M.I.M.P.U.U.3#f#j#j#k#m#p#n#l#l#l#k#j#j#l#n.P.U.R.P.M.I.I.P###m#o#l#l#k#m#m#o#o#n#n#p#o#o#n",
"#q#p#p#p#o#o#o#p#o#o#m#m#o#q#p#m#h##.9.3.3.Y.Y.3.3#h#i#i#j#l#o#n#l#l#k#j#i#i#j#i#d.3.Y.9.9.9.9.9#h#n#o#l#l#m#o#n#p#o#o#o#p#p#o#q",
"#q#p#q#q#o#o#n#o#n#o#n#m#n#r#p#k#j#i#g#g#g#h#h#h#g#k#j#j#j#l#o#n#l#l#j#i#j#j#k#j#g#h#h#g#g#g#i#i#l#p#o#l#m#n#o#n#o#n#n#o#p#p#p#q",
"#r#q#p#q#p#o#o#o#n#m#m#l#m#q#p#l#k#n#n#m#o#n#m#l#m#m#l#l#l#m#q#p#n#m#l#l#l#l#m#m#l#m#n#o#m#n#n#l#n#q#o#k#l#m#m#n#o#o#n#o#q#p#q#r",
"#s#s#r#q#q#p#q#q#p#n#n#o#p#s#r#n#m#m#o#p#p#o#n#n#n#n#n#n#o#p#s#q#o#o#n#o#n#n#o#n#n#n#o#p#o#o#l#m#p#r#p#n#n#n#n#p#q#q#p#q#q#r#s#s",
"#t#t#s#r#q#q#q#r#q#p#p#p#q#t#u#p#n#n#o#p#p#n#n#n#n#o#o#p#o#q#t#s#q#p#o#p#p#o#o#o#n#m#n#p#p#o#n#n#q#t#r#p#p#p#p#q#r#q#q#q#r#s#s#t",
"#u#u#t#s#s#r#q#r#r#q#p#p#r#t#v#s#p#o#o#o#p#o#n#n#o#p#p#p#p#q#t#u#s#q#p#p#p#p#p#o#m#n#o#p#o#o#o#p#s#u#s#r#p#p#q#r#r#q#r#s#s#t#t#u",
"#u#v#u#t#t#s#r#s#s#s#r#q#r#t#v#t#p#o#p#p#q#q#p#p#o#o#o#o#p#p#s#t#s#q#p#p#o#o#p#o#p#p#q#q#p#o#o#p#s#u#t#r#q#r#s#r#s#r#s#t#t#u#u#u",
"#v#v#u#u#t#t#s#t#s#s#s#s#s#u#u#s#p#q#p#q#q#q#q#p#p#o#o#o#p#p#r#r#q#q#p#p#o#o#o#p#p#q#q#q#q#p#q#p#r#u#u#s#s#s#s#r#t#s#t#t#u#u#v#u"};
