/* XPM */
static char * east2_xpm[] = {
"64 64 27 1",
" 	c #491D13",
".	c #3C1911",
"+	c #401A12",
"@	c #441B12",
"#	c #65281A",
"$	c #7A311F",
"%	c #923926",
"&	c #280A05",
"*	c #000000",
"=	c #491A0F",
"-	c #200803",
";	c #3B140C",
">	c #190503",
",	c #0F0302",
"'	c #240C07",
")	c #0E0302",
"!	c #35150E",
"~	c #6E2B1B",
"{	c #5B2316",
"]	c #411910",
"^	c #3D170F",
"/	c #39160F",
"(	c #351209",
"_	c #250B06",
":	c #501C11",
"<	c #0B0201",
"[	c #833321",
"  ..  + @.  @  +@  +  @. +@  +  +  .@  @  . @  +@  +@ @   @  +  ",
" #$$$%%%%%%%%%%  #$$$%%%%%%%%%%@ $$%%%%%%%%%%%%  $$$$$$$%%%%%%%@",
"@#$$$$$$%$$$%%%@ #$$$$$$%$$$%%%  $$$$$$$%%$$$%%@ $$$$$$$$%$$%%% ",
" ##$$$$$$$$$$%% .#$$$$$$$%$$$%% +#$$$$$$%$$$$$%  #$$$$$$$$$$$%% ",
"+##$$$$$$$$$$$% @##$$$$$$$$$$$%. #$$$$$$$$$$$$%+ #$$$$$$$$$$$$%.",
" #######$$$$$$$. #######$$$$$$% .######$$$$$$$$ +###$$$$$$$$$$% ",
" ############## +##############+ ###########$$$  ########$$$$$% ",
"+@  +  @  . +  +  .  + @  ..   @+  @+  @@ .+  .+@ . + @@  ..  +@",
".   @. .@   ++@   ..   @@.   +@  @.  +@ @   @  +.  @@  .@.    @.",
"%%%%%%% +$$$$$$$%%%%%%%  $$$%%%%%%%%%%%  #$$$$$%%%%%%%%  #$$$$$%",
"$$$$$%%  $$$$$%%%%%%%%%. #$$$$$$$%%%%%%. ###$$$$$%$$%%% +##$$$$$",
"$$$$$$%  #$$$$$$$&***************************=$$$%$$$$%.@##$$$$$",
"$$$$$%%  #$$$$$$$&***************************=$$$$$$$$%@ ##$$$$$",
"##$$$$$@+#####$$$-***************************;###$$$##$  #$$$###",
"####### +########>***************************;#########++#######",
".    .@+@.    +@ ,***************************'  .@ ++  +@.    +@",
"+.  @   @  @@  +@)*****! +@   @++..   +   .@  ++@   @+  ++ ..  +",
".$$%%%%%%%%%%%%  -*****~%%%%%%% .#$$$%%%%%%%%%% @#$$$%%%%%%%%%% ",
" $$$$$$$%%$$$%% +-*****~$%$$%%%  #$$$$$$%$$$%%%@ #$$$$$$%$$$%%%+",
" #$$$$$$%$$$$$%+ >*****~$$$$$%%+ ##$$$$$$$$$$%%  #$$$$$$$%$$$%% ",
"+#$$$$$$$$$$$$%  >*****~$$$$$$% +##$$$$$$$$$$$%+ ##$$$$$$$$$$$% ",
" ######$$$$$$$$.+>*****~$$$$$$% .#######$$$$$$$ +#######$$$$$$%.",
".###########$$$. >*****{#$$$$$%+ ##############  ############## ",
"+  @ @  @  ++ . @,*****] +.  + @+@  +@  @.  + .+@ . ++  +  .@  @",
" @+ @  .@.  +  . )*****^  @@  @ +  .+  @@ +  @  .  @  +.@.  + @ ",
"%%%%%%% +#$$$$$%%&*****] #$$$$$%%%%%%%%. $$$$$$$%%%%%%%+ $$$%%%%",
"$%%%%%%. ###$$$$$&*****/ ##$$$$$$$$$$%% +$$$$$%%%%%%%%%  #$$$$$$",
"$$$$%%%..##$$$$$$&*****]@##$$$$$$$$$$$% @#$$$$$$$%$$$%% @#$$$$$$",
"$$$$$$%  #$$$$$$$-*****].##$$$$$$$$$$%%@ #$$$$$$$%$$$$%@ ####$$$",
"##$$$$%+ #$$#####-**************************(#$$$$$$$$% +#######",
"####### +########>**************************(#####$$$$$  #######",
".  ++ @+@  +.. @.,**************************_ +.  +  . + .@ .  @",
" ..  ++ @ .@  + @)**************************_++ @@  @+  ++   +@+",
".#%%%%%%%%%%%%%. >**************************:%%  $$$$$$$%%%%%%% ",
"@#$$%$$$$$$$%%% +>*****~$$$$$%%  #$$$%%%$$$$%%%@+$$$$$$$$$$%$%% ",
" ##$$$$$$$$$$$% .>*****~$$$$$$%+ #$$$$$$$$$$$%% .#$$$$$$$$$%$$%+",
" ##$$$$#$$$$$$%+ >*****~$$$#$$% +##$$$$$$$$#$$%  #$$$$$$$$$$$$% ",
".###$$$$#$$$$$%  >*****~$$##$$$. #######$$##$$%. ##$$$$$$##$$$$ ",
" ############%% +>*****{####### .############$$ +#########$$$$$+",
"+  @ @+  ..  @ +@)*****]+  .  + +  @  +  .  +  +@ . +  @+  .  +@",
" @ @@  .@.  ++@  )*****^@.  +  .+  .+ @@@@  @@  .@  @ +.@.@  +@ ",
"%%%%%%%+ #%%%%%%%&*****]+$$$%%%%%%%%%%%  $$$$$$%%%%%%%%  #$$$%%%",
"$$$%%%%  #$$$$%%%&*****] #$$$$%%%%$$%%% +$$$$$$$$%$$$%% +#$$$$%$",
"$$$$$$% .##$$$$$$-*****!@#$$$$$$$$$$$%%. #$$$$$$%$$$$$%. ##$$$$$",
"$$$$$$%@ ###$$$$$-*****].#$$$$$$##$$$%%@ #$$$$$$$$$$$$$ .##$$$$$",
"$$$#$$$+ ######$$-*****] #####$#$$$$$$% +###$$$####$$%% +###$$$$",
"#####$$ +########>*****/+###########$$$++#########$$$$$+ #######",
" @    @ @.   .+  <*****^@  +  +@  +  .   +  @+  . + +  +@  +. + ",
"+. . ++  .. @+  @)*****]++  .+ ++ . @  @@   @  +@@  @+  ++  .+ +",
".$$$%%%%%%%%%%%. -*****~%%%%%%%  #%%%%%%%%%%%%% +#$$$%%%%%%%%%% ",
" #$$$%%%$$$$%%%  -*****~$$$%$%%+ #$$%$$$$$$$%%%  #$$#$$$$$$$$%% ",
" #$$$$$$$$$$$%%+.>****************************[+ ###$$$$$$$$$$%+",
"+##$$$$$$$$#$$% @>****************************[+@##$$$$$$$$#$$% ",
" #######$$##$$%  >****************************[  ####$$$$$##$$$ ",
".############$$. >****************************[  ##############+",
"+  @ @+  ..  @ +@,****************************!+@@ .+  @ + .@  @",
" @  @  .@  @   .  ..  @  .  ++@   .. +@  @  @  +.  @  + @. @  @ ",
"%%%%%%% +$$$$$$%%%%%%%%+ #$$$%%%%%%%%%% +#%%%%%%%%%%%%%  $$$%%%%",
"%%$$%%%  $$$$$$$$%$$$%% +#$$$$%$$$$%%%%. #$$$$%%%%%$%%%+ #$$$$%%",
"$$$$$%%. #$$$$$$%$$$$$% @##$$$$$$$$$$$%+ ##$$$$$$$$$$%% @#$$$$$$",
"##$$$%% .#$$$$$$$$$$$$$@ ##$$$$$$$$$$$% @###$$$$$$$$$%% .#$$$$$$",
"$$$$$$%@+###$$$####$$%%+ ###$$$$$$$#$$$ +######$$$$$##%@ #####$#",
"####$$$  #########$$$$$ +############$$  ############## +#######",
".  + .@ @   ..  ..  . + @  +  + .. @   @ ++  + .  ++  @+@  +.  @"};
