/* XPM */
static char * N1_xpm[] = {
"64 64 83 1",
" 	c #CD879C",
".	c #4D4D4D",
"+	c #000000",
"@	c #AEAEAE",
"#	c #A1A1A1",
"$	c #DADADA",
"%	c #262626",
"&	c #0D0D0D",
"*	c #E5DBDD",
"=	c #939393",
"-	c #E2E2E2",
";	c #838383",
">	c #5C5C5C",
",	c #D9D9D9",
"'	c #CCCCCC",
")	c #737373",
"!	c #717171",
"~	c #D0D0D0",
"{	c #D8D8D8",
"]	c #626262",
"^	c #818181",
"/	c #C6C6C6",
"(	c #E1E1E1",
"_	c #515151",
":	c #919191",
"<	c #BBBBBB",
"[	c #E7E4E5",
"}	c #404040",
"|	c #9F9F9F",
"1	c #AFAFAF",
"2	c #D29AAA",
"3	c #2A2A2A",
"4	c #ACACAC",
"5	c #A3A3A3",
"6	c #3B3B3B",
"7	c #161616",
"8	c #E2D1D5",
"9	c #B8B8B8",
"0	c #959595",
"a	c #4B4B4B",
"b	c #E3E3E3",
"c	c #C3C3C3",
"d	c #858585",
"e	c #5D5D5D",
"f	c #DBDBDB",
"g	c #CDCDCD",
"h	c #767676",
"i	c #6E6E6E",
"j	c #D1D1D1",
"k	c #D6D6D6",
"l	c #656565",
"m	c #7E7E7E",
"n	c #C8C8C8",
"o	c #DFDFDF",
"p	c #535353",
"q	c #8E8E8E",
"r	c #BDBDBD",
"s	c #E8E8E8",
"t	c #424242",
"u	c #9D9D9D",
"v	c #B2B2B2",
"w	c #D6ABB7",
"x	c #222222",
"y	c #2E2E2E",
"z	c #AAAAAA",
"A	c #A6A6A6",
"B	c #353535",
"C	c #1C1C1C",
"D	c #DEC5CC",
"E	c #B6B6B6",
"F	c #989898",
"G	c #494949",
"H	c #E5E5E5",
"I	c #C1C1C1",
"J	c #888888",
"K	c #5A5A5A",
"L	c #CBCBCB",
"M	c #6C6C6C",
"N	c #D5D5D5",
"O	c #7C7C7C",
"P	c #DEDEDE",
"Q	c #8B8B8B",
"R	c #E6E6E6",
"                                                                ",
"                                                                ",
"                                                                ",
"                                                                ",
"                                                                ",
"                                                                ",
"                                                                ",
"                                                                ",
"                                                                ",
"                                                                ",
"                                                                ",
"                                                                ",
"                                                                ",
"                                                                ",
"       .+++++++@                   #+++++$                      ",
"       .+++++++%                   #+++++$                      ",
"       .++++++++#                  #+++++$                      ",
"       .++++++++&*                 #+++++$                      ",
"       .+++++++++=                 #+++++$                      ",
"       .++++++++++-                #+++++$                      ",
"       .++++++++++;                #+++++$                      ",
"       .+++++>+++++,               #+++++$                      ",
"       .+++++'+++++)               #+++++$                      ",
"       .+++++ !+++++~              #+++++$                      ",
"       .+++++ {+++++]              #+++++$                      ",
"       .+++++  ^+++++/             #+++++$                      ",
"       .+++++  (+++++_             #+++++$                      ",
"       .+++++   :+++++<            #+++++$                      ",
"       .+++++   [&++++}            #+++++$                      ",
"       .+++++    |+++++1           #+++++$                      ",
"       .+++++    2%++++3           #+++++$                      ",
"       .+++++     4+++++5          #+++++$                      ",
"       .+++++      6++++78         #+++++$                      ",
"       .+++++      9+++++0         #+++++$                      ",
"       .+++++       a+++++b        #+++++$                      ",
"       .+++++       c+++++d        #+++++$                      ",
"       .+++++        e+++++f       #+++++$                      ",
"       .+++++        g+++++h       #+++++$                      ",
"       .+++++         i+++++j      #+++++$                      ",
"       .+++++         k+++++l      #+++++$                      ",
"       .+++++          m+++++n     #+++++$                      ",
"       .+++++          o+++++p     #+++++$                      ",
"       .+++++           q+++++r    #+++++$                      ",
"       .+++++           s&++++t    #+++++$                      ",
"       .+++++            u+++++v   #+++++$                      ",
"       .+++++            wx++++y   #+++++$                      ",
"       .+++++             z+++++A  #+++++$                      ",
"       .+++++              B++++CD #+++++$                      ",
"       .+++++              E+++++F #+++++$                      ",
"       .+++++               G+++++H#+++++$                      ",
"       .+++++               I+++++J#+++++$                      ",
"       .+++++                K+++++e+++++$                      ",
"       .+++++                L+++++++++++$                      ",
"       .+++++                 M++++++++++$                      ",
"       .+++++                 N++++++++++$                      ",
"       .+++++                  O+++++++++$                      ",
"       .+++++                  P+++++++++$                      ",
"       .+++++                   Q++++++++$                      ",
"       .+++++                   R++++++++$                      ",
"                                                                ",
"                                                                ",
"                                                                ",
"                                                                ",
"                                                                "};
