/* XPM */
static char * south2_xpm[] = {
"64 64 188 2",
"  	c #491D13",
". 	c #3C1911",
"+ 	c #401A12",
"@ 	c #441B12",
"# 	c #65281A",
"$ 	c #7A311F",
"% 	c #923926",
"& 	c #5D2417",
"* 	c #511E13",
"= 	c #42170E",
"- 	c #300F08",
"; 	c #270B05",
"> 	c #1C0603",
", 	c #0C0201",
"' 	c #080101",
") 	c #260A04",
"! 	c #321007",
"~ 	c #42170C",
"{ 	c #5E2215",
"] 	c #2D100A",
"^ 	c #3D170E",
"/ 	c #5F2518",
"( 	c #471C12",
"_ 	c #31120C",
": 	c #2D0E07",
"< 	c #000000",
"[ 	c #190503",
"} 	c #39130B",
"| 	c #4D1D12",
"1 	c #5C2417",
"2 	c #110402",
"3 	c #421910",
"4 	c #481C13",
"5 	c #250C07",
"6 	c #3A170F",
"7 	c #78301E",
"8 	c #3F160B",
"9 	c #853322",
"0 	c #4D1C10",
"a 	c #0A0201",
"b 	c #4F1B10",
"c 	c #702A1B",
"d 	c #7F3120",
"e 	c #451B11",
"f 	c #64281A",
"g 	c #77301E",
"h 	c #732E1D",
"i 	c #6E2C1B",
"j 	c #632617",
"k 	c #541F12",
"l 	c #3F160C",
"m 	c #160402",
"n 	c #682919",
"o 	c #050100",
"p 	c #4E1C10",
"q 	c #742E1D",
"r 	c #672819",
"s 	c #4F1D11",
"t 	c #200803",
"u 	c #361209",
"v 	c #100301",
"w 	c #652718",
"x 	c #642718",
"y 	c #40160C",
"z 	c #5B2316",
"A 	c #5F2516",
"B 	c #481A10",
"C 	c #290C06",
"D 	c #260C06",
"E 	c #34130B",
"F 	c #190603",
"G 	c #38150D",
"H 	c #320E07",
"I 	c #3F180F",
"J 	c #371108",
"K 	c #34140D",
"L 	c #46170D",
"M 	c #31110A",
"N 	c #47190E",
"O 	c #120402",
"P 	c #3B1810",
"Q 	c #5E2416",
"R 	c #2A0D07",
"S 	c #5E2518",
"T 	c #020000",
"U 	c #2E0E07",
"V 	c #592216",
"W 	c #290D07",
"X 	c #1E0804",
"Y 	c #2B100A",
"Z 	c #36160F",
"` 	c #431A11",
" .	c #070101",
"..	c #1F0905",
"+.	c #2B0F0A",
"@.	c #31130C",
"#.	c #451B12",
"$.	c #030000",
"%.	c #270A05",
"&.	c #581F13",
"*.	c #722B1C",
"=.	c #873422",
"-.	c #542014",
";.	c #40140B",
">.	c #5C2315",
",.	c #752F1D",
"'.	c #722D1C",
").	c #44180D",
"!.	c #140402",
"~.	c #572113",
"{.	c #6D2B1B",
"].	c #1E0703",
"^.	c #6C2A1A",
"/.	c #762F1E",
"(.	c #4F1E12",
"_.	c #210804",
":.	c #0E0201",
"<.	c #501E13",
"[.	c #2E1009",
"}.	c #190704",
"|.	c #0F0201",
"1.	c #6A291A",
"2.	c #481D13",
"3.	c #411910",
"4.	c #31120B",
"5.	c #220A05",
"6.	c #010000",
"7.	c #0F0302",
"8.	c #3D1811",
"9.	c #441B11",
"0.	c #2B0E08",
"a.	c #040100",
"b.	c #30110A",
"c.	c #421A10",
"d.	c #1A0603",
"e.	c #1B0503",
"f.	c #8D3725",
"g.	c #2A0C05",
"h.	c #612316",
"i.	c #290B05",
"j.	c #3D150C",
"k.	c #2A0C06",
"l.	c #46190F",
"m.	c #200804",
"n.	c #32110A",
"o.	c #1D0804",
"p.	c #340F08",
"q.	c #37140C",
"r.	c #40170D",
"s.	c #5F2416",
"t.	c #2F0E07",
"u.	c #341109",
"v.	c #240904",
"w.	c #5B2215",
"x.	c #752F1E",
"y.	c #622619",
"z.	c #3A130A",
"A.	c #42170D",
"B.	c #622617",
"C.	c #79301F",
"D.	c #612517",
"E.	c #2C0D07",
"F.	c #501D11",
"G.	c #712D1C",
"H.	c #602618",
"I.	c #40160D",
"J.	c #170502",
"K.	c #662518",
"L.	c #240B06",
"M.	c #280D07",
"N.	c #2C0F08",
"O.	c #8C3624",
"P.	c #712A1B",
"Q.	c #49190E",
"R.	c #3E140B",
"S.	c #7E301F",
"T.	c #561E13",
"U.	c #040101",
"V.	c #270C06",
"W.	c #552014",
"X.	c #3D180F",
"Y.	c #45190E",
"Z.	c #341108",
"`.	c #180502",
" +	c #391309",
".+	c #491A0F",
"++	c #582114",
"@+	c #3F1911",
"    . .     +   @ .     @     + @     +     @ .   + @     +     +     . @     @     .   @     + @     + @   @       @     +     ",
"  # $ $ $ % % % % % % % % % %     # $ $ $ % % % % % % % % % % @   $ $ % % % % % % % % % % % %     $ $ $ $ $ $ $ % % % % % % % @ ",
"@ # $ $ $ $ $ $ % $ $ $ % % % @   # $ $ $ $ $ $ % $ $ $ % % %     $ $ $ $ $ $ $ % % $ $ $ % % @   $ $ $ $ $ $ $ $ % $ $ % % %   ",
"  # # $ $ $ $ $ $ $ $ $ $ % %   . # $ $ $ $ $ $ $ % $ $ $ % %   + # $ $ $ $ $ $ % $ $ $ $ $ %     # $ $ $ $ $ $ $ $ $ $ $ % %   ",
"+ # # $ $ $ $ $ $ $ $ $ $ $ %   @ # # $ $ $ $ $ $ $ $ $ $ $ % .   # $ $ $ $ $ $ $ $ $ $ $ $ % +   # $ $ $ $ $ $ $ $ $ $ $ $ % . ",
"  # # # # # # # $ $ $ $ $ $ $ .   # # # # # # # $ $ $ $ $ $ %   . # # # # # # $ $ $ $ $ $ $ $   + # # # $ $ $ $ $ $ $ $ $ $ %   ",
"  # # # # # # # # # # # # # #   + # # # # # # # # # # # # # # +   # # # # # # # # # # # $ $ $     # # # # # # # # $ $ $ $ $ %   ",
"+ @     +     @     .   +     +     .     +   @     . .       @ +     @ +     @ @   . +     . + @   .   +   @ @     . .     + @ ",
".       @ .   . @       + + @       . .       @ @ .       + @     @ .     + @   @       @     + .     @ @     . @ .         @ . ",
"% % % % % % %   + $ $ $ $ $ $ $ % % % % % % %     $ $ $ % % % % % % % % % % %     # $ $ $ $ $ % % % % % % % %     # $ $ $ $ $ % ",
"$ $ $ $ $ % %     $ $ $ $ $ % % % % % % % % % .   # $ $ $ $ $ $ $ % % % % % % .   # # # $ $ $ $ $ % $ $ % % %   + # # $ $ $ $ $ ",
"$ $ $ $ $ $ %     # $ $ $ $ $ $ $ % $ $ $ % % . @ # $ $ $ $ $ $ $ $ $ $ % % %   . # # $ $ $ $ $ $ % $ $ $ $ % . @ # # $ $ $ $ $ ",
"$ $ $ $ $ % %     # $ $ $ $ $ $ $ % $ $ $ $ %     # # # # $ $ $ $ $ $ $ $ $ %   @ # $ $ $ $ $ $ $ $ $ $ $ $ % @   # # $ $ $ $ $ ",
"# # $ $ $ $ $ @ + # # # # # $ $ $ $ $ $ $ $ %     # & * = - ; > , ' > ) ! ~ { ] ^ / $ $ # # # # # $ $ $ # # $     # $ $ $ # # # ",
"# # # # # # #   + # # # # # # # # # $ $ $ $ $ ( _ : < < < < < < < < < < < < < < < < [ } | 1 # # # # # # # # # + + # # # # # # # ",
".         . @ + @ .         + @       @ .   ^ 2 < < < < < < < < < < < < < < < < < < < < < < 3   . @   + +     + @ .         + @ ",
"+ .     @       @     @ @     + @ @     4 5 < < < < < < < < < < < < < < < < < < < < < < < < 6 + @       @ +     + +   . .     + ",
". $ $ % % % % % % % % % % % %     $ $ 7 8 < < < < < < < < < < < < < < < < < < < < < < < < < 9   @ # $ $ $ % % % % % % % % % %   ",
"  $ $ $ $ $ $ $ % % $ $ $ % %   + $ $ 0 < < < < < < < a b c d e ( f g h i j k l m < < < < < 9 @   # $ $ $ $ $ $ % $ $ $ % % % + ",
"  # $ $ $ $ $ $ % $ $ $ $ $ % +   # n < < < < < < o p q $ % % +   # # $ $ $ $ $ 7 r s t < < 9     # $ $ $ $ $ $ $ % $ $ $ % %   ",
"+ # $ $ $ $ $ $ $ $ $ $ $ $ %     # u < < < < < v w $ $ $ $ %   + # # $ $ $ $ $ $ $ $ 7 x y 9 +   # # $ $ $ $ $ $ $ $ $ $ $ %   ",
"  # # # # # # $ $ $ $ $ $ $ $ . + z < < < < < < A $ $ $ $ $ %   . # # # # # # # $ $ $ $ $ $ $   + # # # # # # # $ $ $ $ $ $ % . ",
". # # # # # # # # # # # $ $ $ .   B < < < < < C # $ $ $ $ $ % +   # # # # # # # # # # # # # #     # # # # # # # # # # # # # #   ",
"+     @   @     @     + +   .   @ D < < < < < E   + .     +   @ + @     + @     @ .     +   . + @   .   + +     +     . @     @ ",
"  @ +   @     . @ .     +     .   F < < < < < G     @ @     @   +     . +     @ @   +     @     .     @     + . @ .     +   @   ",
"% % % % % % %   + # $ $ $ $ $ % % H < < < < < I   # $ $ $ $ $ % % % % % % % % .   $ $ $ $ $ $ $ % % % % % % % +   $ $ $ % % % % ",
"$ % % % % % % .   # # # $ $ $ $ $ J < < < < < K   # # $ $ $ $ $ $ $ $ $ $ % %   + $ $ $ $ $ % % % % % % % % %     # $ $ $ $ $ $ ",
"$ $ $ $ % % % . . # # $ $ $ $ $ $ L < < < < < M @ # # $ $ $ $ $ $ $ $ $ $ $ %   @ # $ $ $ $ $ $ $ % $ $ $ % %   @ # $ $ $ $ $ $ ",
"$ $ $ $ $ $ %     # $ $ $ $ $ $ $ N < < < < < O P # # $ $ $ $ $ $ $ $ $ $ % % @   # $ $ $ $ $ $ $ % $ $ $ $ % @   # # # # $ $ $ ",
"# # $ $ $ $ % +   # $ $ # # # # # Q < < < < < < R f $ $ $ # # # # # $ $ $ $ $   + # # # # # $ $ $ $ $ $ $ $ %   + # # # # # # # ",
"# # # # # # #   + # # # # # # # # S T < < < < < < U V # # # # # # # # # # # #     # # # # # # # # # $ $ $ $ $     # # # # # # # ",
".     + +   @ + @     + . .   @ .   W < < < < < < < < X Y Z     . .       .   @ @     .     + .     +     .   +   . @   .     @ ",
"  . .     + +   @   . @     +   @ @ `  .< < < < < < < < < < , ..+.@.#.  @     @     . @   + +   @ @     @ +     + +       + @ + ",
". # % % % % % % % % % % % % % .   # $ r $.< < < < < < < < < < < < < < %.&.*.=.% % % % % % % %     $ $ $ $ $ $ $ % % % % % % %   ",
"@ # $ $ % $ $ $ $ $ $ $ % % %   + # $ $ -.> < < < < < < < < < < < < < < < < < ;.>.,.$ $ % % % @ + $ $ $ $ $ $ $ $ $ $ % $ % %   ",
"  # # $ $ $ $ $ $ $ $ $ $ $ %   . # # # $ '.).< < < < < < < < < < < < < < < < < < !.~.g $ % %   . # $ $ $ $ $ $ $ $ $ % $ $ % + ",
"  # # $ $ $ $ # $ $ $ $ $ $ % +   # # $ $ $ $ {.N v < < < < < < < < < < < < < < < < < ].^.$ %     # $ $ $ $ $ $ $ $ $ $ $ $ %   ",
". # # # $ $ $ $ # $ $ $ $ $ %     # # # # $ $ $ $ /.(.} _.< < < < < < < < < < < < < < < :.j % .   # # $ $ $ $ $ $ # # $ $ $ $   ",
"  # # # # # # # # # # # # % %   + # # # # # # # # # # # # & <.[.}.|.< < < < < < < < < < < ' 1.  + # # # # # # # # # $ $ $ $ $ + ",
"+     @   @ +     . .     @   + @ @     +   @   +     .     +   + 2.3.4.5.6.< < < < < < < < 7.8.@   .   +     @ +     .     + @ ",
"  @   @ @     . @ .     + + @     @ .     + @ @ @ .     +     . +     . + 9.0.a.< < < < < < < b.. @     @   + . @ . @     + @   ",
"% % % % % % % +   # % % % % % % % % % % % % %   + $ $ $ % % % % % % % % % % % c.d.< < < < < < e.f.% % % % % %     # $ $ $ % % % ",
"$ $ $ % % % %     # $ $ $ $ % % % % % $ % % %     # $ $ $ $ % % % % $ $ % % %   8.g.< < < < < < w % $ $ $ % %   + # $ $ $ $ % $ ",
"$ $ $ $ $ $ %   . # # $ $ $ $ $ $ $ $ $ $ % % . @ # $ $ $ $ $ $ $ $ $ $ $ % % .   -.< < < < < < h.$ $ $ $ $ % .   # # $ $ $ $ $ ",
"$ $ $ $ $ $ % @   # # # $ $ $ $ $ $ $ $ $ % %   . # $ $ $ $ $ $ # # $ $ $ % % @   # i.< < < < < 8 $ $ $ $ $ $   . # # $ $ $ $ $ ",
"$ $ $ # $ $ $ +   # # # # # # $ $ $ $ $ # # %     # # # # # $ # $ $ $ $ $ $ %   + # j.< < < < < k.# # $ $ % %   + # # # $ $ $ $ ",
"# # # # # $ $   + # # # # # # # # # # # # # # + + # # # # # # # # # # # $ $ $ + + # l.< < < < < m.# $ $ $ $ $ +   # # # # # # # ",
"  @         @   @ .       . +     . +     . + @ @     +     + @     +     .       + n.< < < < < O   +   +     + @     + .   +   ",
"+ .   .   + +     . .   @ +     @ @     @ +     + +     . +   + +   .   @     @ @   0.< < < < < o.@     @ +     + +     . +   + ",
". $ $ $ % % % % % % % % % % % .   $ $ $ $ $ $ $ % % % % % % %     # % % % % % % % % p.< < < < < 5 # $ $ $ % % % % % % % % % %   ",
"  # $ $ $ % % % $ $ $ $ % % %     $ $ $ $ $ $ $ $ $ $ % $ % % +   # $ $ % $ $ $ $ 1.< < < < < < q.# $ $ # $ $ $ $ $ $ $ $ % %   ",
"  # $ $ $ $ $ $ $ $ $ $ $ % % + . r.s.7 $ $ $ $ $ $ $ % $ $ %   + # # $ $ $ $ $ 7 t.< < < < < 6.9.# # # $ $ $ $ $ $ $ $ $ $ % + ",
"+ # # $ $ $ $ $ $ $ $ # $ $ %   @ u.< v.w.x.$ $ $ $ $ $ $ $ % . + # # $ $ $ $ y.z.< < < < < < ..@ # # $ $ $ $ $ $ $ $ # $ $ %   ",
"  # # # # # # # $ $ # # $ $ %     u.< < < a A.B.g # # $ $ $ $     # # # $ C.D.v.< < < < < <  .3.  # # # # $ $ $ $ $ # # $ $ $   ",
". # # # # # # # # # # # # $ $ .   u.< < < < < < ' E.F.B.{.G./.  ( H.z <.I.J.< < < < < < < < K.    # # # # # # # # # # # # # # + ",
"+     @   @ +     . .     @   + @ L.< < < < < < < < < < < < < < < < < < < < < < < < < < < M.. + @ @   . +     @   +   . @     @ ",
"  @     @     . @     @       .   L.< < < < < < < < < < < < < < < < < < < < < < < < < < N.    + .     @     +   @ .   @     @   ",
"% % % % % % %   + $ $ $ $ $ $ % % O.P.Q.a.< < < < < < < < < < < < < < < < < < < < < R.S.% % % % % % % % % % %     $ $ $ % % % % ",
"% % $ $ % % %     $ $ $ $ $ $ $ $ % $ $ h *.T.7.< < < < < < < < < < < < < < < U.V.W.$ $ $ $ % % % % % $ % % % +   # $ $ $ $ % % ",
"$ $ $ $ $ % % .   # $ $ $ $ $ $ % $ $ $ $ $ %   X.* l.Y.Z.i.> o a `.g. +.+++S.@+  # # $ $ $ $ $ $ $ $ $ $ % %   @ # $ $ $ $ $ $ ",
"# # $ $ $ % %   . # $ $ $ $ $ $ $ $ $ $ $ $ $ @   # # $ $ $ $ $ $ $ $ $ $ $ %   @ # # # $ $ $ $ $ $ $ $ $ % %   . # $ $ $ $ $ $ ",
"$ $ $ $ $ $ % @ + # # # $ $ $ # # # # $ $ % % +   # # # $ $ $ $ $ $ $ # $ $ $   + # # # # # # $ $ $ $ $ # # % @   # # # # # $ # ",
"# # # # $ $ $     # # # # # # # # # $ $ $ $ $   + # # # # # # # # # # # # $ $     # # # # # # # # # # # # # #   + # # # # # # # ",
".     +   . @   @       . .     . .     .   +   @     +     +   . .   @       @   + +     +   .     + +     @ + @     + .     @ "};
