/* XPM */
static char * S1_xpm[] = {
"64 64 112 2",
"  	c #87CD93",
". 	c #B9DABE",
"+ 	c #D0D0D0",
"@ 	c #ADADAD",
"# 	c #848484",
"$ 	c #6D6D6D",
"% 	c #555555",
"& 	c #2E2E2E",
"* 	c #262626",
"= 	c #454545",
"- 	c #585858",
"; 	c #717171",
"> 	c #909090",
", 	c #A8A8A8",
"' 	c #BEBEBE",
") 	c #DADADA",
"! 	c #CCCCCC",
"~ 	c #7D7D7D",
"{ 	c #000000",
"] 	c #4D4D4D",
"^ 	c #979797",
"/ 	c #C7C7C7",
"( 	c #D1E2D3",
"_ 	c #D8D8D8",
": 	c #E4E7E5",
"< 	c #A2A2A2",
"[ 	c #8A8A8A",
"} 	c #A5A5A5",
"| 	c #222222",
"1 	c #8E8E8E",
"2 	c #C5C5C5",
"3 	c #DFDFDF",
"4 	c #E8E8E8",
"5 	c #D1D1D1",
"6 	c #B3B3B3",
"7 	c #8B8B8B",
"8 	c #DBDBDB",
"9 	c #161616",
"0 	c #A7A7A7",
"a 	c #AAAAAA",
"b 	c #797979",
"c 	c #D6D6D6",
"d 	c #D4D4D4",
"e 	c #8C8C8C",
"f 	c #DBE5DC",
"g 	c #E7E7E7",
"h 	c #CACACA",
"i 	c #BBBBBB",
"j 	c #727272",
"k 	c #949494",
"l 	c #D7D7D7",
"m 	c #5D5D5D",
"n 	c #E0E0E0",
"o 	c #666666",
"p 	c #7F7F7F",
"q 	c #B4B4B4",
"r 	c #9B9B9B",
"s 	c #565656",
"t 	c #C8C8C8",
"u 	c #9E9E9E",
"v 	c #9AD2A4",
"w 	c #0D0D0D",
"x 	c #E4E4E4",
"y 	c #9C9C9C",
"z 	c #7A7A7A",
"A 	c #C0C0C0",
"B 	c #3B3B3B",
"C 	c #424242",
"D 	c #8D8D8D",
"E 	c #B8B8B8",
"F 	c #5A5A5A",
"G 	c #C5DEC9",
"H 	c #757575",
"I 	c #C4C4C4",
"J 	c #353535",
"K 	c #B9B9B9",
"L 	c #E5E5E5",
"M 	c #9A9A9A",
"N 	c #E3E3E3",
"O 	c #999999",
"P 	c #4F4F4F",
"Q 	c #2A2A2A",
"R 	c #CDCDCD",
"S 	c #ACACAC",
"T 	c #808080",
"U 	c #1C1C1C",
"V 	c #E6E6E6",
"W 	c #C2C2C2",
"X 	c #858585",
"Y 	c #383838",
"Z 	c #606060",
"` 	c #5F5F5F",
" .	c #B6B6B6",
"..	c #A3A3A3",
"+.	c #626262",
"@.	c #A0A0A0",
"#.	c #DEDEDE",
"$.	c #C9C9C9",
"%.	c #6A6A6A",
"&.	c #C1C1C1",
"*.	c #818181",
"=.	c #919191",
"-.	c #ABABAB",
";.	c #CFCFCF",
">.	c #ABD6B2",
",.	c #CECECE",
"'.	c #494949",
").	c #AFAFAF",
"!.	c #DDDDDD",
"~.	c #3D3D3D",
"{.	c #7E7E7E",
"].	c #BDBDBD",
"                                                                                                                                ",
"                                                                                                                                ",
"                                                                                                                                ",
"                                                                                                                                ",
"                                                                                                                                ",
"                                                                                                                                ",
"                                                                                                                                ",
"                                                                                                                                ",
"                                                                                                                                ",
"                                                                                                                                ",
"                                                                                                                                ",
"                                                                                                                                ",
"                            . + @ # $ % & * = - ; > , ' )                                                                       ",
"                        ! ~ { { { { { { { { { { { { { { { { ] ^ / (                                                             ",
"                    _ - { { { { { { { { { { { { { { { { { { { { { { :                                                           ",
"                  < { { { { { { { { { { { { { { { { { { { { { { { { :                                                           ",
"                [ { { { { { { { { { { { { { { { { { { { { { { { { { :                                                           ",
"              } { { { { { { { | 1 2 3           4 5 6 7 & { { { { { :                                                           ",
"            8 { { { { { { 9 0                             ) a ] { { :                                                           ",
"            b { { { { { & c                                     d e f                                                           ",
"          g { { { { { { h                                                                                                       ",
"          i { { { { { j                                                                                                         ",
"          k { { { { { '                                                                                                         ",
"          ; { { { { { l                                                                                                         ",
"          m { { { { { n                                                                                                         ",
"          o { { { { { c                                                                                                         ",
"          p { { { { { q                                                                                                         ",
"          r { { { { { s                                                                                                         ",
"          t { { { { { { u                                                                                                       ",
"          v w { { { { { { p x                                                                                                   ",
"            y { { { { { { { { z A f                                                                                             ",
"            . B { { { { { { { { { { C D E _                                                                                     ",
"              _ w { { { { { { { { { { { { { { F u h G                                                                           ",
"                _ = { { { { { { { { { { { { { { { { { H I                                                                       ",
"                  v k { { { { { { { { { { { { { { { { { { J K                                                                   ",
"                      L M & { { { { { { { { { { { { { { { { { - N                                                               ",
"                            ! O P { { { { { { { { { { { { { { { Q 5                                                             ",
"                                  G R S T J { { { { { { { { { { { U 3                                                           ",
"                                            V W X w { { { { { { { { ]                                                           ",
"                                                    @ Q { { { { { { { 6                                                         ",
"                                                      f $ { { { { { { Y                                                         ",
"                                                          Z { { { { { { c                                                       ",
"                                                          l { { { { { { @                                                       ",
"                                                            ` { { { { { [                                                       ",
"                                                            < { { { { { H                                                       ",
"                                                             .{ { { { { m                                                       ",
"                                                             .{ { { { { o                                                       ",
"                                                            ..{ { { { { p                                                       ",
"                                                            +.{ { { { { @.                                                      ",
"                                                          #.{ { { { { { t                                                       ",
"          , $.                                            %.{ { { { { w                                                         ",
"          e { % &.                                      *.{ { { { { { 1                                                         ",
"          e { { { | =.+                             R % { { { { { { 9 L                                                         ",
"          e { { { { { { * z -.;.L >.        g ,.0 '.{ { { { { { { { q                                                           ",
"          e { { { { { { { { { { { { { { { { { { { { { { { { { { { M                                                             ",
"          e { { { { { { { { { { { { { { { { { { { { { { { { { { ).                                                              ",
"            / # w { { { { { { { { { { { { { { { { { { { { { j !.                                                                ",
"                  $.r ] { { { { { { { { { { { { { { { & k _                                                                     ",
"                        : +  .^ H ` = 9 | ~.Z {.u ].!.                                                                          ",
"                                                                                                                                ",
"                                                                                                                                ",
"                                                                                                                                ",
"                                                                                                                                ",
"                                                                                                                                "};
