/* XPM */
static char * west2_xpm[] = {
"64 64 232 2",
"  	c #491D13",
". 	c #3C1911",
"+ 	c #401A12",
"@ 	c #441B12",
"# 	c #65281A",
"$ 	c #7A311F",
"% 	c #923926",
"& 	c #351108",
"* 	c #000000",
"= 	c #521F13",
"- 	c #1D0703",
"; 	c #6D2B1B",
"> 	c #622619",
", 	c #030000",
"' 	c #712D1C",
") 	c #43180E",
"! 	c #40170D",
"~ 	c #5D2417",
"{ 	c #4A1C11",
"] 	c #542014",
"^ 	c #1E0703",
"/ 	c #3D170E",
"( 	c #130503",
"_ 	c #31120C",
": 	c #220A06",
"< 	c #301009",
"[ 	c #2A0E07",
"} 	c #471C12",
"| 	c #020000",
"1 	c #451B12",
"2 	c #2A0D07",
"3 	c #0A0201",
"4 	c #481D13",
"5 	c #190604",
"6 	c #2E120B",
"7 	c #42150C",
"8 	c #772D1D",
"9 	c #2E0C06",
"0 	c #762F1E",
"a 	c #070101",
"b 	c #883523",
"c 	c #531F12",
"d 	c #4E1D10",
"e 	c #5B2215",
"f 	c #672819",
"g 	c #270B05",
"h 	c #2E0E06",
"i 	c #602516",
"j 	c #1F0905",
"k 	c #42170D",
"l 	c #4B1B0F",
"m 	c #050100",
"n 	c #742E1D",
"o 	c #491A0F",
"p 	c #3C170E",
"q 	c #0E0302",
"r 	c #180502",
"s 	c #79311F",
"t 	c #361209",
"u 	c #612517",
"v 	c #2C0D07",
"w 	c #632617",
"x 	c #260A04",
"y 	c #040100",
"z 	c #461C12",
"A 	c #200A06",
"B 	c #5A2316",
"C 	c #622719",
"D 	c #030100",
"E 	c #722D1C",
"F 	c #44190F",
"G 	c #40140B",
"H 	c #37140C",
"I 	c #552014",
"J 	c #210804",
"K 	c #39150E",
"L 	c #140503",
"M 	c #2F1009",
"N 	c #3A170F",
"O 	c #30110A",
"P 	c #2B0E08",
"Q 	c #3C1811",
"R 	c #37150D",
"S 	c #0E0301",
"T 	c #0B0201",
"U 	c #1C0704",
"V 	c #2F120B",
"W 	c #44160D",
"X 	c #752F1D",
"Y 	c #531D12",
"Z 	c #833221",
"` 	c #8E3725",
" .	c #732E1D",
"..	c #652517",
"+.	c #431A11",
"@.	c #310F07",
"#.	c #5C2315",
"$.	c #6D291A",
"%.	c #7C2F1F",
"&.	c #170503",
"*.	c #34130C",
"=.	c #501D11",
"-.	c #501C11",
";.	c #290D08",
">.	c #220B06",
",.	c #642718",
"'.	c #200703",
").	c #431B12",
"!.	c #381209",
"~.	c #3A150D",
"{.	c #1B0704",
"].	c #140402",
"^.	c #602618",
"/.	c #42170C",
"(.	c #411910",
"_.	c #77301E",
":.	c #080101",
"<.	c #3C1810",
"[.	c #31110A",
"}.	c #250A05",
"|.	c #4A1B10",
"1.	c #35130B",
"2.	c #552115",
"3.	c #180603",
"4.	c #36150E",
"5.	c #240C07",
"6.	c #40180F",
"7.	c #270D08",
"8.	c #3D1811",
"9.	c #220B07",
"0.	c #3A160D",
"a.	c #46170D",
"b.	c #310E07",
"c.	c #8A3623",
"d.	c #3E150B",
"e.	c #552013",
"f.	c #5F2215",
"g.	c #2D0D06",
"h.	c #582114",
"i.	c #5B2315",
"j.	c #35150E",
"k.	c #2F0E07",
"l.	c #682919",
"m.	c #3A1209",
"n.	c #4D1C10",
"o.	c #6A2A1A",
"p.	c #43170D",
"q.	c #270E08",
"r.	c #4F1D11",
"s.	c #4A1B0F",
"t.	c #511E13",
"u.	c #78301E",
"v.	c #0E0201",
"w.	c #190502",
"x.	c #1F0804",
"y.	c #3A130A",
"z.	c #3B160E",
"A.	c #5F2518",
"B.	c #300F08",
"C.	c #3A1810",
"D.	c #46190F",
"E.	c #2D0F08",
"F.	c #5E2518",
"G.	c #461A0F",
"H.	c #4B1C11",
"I.	c #3D170F",
"J.	c #33140D",
"K.	c #150503",
"L.	c #39150D",
"M.	c #3E170F",
"N.	c #1E0905",
"O.	c #2B0F09",
"P.	c #2E1009",
"Q.	c #3B1810",
"R.	c #250C07",
"S.	c #3E1911",
"T.	c #200905",
"U.	c #48180E",
"V.	c #320E07",
"W.	c #44170D",
"X.	c #8C3624",
"Y.	c #562013",
"Z.	c #321007",
"`.	c #572115",
" +	c #3C150C",
".+	c #7B2F1F",
"++	c #511E11",
"@+	c #632719",
"#+	c #4F1E12",
"$+	c #8D3725",
"%+	c #652718",
"&+	c #632718",
"*+	c #200804",
"=+	c #40150B",
"-+	c #471A10",
";+	c #0F0302",
">+	c #562115",
",+	c #341108",
"'+	c #3E180F",
")+	c #260C07",
"!+	c #3C160E",
"~+	c #260C06",
"{+	c #481C13",
"]+	c #30120C",
"^+	c #461B12",
"/+	c #4A190E",
"(+	c #290B05",
"_+	c #863422",
":+	c #3C130A",
"<+	c #803120",
"[+	c #110301",
"}+	c #682719",
"|+	c #3F160C",
"1+	c #4D1A10",
"2+	c #6A291A",
"3+	c #47190E",
"4+	c #44180E",
"5+	c #100301",
"6+	c #5D2416",
"7+	c #3D150B",
"8+	c #6F2C1B",
"9+	c #240905",
"0+	c #572113",
"a+	c #170502",
"b+	c #3F160D",
"c+	c #240B06",
"d+	c #35140C",
"e+	c #2D0F09",
"f+	c #060101",
"g+	c #32120B",
"h+	c #441B11",
"i+	c #843321",
"    . .     +   @ .     @     + @     +     @ .   + @     +     +     . @     @     .   @     + @     + @   @       @     +     ",
"  # $ $ $ % % % % % % % % % %     # $ $ $ % % % % % % % % % % @   $ $ % % % % % % % % % % % %     $ $ $ $ $ $ $ % % % % % % % @ ",
"@ # $ $ $ $ $ $ % $ $ $ % % % @   # $ $ $ $ $ $ % $ $ $ % % %     $ $ $ $ $ $ $ % % $ $ $ % % @   $ $ $ $ $ $ $ $ % $ $ % % %   ",
"  # # $ $ $ $ $ $ $ $ $ $ % %   . # $ $ $ $ $ $ $ % $ $ $ % %   + # $ $ $ $ $ $ % $ $ $ $ $ %     # $ $ $ $ $ $ $ $ $ $ $ % %   ",
"+ # # $ $ $ $ $ $ $ $ $ $ $ %   @ # # $ $ $ $ $ $ $ $ $ $ $ % .   # $ $ $ $ $ $ $ $ $ $ $ $ % +   # $ $ $ $ $ $ $ $ $ $ $ $ % . ",
"  # # # # # # # $ $ $ $ $ $ $ .   # # # # # # # $ $ $ $ $ $ %   . # # # # # # $ $ $ $ $ $ $ $   + # # # $ $ $ $ $ $ $ $ $ $ %   ",
"  # # # # # # # # # # # # # #   + # # # # # # # # # # # # # # +   # # # # # # # # # # # $ $ $     # # # # # # # # $ $ $ $ $ %   ",
"+ @     +     @     .   +     +     .     +   @     . .       @ +     @ +     @ @   . +     . + @   .   +   @ @     . .     + @ ",
".       @ .   . @       + + @       . .       @ @ .       + @     @ .     + @   @       @     + .     @ @     . @ .         @ . ",
"% % % % % % %   + $ $ $ $ $ $ $ % % % % % % %     $ $ $ % % % % % % % % % % %     # $ $ $ $ $ % % % % % % % %     # $ $ $ $ $ % ",
"$ $ $ $ $ % %     $ $ $ $ $ % % % % % % % % % .   # $ $ $ $ $ $ $ % % % % % % .   # # # $ $ $ $ $ % $ $ % % %   + # # $ $ $ $ $ ",
"$ $ $ $ $ $ %     # $ $ $ $ $ $ $ % $ $ $ % % . @ # $ $ $ $ $ $ $ $ $ $ % % %   . # # $ $ $ $ $ $ % $ $ $ $ % . @ # # $ $ $ $ $ ",
"$ $ $ $ $ % %     # $ $ $ $ $ $ $ % $ $ $ $ %     # # # # $ $ $ $ $ $ $ $ $ %   @ # $ $ $ $ $ $ $ $ $ $ $ $ % @   # # $ $ $ $ $ ",
"# # $ & * * * * * = # # # # $ $ $ $ $ $ $ $ %     # # # - * * * * * * ; $ $ % +   # $ $ # # # # # $ $ $ # > , * * * * * ' # # # ",
"# # # ) * * * * * ! # # # # # # # # $ $ $ $ $   + # # ~ * * * * * * * { # # #     # # # # # # # # # # # # ] * * * * * ^ # # # # ",
".     / * * * * * (         + @       @ .     @ @     _ * * * * * * * :       @ @ +     @ +     . @   + + < * * * * * [     + @ ",
"+ .   } | * * * * * 1 @ @     + @ @       + @ .   + @ 2 * * * * * * * 3 4   +       . @     + + @       @ 5 * * * * * 6 .     + ",
". $ $ % 7 * * * * * 8 % % % %     $ $ $ $ $ $ $ % % % 9 * * * * * * * * ; % % % % % % % % % %   @ # $ $ 0 a * * * * * b % % %   ",
"  $ $ $ c * * * * * d $ $ % %   + $ $ $ $ $ $ $ $ % ' * * * * * * * * * e $ $ $ % $ $ $ % % % @   # $ $ f * * * * * g $ % % % + ",
"  # $ $ f * * * * * h $ $ $ % +   # $ $ $ $ $ $ $ $ i * * * * j * * * * k $ $ $ $ $ $ $ $ % %     # $ $ c * * * * * l $ $ % %   ",
"+ # $ $ 0 m * * * * * n $ $ %     # $ $ $ $ $ $ $ $ o * * * * p q * * * r s $ $ $ $ $ $ $ $ % +   # # $ t * * * * * u $ $ $ %   ",
"  # # # # v * * * * * w $ $ $ . + # # # $ $ $ $ $ $ x * * * y z A * * * * B # # $ $ $ $ $ $ $   + # # C D * * * * * E $ $ $ % . ",
". # # # # F * * * * * ! $ $ $ .   # # # # # # # # ' * * * * G + H * * * * { # # # # # # # # #     # # I * * * * * J # # # # #   ",
"+     @   K * * * * * L +   .   @   .     + @     _ * * * * M @ N * * * * :     @ .     +   . + @   . O * * * * * P   . @     @ ",
"  @ +   @ } , * * * * * Q     .   @     +     @   [ * * * * R   + S * * * T 4 @ @   +     @     .     U * * * * * V     +   @   ",
"% % % % % % W * * * * * w $ $ % % % % % % % %     ^ * * * * X % % Y * * * * Z .   $ $ $ $ $ $ $ % % ` a * * * * *  .$ $ % % % % ",
"$ % % % % % ..* * * * * d $ $ $ $ % $ $ % % % + +.* * * * @.$ $ $ #.* * * * $.  + $ $ $ $ $ % % % % %.* * * * * &.# $ $ $ $ $ $ ",
"$ $ $ $ % % %.* * * * * h $ $ $ $ % $ $ $ $ %   *.* * * * =.$ $ $ ; * * * * -.  @ # $ $ $ $ $ $ $ % c * * * * * ;.# $ $ $ $ $ $ ",
"$ $ $ $ $ $ ` , * * * * * n $ $ $ $ $ $ $ $ %   >.* * * * ,.$ $ $ s r * * * '.).  # $ $ $ $ $ $ $ % !.* * * * * ~.# # # # $ $ $ ",
"# # $ $ $ $ % {.* * * * * = # # # $ $ $ # # $ @ ].* * * * ^.# # # # /.* * * * (.+ # # # # # $ $ $ _.:.* * * * * <.# # # # # # # ",
"# # # # # # # [.* * * * * ! # # # # # # # # # +.* * * * }.# # # # # |.* * * * 1.  # # # # # # # # 2.* * * * * 3.  # # # # # # # ",
".     + +   @ 4.* * * * * (   @ .     @ .     *.* * * * 5..     . . 6.* * * * : @     .     + .   O * * * * * 7.  . @   .     @ ",
"  . .     + + } D * * * * * 8.  @ @   +     @ 9.* * * * 0.+   + + . 4 :.* * * 3     . @   + +   @ U * * * * * 0.+ +       + @ + ",
". # % % % % % % a.* * * * * 8 .   # $ $ $ % % b.* * * * c.% %   . $ $ d.* * * * Z % % % % % %   } :.* * * * * n % % % % % % %   ",
"@ # $ $ % $ $ $ e.* * * * * f.  + # $ $ # $ ' * * * * g.$ % %     # $ h.* * * * i.$ $ $ % % % @ j.* * * * * k.$ $ $ $ % $ % %   ",
"  # # $ $ $ $ $ l.* * * * * m.  . # # # $ $ i * * * * n.$ $ % +   # $ o.* * * * p.$ $ $ $ % %   q.* * * * * r.$ $ $ $ % $ $ % + ",
"  # # $ $ $ $ # _.3 * * * * * 8.  # # $ $ $ s.* * * * t.$ $ %   + # # u.v.* * * w.s $ # $ $ %   x.* * * * * ,.$ $ $ $ $ $ $ %   ",
". # # # $ $ $ $ # y.* * * * * z.  # # # # $ g * * * * A.$ $ $ .   # # # B.* * * * ; # # $ $ % C., * * * * * n $ $ # # $ $ $ $   ",
"  # # # # # # # # D.* * * * * E.+ # # # # F.* * * * J # # # #   . # # # G.* * * * H.# # # $ $ I.* * * * * g # # # # $ $ $ $ $ + ",
"+     @   @ +     J.* * * * * K.@ @     + L.* * * * P .     +   +     @ M.* * * * N.    +     O.* * * * * P.  @ +     .     + @ ",
"  @   @ @     . @ Q.y * * * * * 1 @ .     R.* * * * L.  +     . +     . S., * * * 3     @ @   T.* * * * * z.+ . @ . @     + @   ",
"% % % % % % % +   # U.* * * * * 8 % % % % V.* * * * E $ % % % % % % % % % W.* * * * ; $ $ $ _.v.* * * * * X.%     # $ $ $ % % % ",
"$ $ $ % % % %     # Y.* * * * * f.% % $ b * * * * ^ $ $ $ $ % % % % $ $ % ..* * * * i.$ $ $ l.* * * * * Z.% %   + # $ $ $ $ % $ ",
"$ $ $ $ $ $ %   . # `.* * * * * k.$ $ $ u * * * *  +$ $ $ $ $ $ $ $ $ $ $ .+* * * * p.$ $ $ e.* * * * * ++$ % .   # # $ $ $ $ $ ",
"$ $ $ $ $ $ % @   # @+:.* * * * * n $ $ l * * * * #+$ $ $ $ $ $ # # $ $ $ $+y * * * w.s $ $ y.* * * * * %+$ $   . # # $ $ $ $ $ ",
"$ $ $ # $ $ $ +   # # B.* * * * * &+$ $ *+* * * * ~ # # # # $ # $ $ $ $ $ $ =+* * * * B $ _.3 * * * * , X % %   + # # # $ $ $ $ ",
"# # # # # $ $   + # # -+* * * * * ! # F.* * * * ;+# # # # # # # # # # # $ $ ++* * * * H.# >+* * * * * ,+$ $ $ +   # # # # # # # ",
"  @         @   @ .   '+* * * * * ( + L.* * * * )+    +     + @     +     . !+* * * * ~+@ O.* * * * * M +     + @     + .   +   ",
"+ .   .   + +     . . {+y * * * * * 1 P * * * * ]++     . +   + +   .   @   ^+* * * * T @ T.* * * * * p @ +     + +     . +   + ",
". $ $ $ % % % % % % % % /+* * * * * &+(+* * * * _+% % % % % %     # % % % % % :+* * * * <+[+* * * * , 0 $ % % % % % % % % % %   ",
"  # $ $ $ % % % $ $ $ $ }+* * * * * |+* * * * J $ $ $ % $ % % +   # $ $ % $ $ r.* * * * 1+* * * * * & $ # $ $ $ $ $ $ $ $ % %   ",
"  # $ $ $ $ $ $ $ $ $ $ 2+* * * * * * * * * * 3+$ $ $ % $ $ %   + # # $ $ $ $ &+* * * * * * * * * * 4+# $ $ $ $ $ $ $ $ $ $ % + ",
"+ # # $ $ $ $ $ $ $ $ # u.5+* * * * * * * * * 6+$ $ $ $ $ $ % . + # # $ $ $ $ ^.* * * * * * * * * * I $ $ $ $ $ $ $ $ # $ $ %   ",
"  # # # # # # # $ $ # # $ 7+* * * * * * * * * 8+$ # # $ $ $ $     # # # $ $ $ $ 9+* * * * * * * * D > # # $ $ $ $ $ # # $ $ $   ",
". # # # # # # # # # # # # 0+* * * * * * * * a+# # # $ $ $ $ $     # # # # # # # b+* * * * * * * * v # # # # # # # # # # # # # + ",
"+     @   @ +     . .     z.* * * * * * * * c+@     .   @     @ + @     +     @ d+* * * * * * * * e+  . +     @   +   . @     @ ",
"  @     @     . @     @   {+f+* * * * * * * g+    .     + + @       . .   + @   h+* * * * * * * * /   @     +   @ .   @     @   ",
"% % % % % % %   + $ $ $ $ $ d.* * * * * * * i++   # $ $ $ % % % % % % % % % %   + *+* * * * * * T ` % % % % %     $ $ $ % % % % ",
"% % $ $ % % %     $ $ $ $ $ $ $ $ % $ $ $ % %   + # $ $ $ $ % $ $ $ $ % % % % .   # $ $ $ $ % % % % % $ % % % +   # $ $ $ $ % % ",
"$ $ $ $ $ % % .   # $ $ $ $ $ $ % $ $ $ $ $ %   @ # # $ $ $ $ $ $ $ $ $ $ $ % +   # # $ $ $ $ $ $ $ $ $ $ % %   @ # $ $ $ $ $ $ ",
"# # $ $ $ % %   . # $ $ $ $ $ $ $ $ $ $ $ $ $ @   # # $ $ $ $ $ $ $ $ $ $ $ %   @ # # # $ $ $ $ $ $ $ $ $ % %   . # $ $ $ $ $ $ ",
"$ $ $ $ $ $ % @ + # # # $ $ $ # # # # $ $ % % +   # # # $ $ $ $ $ $ $ # $ $ $   + # # # # # # $ $ $ $ $ # # % @   # # # # # $ # ",
"# # # # $ $ $     # # # # # # # # # $ $ $ $ $   + # # # # # # # # # # # # $ $     # # # # # # # # # # # # # #   + # # # # # # # ",
".     +   . @   @       . .     . .     .   +   @     +     +   . .   @       @   + +     +   .     + +     @ + @     + .     @ "};
