/* XPM */
static char *dummy[]={
"64 64 27 1",
"f c #202020",
"w c #28200c",
"g c #2c2c2c",
"y c #382c14",
"e c #383838",
"x c #403018",
"k c #483818",
"h c #484848",
"v c #543c1c",
"c c #545454",
"r c #5c4020",
"d c #646464",
"q c #6c4824",
"# c #707070",
"p c #744c28",
"a c #7c7c7c",
"o c #80502c",
"l c #885830",
"b c #8c8c8c",
"n c #905c34",
". c #980088",
"i c #989898",
"j c #9c6038",
"m c #a0643c",
"u c #a86840",
"s c #b47044",
"t c #bc7848",
"................................................................",
"................................................................",
"................................................................",
"................................................................",
"................................................................",
"................................................................",
"................................................................",
"................................................................",
"................................................................",
"................................................................",
"................................................................",
"................................................................",
"................................................................",
"................................................................",
"................................................................",
"................................................................",
"................................................................",
"................................................................",
"................................................................",
"................................................................",
"................................................................",
"................................................................",
"................................................................",
"................................................................",
"................................................................",
"................................................................",
"................................................................",
"................................................................",
"................................................................",
"................................................................",
"................................................................",
"................................................................",
"................................................................",
"................................................................",
"........................########aaaaabbbb.......................",
"......................a#ccccccccccdddd###ba.....................",
".....................abcefffgggggggeehhhc#c#....................",
".....................aabiibbaaaa####dddcchee....................",
"....................jjaabbaa##ddddccchheeeekk...................",
"....................lmnjjlooppppqqqrrkkkkkkrk...................",
"...................lmlstmutsnluumjnpqopqrpqkrk..................",
"...................lmlstjtssnnuumjnoroopvpqkrh..................",
"...................dab#tjtssnuumjnloroopvhhhhe..................",
"...................#aabbibaaa#####ddddcccceeee..................",
"...................aaaaab###ddddccccchhhheeeee..................",
"...................pcd#aa###ddddccccchhhhheeer..................",
"...................mlsmmrjnlkpppqqqqwkkkkvrrkr..................",
"...................mlsttmtssnumjjnloroopqvrrkr..................",
"...................mlsttmtssnumjjnloroopqvrrkr..................",
"...................mlsttmtsslumjjnloroopqvrrkr..................",
"...................mlsttmtsslumjjnloroopqvrrkr..................",
"...................mlsttmtsslumjjnloroopqvrrkr..................",
"...................mlsttjtssoumjjnloroopqvrrkh..................",
"...................bbbatjtssoumjjnloroopqvhhhh..................",
"...................aaabibaaaa#####ddddccccheee..................",
"...................d#aaba###ddddccccchhhhheeee..................",
"...................pcddd####ddddccccchhhhhxxxv..................",
"...................llooooooqyqqrrrrrwrrrxxrkrk..................",
"....................lmmsluuuplnnnnlqropqkrrkrk..................",
"....................#mlmmluuponnnlorroprkrkrkdddddddddddd.......",
"....................#bibmljjopllllorqpqkrkkkeeeeeeeeeeehcdd.....",
".....................aaabbbbaa##dddcchhheegffffffffffgghhccd....",
"......................a#aa##ddddcccchheeegggggggggggggehhccd....",
"........................cccchhhhheeeeggggeeeeeeeeeeeeehhccd....."};
