/* XPM */
static char *dummy[]={
"64 64 24 1",
"h c #004040",
"j c #005858",
"g c #007070",
"f c #007474",
"b c #007878",
"a c #007c7c",
"i c #008484",
"e c #008c8c",
"d c #009898",
"n c #00a4a4",
"c c #20b0b0",
"p c #20b4b4",
"# c #383838",
"s c #404000",
"u c #484848",
"m c #48c0c0",
"v c #545454",
"r c #585400",
"o c #74c8c8",
". c #980088",
"l c #9cdcdc",
"q c #b4ac00",
"k c #b8e8e8",
"t c #d8f4f4",
"......................................................##########",
"......................................................#abbbbbbbb",
"......................................................#cddefgcee",
"......................................................#ccccahgcc",
"......................................................#ccccbaecc",
"......................................................#ccccijjjj",
"......................................................#cccccabgg",
"......................................................#dikclceee",
"......................................................#agickmnnn",
"......................................................#baeckonnn",
"......................................................#nncckonnn",
"......................................................#cccckonnn",
"......................................................#cccckonnn",
"......................................................#cccckonnn",
"......................................................#cccckonnn",
"......................................................#dikckonnc",
"......................................................#agickoccc",
"......................................................#baeckoccc",
"......................................................#nncckoccc",
"......................................................#cccckocpp",
"......................................................#cccckoppp",
"......................................................#cccckoppp",
"......................................................#cccckoppp",
"......................................................#dikckoppp",
"......................................................#agickoppm",
"......................................................#baeckopmp",
"......................................................#nncckompm",
"......................................................#cccckopmp",
"......................................................#ccppkompm",
"......................................................#cpppkopmq",
"......................................................#ppppkombr",
"......................................................#dikpkoifs",
"......................................................#agipkcies",
"......................................................#baemkdils",
"......................................................#nnmoodios",
"......................................................#moolpdios",
"......................................................#oollcdios",
"......................................................#ollkcdims",
"......................................................#lkkkcdims",
"......................................................#opktcdims",
"......................................................#capkcdief",
"......................................................#ccokpdibb",
"......................................................#ooklpdiii",
"......................................................#tkllpdiep",
"......................................................#kllopddpp",
"......................................................#lloopdppp",
"......................................................#lommmcppp",
"......................................................#dikmkpppc",
"......................................................#agimkmpcc",
"......................................................#baemkoccc",
"......................................................#nnmmkoccc",
"......................................................#mmmpkoccc",
"......................................................#mmppkoccc",
"......................................................#ppppkoccc",
"......................................................#ppppkoccn",
"......................................................#dikpkoccc",
"......................................................#agipkoccn",
"......................................................#baeckoooo",
"......................................................#nncckkkkk",
"......................................................#ccccccccc",
"......................................................#ccccdikcc",
"......................................................#ccccagicc",
"......................................................uccccbaecc",
"......................................................vvvvvvvvvv"};
