/* XPM */
static char *dummy[]={
"64 64 37 1",
"h c #004040",
"j c #005858",
"g c #007070",
"f c #007474",
"b c #007878",
"a c #007c7c",
"i c #008484",
"e c #008c8c",
"d c #009898",
"n c #00a4a4",
"I c #202020",
"c c #20b0b0",
"p c #20b4b4",
"y c #2c2c2c",
"# c #383838",
"B c #404000",
"D c #484848",
"m c #48c0c0",
"C c #545454",
"z c #585400",
"t c #646464",
"F c #706c00",
"u c #707070",
"o c #74c8c8",
"s c #7c7c7c",
"A c #848400",
". c #980088",
"H c #9c9c00",
"l c #9cdcdc",
"q c #a8a8a8",
"v c #b4ac00",
"k c #b8e8e8",
"E c #ccc400",
"r c #d0d0d0",
"G c #d8f4f4",
"w c #e4d800",
"x c #fcf400",
".............................................###################",
".............................................#abbbbbbbbbbbbbbbbb",
".............................................#cddefgceeeeefgcdee",
".............................................#ccccahgcccccahgccc",
".............................................#ccccbaecccccbaeccc",
".............................................#ccccijjjjjjjjjjjjj",
".............................................#cccccabggggggggggg",
".............................................#dikclceeeeeeeeeeee",
".............................................#agickmnnnnnnnnnnnn",
".............................................#baeckonnnnnnnnnnnn",
".............................................#nncckonnnnnnnnnnnn",
".............................................#cccckonnnnnnnnnnnc",
".............................................#cccckonnnnnnnncccc",
".............................................#cccckonnnnnncccccc",
".............................................#cccckonnnnccccccpp",
".............................................#dikckonncccccccppp",
".............................................#agickocccccccppppp",
".............................................#baeckocccccppppppm",
".............................................#nncckocccpppppppmp",
".............................................#cccckocppppppppmpm",
".............................................#cccckoppppppppmpmp",
".............................................#cccckopppppmpmpmpm",
".............................................#cccckoppppmpmpmpmp",
".............................................#dikckopppmpmpmpmpm",
".............................................#agickoppmpmpmpmpmp",
".............................................#baeckopmpmpmpmpmpm",
".............................................#nncckompmpmpmpmpmp",
".............................................#cccckopmpmpmpmqrrr",
".............................................#ccppkompmpmpmcstuu",
".............................................#cpppkopmvwxmcayt#q",
".............................................#ppppkombzAxpnayttt",
".............................................#dikpkoifBAwoeayttt",
".............................................#agipkcieBAwmeayttt",
".............................................#baemkdilBAwmeayCDA",
".............................................#nnmoodioBAEmeayDyF",
".............................................#moolpdioBAEmeay#yF",
".............................................#oollcdioBAEmeayyyz",
".............................................#ollkcdimBAvmeayyyz",
".............................................#lkkkcdimBAvmeayyyy",
".............................................#opkGcdimBAHmeayyyy",
".............................................#capkcdiefBFpeay##D",
".............................................#ccokpdibbippeay#Iu",
".............................................#ooklpdiiipppeayy#C",
".............................................#Gkllpdiepppceayyyy",
".............................................#kllopddppppceaaaaa",
".............................................#lloopdppppcceeeeee",
".............................................#lommmcpppcccccccnc",
".............................................#dikmkpppcccccccncn",
".............................................#agimkmpcccccccncnn",
".............................................#baemkocccccccncncn",
".............................................#nnmmkoccccccncncnn",
".............................................#mmmpkocccccncncnnn",
".............................................#mmppkoccccncncnnnd",
".............................................#ppppkocccncncncndn",
".............................................#ppppkoccncncncnnnd",
".............................................#dikpkocccncncnnndd",
".............................................#agipkoccncncnnnddd",
".............................................#baeckooooooooooooo",
".............................................#nncckkkkkkkkkkkkkk",
".............................................#cccccccccccccnnnnd",
".............................................#ccccdikcccccdikndd",
".............................................#ccccagicccccagiddd",
".............................................Dccccbaecccccbaeddd",
".............................................CCCCCCCCCCCCCCCCCCC"};
