/* XPM */
static char *dummy[]={
"64 64 39 1",
"H c #000000",
"h c #004040",
"j c #005858",
"g c #007070",
"f c #007474",
"b c #007878",
"a c #007c7c",
"i c #008484",
"e c #008c8c",
"d c #009898",
"n c #00a4a4",
"K c #202020",
"c c #20b0b0",
"p c #20b4b4",
"z c #2c2c2c",
"# c #383838",
"D c #404000",
"E c #484848",
"m c #48c0c0",
"A c #545454",
"B c #585400",
"t c #646464",
"G c #706c00",
"u c #707070",
"o c #74c8c8",
"s c #7c7c7c",
"C c #848400",
"v c #8c8c8c",
". c #980088",
"J c #9c9c00",
"l c #9cdcdc",
"q c #a8a8a8",
"w c #b4ac00",
"k c #b8e8e8",
"F c #ccc400",
"r c #d0d0d0",
"I c #d8f4f4",
"x c #e4d800",
"y c #fcf400",
"..........................................######################",
"..........................................#abbbbbbbbbbbbbbbbbbbb",
"..........................................#cddefgceeeeefgcdeeeef",
"..........................................#ccccahgcccccahgccccca",
"..........................................#ccccbaecccccbaecccccb",
"..........................................#ccccijjjjjjjjjjjjjjjj",
"..........................................#cccccabgggggggggggggg",
"..........................................#dikclceeeeeeeeeeeeeee",
"..........................................#agickmnnnnnnnnnnnnnnn",
"..........................................#baeckonnnnnnnnnnnnnnn",
"..........................................#nncckonnnnnnnnnnnnncc",
"..........................................#cccckonnnnnnnnnnncccc",
"..........................................#cccckonnnnnnnnccccccp",
"..........................................#cccckonnnnnnccccccppp",
"..........................................#cccckonnnnccccccppppp",
"..........................................#dikckonncccccccpppppp",
"..........................................#agickocccccccpppppmpm",
"..........................................#baeckocccccppppppmpmp",
"..........................................#nncckocccpppppppmpmpm",
"..........................................#cccckocppppppppmpmpmp",
"..........................................#cccckoppppppppmpmpmpm",
"..........................................#cccckopppppmpmpmpmpmp",
"..........................................#cccckoppppmpmpmpmpmpm",
"..........................................#dikckopppmpmpmpmpmpmp",
"..........................................#agickoppmpmpmpmpmpmpm",
"..........................................#baeckopmpmpmpmpmpmpmp",
"..........................................#nncckompmpmpmpmpmpmpm",
"..........................................#cccckopmpmpmpmqrrrrrr",
"..........................................#ccppkompmpmpmcstuussv",
"..........................................#cpppkopmwxymcazt#qusA",
"..........................................#ppppkombBCypnaztttuus",
"..........................................#dikpkoifDCxoeazttttuu",
"..........................................#agipkcieDCxmeaztttttu",
"..........................................#baemkdilDCxmeazAECFFy",
"..........................................#nnmoodioDCFmeazEzGHHF",
"..........................................#moolpdioDCFmeaz#zGHHF",
"..........................................#oollcdioDCFmeazzzBzzF",
"..........................................#ollkcdimDCwmeazzzBBGC",
"..........................................#lkkkcdimDCwmeazzzzzzz",
"..........................................#opkIcdimDCJmeazzzzzzE",
"..........................................#capkcdiefDGpeaz##EEAt",
"..........................................#ccokpdibbippeaz#KuAtz",
"..........................................#ooklpdiiipppeazz#AAAt",
"..........................................#Ikllpdiepppceazzzzzzz",
"..........................................#kllopddppppceaaaaaaaa",
"..........................................#lloopdppppcceeeeeeeee",
"..........................................#lommmcpppcccccccncnnn",
"..........................................#dikmkpppcccccccncnnnn",
"..........................................#agimkmpcccccccncnnnnn",
"..........................................#baemkocccccccncncnnnd",
"..........................................#nnmmkoccccccncncnnndn",
"..........................................#mmmpkocccccncncnnndnd",
"..........................................#mmppkoccccncncnnndndd",
"..........................................#ppppkocccncncncndnddd",
"..........................................#ppppkoccncncncnnndddd",
"..........................................#dikpkocccncncnnndddde",
"..........................................#agipkoccncncnnndddded",
"..........................................#baeckoooooooooooooooo",
"..........................................#nncckkkkkkkkkkkkkkkkk",
"..........................................#cccccccccccccnnnndddd",
"..........................................#ccccdikcccccdiknddddd",
"..........................................#ccccagicccccagiddddda",
"..........................................Eccccbaecccccbaedddddb",
"..........................................AAAAAAAAAAAAAAAAAAAAAA"};
