/* XPM */
static char *dummy[]={
"64 64 42 1",
"K c #000000",
"h c #004040",
"j c #005858",
"g c #007070",
"f c #007474",
"b c #007878",
"a c #007c7c",
"i c #008484",
"e c #008c8c",
"d c #009898",
"n c #00a4a4",
"N c #202020",
"c c #20b0b0",
"p c #20b4b4",
"B c #2c2c2c",
"# c #383838",
"G c #404000",
"H c #484848",
"m c #48c0c0",
"C c #545454",
"E c #585400",
"u c #646464",
"J c #706c00",
"v c #707070",
"o c #74c8c8",
"t c #7c7c7c",
"F c #848400",
"w c #8c8c8c",
". c #980088",
"x c #989898",
"M c #9c9c00",
"l c #9cdcdc",
"q c #a8a8a8",
"y c #b4ac00",
"D c #b4b4b4",
"k c #b8e8e8",
"s c #c0c0c0",
"I c #ccc400",
"r c #d0d0d0",
"L c #d8f4f4",
"z c #e4d800",
"A c #fcf400",
".......................................#########################",
".......................................#abbbbbbbbbbbbbbbbbbbbbbb",
".......................................#cddefgceeeeefgcdeeeefgce",
".......................................#ccccahgcccccahgcccccahgc",
".......................................#ccccbaecccccbaecccccbaec",
".......................................#ccccijjjjjjjjjjjjjjjjjjj",
".......................................#cccccabggggggggggggggggg",
".......................................#dikclceeeeeeeeeeeeeeeeee",
".......................................#agickmnnnnnnnnnnnnnnnnnc",
".......................................#baeckonnnnnnnnnnnnnnnccc",
".......................................#nncckonnnnnnnnnnnnnccccc",
".......................................#cccckonnnnnnnnnnncccccpp",
".......................................#cccckonnnnnnnnccccccpppp",
".......................................#cccckonnnnnnccccccpppppm",
".......................................#cccckonnnnccccccppppppmp",
".......................................#dikckonncccccccppppppmpm",
".......................................#agickocccccccpppppmpmpmp",
".......................................#baeckocccccppppppmpmpmpm",
".......................................#nncckocccpppppppmpmpmpmp",
".......................................#cccckocppppppppmpmpmpmpm",
".......................................#cccckoppppppppmpmpmpmpmp",
".......................................#cccckopppppmpmpmpmpmpmpm",
".......................................#cccckoppppmpmpmpmpmpmpmp",
".......................................#dikckopppmpmpmpmpmpmpmpm",
".......................................#agickoppmpmpmpmpmpmpmpmp",
".......................................#baeckopmpmpmpmpmpmpmpmpm",
".......................................#nncckompmpmpmpmpmpmpmpmp",
".......................................#cccckopmpmpmpmqrrrrrrrss",
".......................................#ccppkompmpmpmctuvvttwxqs",
".......................................#cpppkopmyzAmcaBu#qvtCrxD",
".......................................#ppppkombEFApnaBuuuvvttwD",
".......................................#dikpkoifGFzoeaBuuuuvvttD",
".......................................#agipkcieGFzmeaBuuuuuvvtq",
".......................................#baemkdilGFzmeaBCHFIIAvvq",
".......................................#nnmoodioGFImeaBHBJKKIuvq",
".......................................#moolpdioGFImeaB#BJKKIuuq",
".......................................#oollcdioGFImeaBBBEBBIuuq",
".......................................#ollkcdimGFymeaBBBEEJFuuq",
".......................................#lkkkcdimGFymeaBBBBBBBuux",
".......................................#opkLcdimGFMmeaBBBBBBHuux",
".......................................#capkcdiefGJpeaB##HHCuuux",
".......................................#ccokpdibbippeaB#NvCuBwuw",
".......................................#ooklpdiiipppeaBB#CCCuuuw",
".......................................#LkllpdiepppceaBBBBBBBBBu",
".......................................#kllopddppppceaaaaaaaaaad",
".......................................#lloopdppppcceeeeeeeeeenn",
".......................................#lommmcpppcccccccncnnnnnd",
".......................................#dikmkpppcccccccncnnnnndd",
".......................................#agimkmpcccccccncnnnnnddd",
".......................................#baemkocccccccncncnnndndd",
".......................................#nnmmkoccccccncncnnndndde",
".......................................#mmmpkocccccncncnnndndddd",
".......................................#mmppkoccccncncnnndndddde",
".......................................#ppppkocccncncncndndddded",
".......................................#ppppkoccncncncnnnddddede",
".......................................#dikpkocccncncnnnddddedee",
".......................................#agipkoccncncnnnddddedeee",
".......................................#baeckoooooooooooooooooom",
".......................................#nncckkkkkkkkkkkkkkkkkkkl",
".......................................#cccccccccccccnnnnddddddd",
".......................................#ccccdikcccccdikndddddgpd",
".......................................#ccccagicccccagidddddahge",
".......................................Hccccbaecccccbaedddddbaee",
".......................................CCCCCCCCCCCCCCCCCCCCCCCCC"};
