/* XPM */
static char *dummy[]={
"64 64 33 1",
"h c #004040",
"j c #005858",
"g c #007070",
"f c #007474",
"b c #007878",
"a c #007c7c",
"i c #008484",
"e c #008c8c",
"d c #009898",
"n c #00a4a4",
"c c #20b0b0",
"p c #20b4b4",
"v c #2c2c2c",
"# c #383838",
"y c #404000",
"D c #484848",
"m c #48c0c0",
"E c #545454",
"w c #585400",
"C c #706c00",
"o c #74c8c8",
"r c #7c7c7c",
"x c #848400",
". c #980088",
"B c #9c9c00",
"l c #9cdcdc",
"q c #a8a8a8",
"s c #b4ac00",
"k c #b8e8e8",
"z c #ccc400",
"A c #d8f4f4",
"t c #e4d800",
"u c #fcf400",
"................................................################",
"................................................#abbbbbbbbbbbbbb",
"................................................#cddefgceeeeefgc",
"................................................#ccccahgcccccahg",
"................................................#ccccbaecccccbae",
"................................................#ccccijjjjjjjjjj",
"................................................#cccccabgggggggg",
"................................................#dikclceeeeeeeee",
"................................................#agickmnnnnnnnnn",
"................................................#baeckonnnnnnnnn",
"................................................#nncckonnnnnnnnn",
"................................................#cccckonnnnnnnnn",
"................................................#cccckonnnnnnnnc",
"................................................#cccckonnnnnnccc",
"................................................#cccckonnnnccccc",
"................................................#dikckonnccccccc",
"................................................#agickocccccccpp",
"................................................#baeckocccccpppp",
"................................................#nncckocccpppppp",
"................................................#cccckocpppppppp",
"................................................#cccckoppppppppm",
"................................................#cccckopppppmpmp",
"................................................#cccckoppppmpmpm",
"................................................#dikckopppmpmpmp",
"................................................#agickoppmpmpmpm",
"................................................#baeckopmpmpmpmp",
"................................................#nncckompmpmpmpm",
"................................................#cccckopmpmpmpmq",
"................................................#ccppkompmpmpmcr",
"................................................#cpppkopmstumcav",
"................................................#ppppkombwxupnav",
"................................................#dikpkoifyxtoeav",
"................................................#agipkcieyxtmeav",
"................................................#baemkdilyxtmeav",
"................................................#nnmoodioyxzmeav",
"................................................#moolpdioyxzmeav",
"................................................#oollcdioyxzmeav",
"................................................#ollkcdimyxsmeav",
"................................................#lkkkcdimyxsmeav",
"................................................#opkAcdimyxBmeav",
"................................................#capkcdiefyCpeav",
"................................................#ccokpdibbippeav",
"................................................#ooklpdiiipppeav",
"................................................#Akllpdiepppceav",
"................................................#kllopddppppceaa",
"................................................#lloopdppppcceee",
"................................................#lommmcpppcccccc",
"................................................#dikmkpppccccccc",
"................................................#agimkmpcccccccn",
"................................................#baemkocccccccnc",
"................................................#nnmmkoccccccncn",
"................................................#mmmpkocccccncnc",
"................................................#mmppkoccccncncn",
"................................................#ppppkocccncncnc",
"................................................#ppppkoccncncncn",
"................................................#dikpkocccncncnn",
"................................................#agipkoccncncnnn",
"................................................#baeckoooooooooo",
"................................................#nncckkkkkkkkkkk",
"................................................#cccccccccccccnn",
"................................................#ccccdikcccccdik",
"................................................#ccccagicccccagi",
"................................................Dccccbaecccccbae",
"................................................EEEEEEEEEEEEEEEE"};
