/* XPM */
static char *dummy[]={
"64 64 18 1",
"g c #007070",
"b c #007878",
"a c #007c7c",
"e c #008484",
"h c #008c8c",
"d c #009898",
"i c #00a4a4",
"c c #20b0b0",
"j c #20b4b4",
"# c #383838",
"o c #484848",
"k c #48c0c0",
"p c #545454",
"l c #74c8c8",
". c #980088",
"m c #9cdcdc",
"f c #b8e8e8",
"n c #d8f4f4",
"............................................................####",
"............................................................#abb",
"............................................................#cdd",
"............................................................#ccc",
"............................................................#ccc",
"............................................................#ccc",
"............................................................#ccc",
"............................................................#def",
"............................................................#age",
"............................................................#bah",
"............................................................#iic",
"............................................................#ccc",
"............................................................#ccc",
"............................................................#ccc",
"............................................................#ccc",
"............................................................#def",
"............................................................#age",
"............................................................#bah",
"............................................................#iic",
"............................................................#ccc",
"............................................................#ccc",
"............................................................#ccc",
"............................................................#ccc",
"............................................................#def",
"............................................................#age",
"............................................................#bah",
"............................................................#iic",
"............................................................#ccc",
"............................................................#ccj",
"............................................................#cjj",
"............................................................#jjj",
"............................................................#def",
"............................................................#age",
"............................................................#bah",
"............................................................#iik",
"............................................................#kll",
"............................................................#llm",
"............................................................#lmm",
"............................................................#mff",
"............................................................#ljf",
"............................................................#caj",
"............................................................#ccl",
"............................................................#llf",
"............................................................#nfm",
"............................................................#fmm",
"............................................................#mml",
"............................................................#mlk",
"............................................................#def",
"............................................................#age",
"............................................................#bah",
"............................................................#iik",
"............................................................#kkk",
"............................................................#kkj",
"............................................................#jjj",
"............................................................#jjj",
"............................................................#def",
"............................................................#age",
"............................................................#bah",
"............................................................#iic",
"............................................................#ccc",
"............................................................#ccc",
"............................................................#ccc",
"............................................................occc",
"............................................................pppp"};
