/* XPM */
static char *dummy[]={
"64 64 21 1",
"h c #004040",
"j c #005858",
"g c #007070",
"f c #007474",
"b c #007878",
"a c #007c7c",
"i c #008484",
"e c #008c8c",
"d c #009898",
"o c #00a4a4",
"c c #20b0b0",
"p c #20b4b4",
"# c #383838",
"r c #484848",
"m c #48c0c0",
"s c #545454",
"n c #74c8c8",
". c #980088",
"l c #9cdcdc",
"k c #b8e8e8",
"q c #d8f4f4",
".........................................................#######",
".........................................................#abbbbb",
".........................................................#cddefg",
".........................................................#ccccah",
".........................................................#ccccba",
".........................................................#ccccij",
".........................................................#ccccca",
".........................................................#dikclc",
".........................................................#agickm",
".........................................................#baeckn",
".........................................................#oocckn",
".........................................................#cccckn",
".........................................................#cccckn",
".........................................................#cccckn",
".........................................................#cccckn",
".........................................................#dikckn",
".........................................................#agickn",
".........................................................#baeckn",
".........................................................#oocckn",
".........................................................#cccckn",
".........................................................#cccckn",
".........................................................#cccckn",
".........................................................#cccckn",
".........................................................#dikckn",
".........................................................#agickn",
".........................................................#baeckn",
".........................................................#oocckn",
".........................................................#cccckn",
".........................................................#ccppkn",
".........................................................#cpppkn",
".........................................................#ppppkn",
".........................................................#dikpkn",
".........................................................#agipkc",
".........................................................#baemkd",
".........................................................#oomnnd",
".........................................................#mnnlpd",
".........................................................#nnllcd",
".........................................................#nllkcd",
".........................................................#lkkkcd",
".........................................................#npkqcd",
".........................................................#capkcd",
".........................................................#ccnkpd",
".........................................................#nnklpd",
".........................................................#qkllpd",
".........................................................#kllnpd",
".........................................................#llnnpd",
".........................................................#lnmmmc",
".........................................................#dikmkp",
".........................................................#agimkm",
".........................................................#baemkn",
".........................................................#oommkn",
".........................................................#mmmpkn",
".........................................................#mmppkn",
".........................................................#ppppkn",
".........................................................#ppppkn",
".........................................................#dikpkn",
".........................................................#agipkn",
".........................................................#baeckn",
".........................................................#oocckk",
".........................................................#cccccc",
".........................................................#ccccdi",
".........................................................#ccccag",
".........................................................rccccba",
".........................................................sssssss"};
