/* XPM */
static char *dummy[]={
"64 64 42 1",
"K c #000000",
"h c #004040",
"n c #005858",
"g c #007070",
"f c #007474",
"b c #007878",
"a c #007c7c",
"m c #008484",
"e c #008c8c",
"d c #009898",
"p c #00a4a4",
"N c #202020",
"c c #20b0b0",
"i c #20b4b4",
"B c #2c2c2c",
"# c #383838",
"G c #404000",
"H c #484848",
"j c #48c0c0",
"C c #545454",
"E c #585400",
"u c #646464",
"J c #706c00",
"v c #707070",
"k c #74c8c8",
"t c #7c7c7c",
"F c #848400",
"w c #8c8c8c",
". c #980088",
"x c #989898",
"M c #9c9c00",
"l c #9cdcdc",
"q c #a8a8a8",
"y c #b4ac00",
"D c #b4b4b4",
"o c #b8e8e8",
"s c #c0c0c0",
"I c #ccc400",
"r c #d0d0d0",
"L c #d8f4f4",
"z c #e4d800",
"A c #fcf400",
"........................########################################",
"........................#abbbbbbbbbbbbbbbbbbbbbbbbbbbbbbbbbbbbbb",
"........................#cddefgceeeeefgcdeeeefgceeeeefgceeeeefgc",
"........................#ccccahgcccccahgcccccahgcccccahgiijjcahg",
"........................#ccccbaecccccbaecccccbaecccccbaeijklcbae",
"........................#ccccmnnnnnnnnnnnnnnnnnnnnnnnnnnnnnnnnnn",
"........................#cccccabgggggggggggggggggggggggggggggggg",
"........................#dmoclceeeeeeeeeeeeeeeeeeeeeeeeeeeeeeeee",
"........................#agmcojpppppppppppppppppcccciiiiijijijij",
"........................#baecokpppppppppppppppccccciiiiijijijiji",
"........................#ppccokpppppppppppppccccciiiijijijijijii",
"........................#ccccokpppppppppppccccciiiiijijijijijiii",
"........................#ccccokppppppppcccccciiiijijijijijijiiii",
"........................#ccccokppppppcccccciiiiijijijijijijiiiic",
"........................#ccccokppppcccccciiiiiijijijijijijiiiicc",
"........................#dmocokppccccccciiiiiijijijijijijiiiiccc",
"........................#agmcokccccccciiiiijijijijijijijiiiicccc",
"........................#baecokccccciiiiiijijijijijijijiiiiciccc",
"........................#ppccokccciiiiiiijijijijijijijiiiicicccp",
"........................#ccccokciiiiiiiijijijijijijijiiiicicccpp",
"........................#ccccokiiiiiiiijijijijijijijijiicicccppp",
"........................#ccccokiiiiijijijijijijijijijiicicccpcpp",
"........................#ccccokiiiijijijijijijijijijiicicccpcppp",
"........................#dmocokiiijijijijijijijijijiicicccpcpppp",
"........................#agmcokiijijijijijijijijijiicicccpcppppp",
"........................#baecokijijijijijijijijijiicicccpcpppppd",
"........................#ppccokjijijijijijijijijiicicccccpppppdp",
"........................#ccccokijijijijqrrrrrrrsscicccccpppppdpd",
"........................#cciiokjijijijctuvvttwxqsicccccpppppdpdd",
"........................#ciiiokijyzAjcaBu#qvtCrxDcccccpppppdpddd",
"........................#iiiiokjbEFAipaBuuuvvttwDccccpcpppdpdddd",
"........................#dmoiokmfGFzkeaBuuuuvvttDcccpcpppppdddde",
"........................#agmiocmeGFzjeaBuuuuuvvtqccpcpppppdddded",
"........................#baejodmlGFzjeaBCHFIIAvvqcpcpppppddddede",
"........................#ppjkkdmkGFIjeaBHBJKKIuvqpcpppppdpddedee",
"........................#jkklidmkGFIjeaB#BJKKIuuqcpppppdpddedede",
"........................#kkllcdmkGFIjeaBBBEBBIuuqpppppdpddddedee",
"........................#kllocdmjGFyjeaBBBEEJFuuqppppdpddddedeem",
"........................#looocdmjGFyjeaBBBBBBBuuxpppdpddddedeeme",
"........................#kioLcdmjGFMjeaBBBBBBHuuxppdpddddedeeeem",
"........................#caiocdmefGJieaB##HHCuuuxpppddddedeeeeme",
"........................#cckoidmbbmiieaB#NvCuBwuwppdpddedeeeemem",
"........................#kkolidmmmiiieaBB#CCCuuuwpdpddededeememe",
"........................#LollidmeiiiceaBBBBBBBBBudpddddedeememem",
"........................#ollkiddiiiiceaaaaaaaaaadpddddedeeeememe",
"........................#llkkidiiiicceeeeeeeeeeppddddedeeeememem",
"........................#lkjjjciiicccccccpcpppppddddedeeeemememe",
"........................#dmojoiiicccccccpcpppppddddedeeeemememem",
"........................#agmjojicccccccpcpppppddddedeeeememememe",
"........................#baejokcccccccpcpcpppdpddededeememememem",
"........................#ppjjokccccccpcpcpppdpddededeeeememememe",
"........................#jjjiokcccccpcpcpppdpddddedeeeememememem",
"........................#jjiiokccccpcpcpppdpddddedeeeemememememe",
"........................#iiiiokcccpcpcpcpdpddddedeeeemememememee",
"........................#iiiiokccpcpcpcpppddddedeeeemememememeee",
"........................#dmoiokcccpcpcpppddddedeeeemeeememememee",
"........................#agmiokccpcpcpppddddedeeeeeeeememememeee",
"........................#baecokkkkkkkkkkkkkkkkkkjjjiicppppcijjjj",
"........................#ppccooooooooooooooooooollllkkjjjkklllll",
"........................#cccccccccccccppppddddddddemmaaaaameeddd",
"........................#ccccdmocccccdmopdddddgidemmabgdaameddgi",
"........................#ccccagmcccccagmdddddahgemmaaghnammedahg",
"........................Hccccbaecccccbaedddddbaeemmaaggbmmeddbae",
"........................CCCCCCCCCCCCCCCCCCCCCCCCCCCCCCCCCCCCCCCC"};
