/* XPM */
static char *dummy[]={
"64 64 30 1",
"h c #004040",
"j c #005858",
"g c #007070",
"f c #007474",
"b c #007878",
"a c #007c7c",
"i c #008484",
"e c #008c8c",
"d c #009898",
"n c #00a4a4",
"c c #20b0b0",
"p c #20b4b4",
"# c #383838",
"v c #404000",
"A c #484848",
"m c #48c0c0",
"B c #545454",
"t c #585400",
"z c #706c00",
"o c #74c8c8",
"u c #848400",
". c #980088",
"y c #9c9c00",
"l c #9cdcdc",
"q c #b4ac00",
"k c #b8e8e8",
"w c #ccc400",
"x c #d8f4f4",
"r c #e4d800",
"s c #fcf400",
"...................................................#############",
"...................................................#abbbbbbbbbbb",
"...................................................#cddefgceeeee",
"...................................................#ccccahgccccc",
"...................................................#ccccbaeccccc",
"...................................................#ccccijjjjjjj",
"...................................................#cccccabggggg",
"...................................................#dikclceeeeee",
"...................................................#agickmnnnnnn",
"...................................................#baeckonnnnnn",
"...................................................#nncckonnnnnn",
"...................................................#cccckonnnnnn",
"...................................................#cccckonnnnnn",
"...................................................#cccckonnnnnn",
"...................................................#cccckonnnncc",
"...................................................#dikckonncccc",
"...................................................#agickocccccc",
"...................................................#baeckocccccp",
"...................................................#nncckocccppp",
"...................................................#cccckocppppp",
"...................................................#cccckopppppp",
"...................................................#cccckopppppm",
"...................................................#cccckoppppmp",
"...................................................#dikckopppmpm",
"...................................................#agickoppmpmp",
"...................................................#baeckopmpmpm",
"...................................................#nncckompmpmp",
"...................................................#cccckopmpmpm",
"...................................................#ccppkompmpmp",
"...................................................#cpppkopmqrsm",
"...................................................#ppppkombtusp",
"...................................................#dikpkoifvuro",
"...................................................#agipkcievurm",
"...................................................#baemkdilvurm",
"...................................................#nnmoodiovuwm",
"...................................................#moolpdiovuwm",
"...................................................#oollcdiovuwm",
"...................................................#ollkcdimvuqm",
"...................................................#lkkkcdimvuqm",
"...................................................#opkxcdimvuym",
"...................................................#capkcdiefvzp",
"...................................................#ccokpdibbipp",
"...................................................#ooklpdiiippp",
"...................................................#xkllpdiepppc",
"...................................................#kllopddppppc",
"...................................................#lloopdppppcc",
"...................................................#lommmcpppccc",
"...................................................#dikmkpppcccc",
"...................................................#agimkmpccccc",
"...................................................#baemkocccccc",
"...................................................#nnmmkocccccc",
"...................................................#mmmpkocccccn",
"...................................................#mmppkoccccnc",
"...................................................#ppppkocccncn",
"...................................................#ppppkoccncnc",
"...................................................#dikpkocccncn",
"...................................................#agipkoccncnc",
"...................................................#baeckooooooo",
"...................................................#nncckkkkkkkk",
"...................................................#cccccccccccc",
"...................................................#ccccdikccccc",
"...................................................#ccccagiccccc",
"...................................................Accccbaeccccc",
"...................................................BBBBBBBBBBBBB"};
