/* XPM */
static char *dummy[]={
"64 64 57 1",
"# c #000000",
"w c #1c1c1c",
"b c #202020",
"1 c #28200c",
". c #2c2c2c",
"y c #382c14",
"g c #383838",
"U c #400000",
"t c #403018",
"d c #484848",
"X c #4c0000",
"u c #543c1c",
"a c #545454",
"S c #580000",
"i c #5c4020",
"O c #640000",
"h c #646464",
"E c #6c4824",
"f c #707070",
"m c #744c28",
"Z c #7c0000",
"c c #7c7c7c",
"n c #80502c",
"M c #880000",
"j c #885830",
"e c #8c8c8c",
"q c #905c34",
"V c #980000",
"A c #9c4c00",
"G c #9c9c00",
"x c #a0643c",
"N c #a40000",
"s c #a86840",
"R c #b00000",
"H c #b47044",
"0 c #b4b4b4",
"P c #bc0000",
"r c #bc7848",
"Q c #c0c0c0",
"J c #c80000",
"B c #cc6000",
"W c #d40000",
"K c #e00000",
"l c #e46c00",
"k c #e4d800",
"T c #ec0000",
"L c #fc0000",
"Y c #fc2020",
"I c #fc4040",
"o c #fc7800",
"F c #fc8820",
"z c #fc9840",
"C c #fc9c60",
"v c #fca85c",
"D c #fcb080",
"2 c #fcf400",
"p c #fcfc7c",
"................................................................",
"#aaaaaaaaaa.#.........bacccccccccccccccccadbb..........eeeeeeeee",
".eeeeeeecad.#....dfeefbafeeeeeeeeeeeeeeecdgbeeecdb.....eeffffffd",
".eeffaadd.##...bdeeffadbacefffffffffffffagbceeeecdbb....aaaaaaad",
".efaaad.##..ddhbecffffdbdcefaaaaaaaaaaaadgaefffchh#aab..gdaaaaad",
".efaad.##.gaceefb.dfaadd#dchaaaaaaaaaaaagbcfaaaf.#aeca.b.ddaaaad",
".eaad.##.gheeccedb.daaadbdffaaaaaaaaaaadgaeaaaa.#aecaaa.b.ddaaad",
".eadd##.gheccaaaed#.daadd#dfdddddddddddgbcfaaa.#aecaaaaa.#bddaad",
".ead.#..hecfaaaaacd#.ddddb..............#hhaa.#aecaaaaaag.#b.ddd",
".edd##...aeaaaaaaacd#.....##############...hd#aecaaaaaaaa..#b.##",
"gdd.#.heb.aafaaaaadfd#.####################.#aecaaaaaaaa.###bb..",
"d..#.hecebb.aaaaadag..######################..dcaaaaaa.##hhdbb..",
"a.b..ecccef#.gadda##############################caaag##afcchdbb.",
"a...hcfaacefd#.gg.###############################cg.#dfecaaaagbb",
"d..gecaaaaaeef##.################################.##feefaaaahdbb",
"g..decaaaaaacea####################################aeefaaaaaadbb",
"g..hecaaaaaada.##########################ij#######.dcefaaaaaad.b",
"...hecaaaaaad.#######jkklm####nokpjn####mlkq#######.fefhaaaaaagb",
"...h..addddda.######lkrst####noklut#n####jjkj######.dechaaddd..b",
"b.bbbb#....d.######lkrs######uvvkjvkln#####jkj######ddd...#####w",
"b.heehadg.#########krs#######uxpjxtt#n##t###oo##########ahcccfaw",
"b.heccceeef.######lkr####nn###okxmt#####t###jkjy######feeecfhhdw",
"b.hefaaaaafa######kls####q####oljjjm####t##ymoky####.dfeffaaaa.w",
"b.hefaaaaaad######kju####uzttuzkkvvjm##nt#yymoky####.dfefaaaad.w",
"b.hefaaaaadg######kqu####njzkpkkkkkzmtxt##yymoky####.dfefaaaad.w",
"b.hefaaaaad.######kqn#####njppkkkkkzmt####yymoky####.dfcfddddd.w",
"b.headddddd.######kqy#y####tjplzzzzlmt####yymoky####.dad.......w",
"b.aa........######kqy#y#####uzlzzzzAt#####yumoky###############w",
"b.bbbb############kqy##t####uzlBBBBAA#####uuAoky####.dfeeeeeecaw",
"b.heeeeeeeca######kqy#t#####ulAAAAAmA######AAoky####.dfefffffadw",
"b.heffffffd.######kju#n#####uoAuuumAm####yAAroky####.dfefaaaaa.w",
"b.hefaaaaad.######lku#n#####ulAtuuAAA####uArCoDy###b.dfefaaaad.w",
"b.hefaaaaad.#######ku#nt####ujA#ttEAA#####rrokmy###bbdfefaaaad.w",
"b.hefaaaaad.#######kjttn####joA###uAl#####rCok#####bgdfefaaaad.w",
"b.hefaaaaad.#######lku#t####joA####lF#####Coor#####bgdfcfadddd.w",
"b.headddddd.########lqtt####tvA####lk#####ook#######.gad.......w",
"b.aa........########lju#####tkA###tlk#####okm##################w",
"b.bbbb##############ylutt##ukkktttkpkku###km#######bgdceeeeeecaw",
"b.heeeeeeeca##########uu###ktkkGlpllktl###m########bgdfeffffffdw",
"b.heffffffa.#############HlIIJIJJJJlJlJ###########wbgdfefaaaaa.w",
"b.hefaaaaad.############KIILJJJJJJJJJJJM##########w.gdfefaaaad.w",
"b.hefaaaaad.###########KILJNMOOOOOOMNJJJM#########w.gdfefaaaad.w",
"b.hefaaaaad.##########KILJMOOO#####OOMJJJM########w.gdfefaaaad.w",
"b.headddddd.#########PILJMQQf##QQQQQQQfJJRS#######wbgdfefaaaad.w",
"b.aa........#########TIJNOQcb##QccccccbMJJMU#######bgdfcfadddd.w",
"b.bbbbb#############VILJMOQcb##QcbbbbbbOWJNO########.gad.......w",
"b.heeeeeeeca########PIJNOXQcb##Qcb#####OKJJOU##################w",
"b.heffffffa.########WLJNO#Qcb##Qcb######YJJZU######bgdfeeeeeecaw",
"b.hefaaaaad.########WLJMO#QcQQQQce0000f#YJJMU######bgdfefffffadw",
"b.headddddd.########WLJMO#Qcccccccccccb#IJJVU######bgdfefaaaaa.w",
"b.aa........########RTJMO#fbbbbecbbbecb#IJJMU######bgdfefadddd.w",
"b.bbbb##############RKJNO######Qcb##Qcb#IJJZU#######.gad.......w",
"b.heeeeeeeca########OKJNOX#####Qcb##QcbOYJJO###################w",
"b.heffffffa.#########PKJZOQQQQQQcb##QcbMRJVO#######bgdfeeeeeecaw",
"b.hefaaaaad.#########OJJROQccccccb##QcbNJJOU#######bgdfefffffadw",
"b.hefaaaaad.##########NJJNfbbbbbbb##fbbJJVO########bgdfefaaaad.w",
"b.headddddd.###########VJJNOOO#####OOOJJJO#########bgdfefaaaad.w",
"b.aa........#########1y#VJJWWJJJJJJJLTJJO#y1#######bgdfeaddddd.w",
"b.bbbb###############1yy#VJJKKTTLLLTJJVO#yy1########.gad.......w",
"b.ceeeeeeeca########1yyyy##VVJJJJJJJVV#yyyyy1##################w",
"b.ceaaaaaaa.####22vvvvvvvvliiiiiiiiiiilvvvvvvvvA###bgdceeeeeecaw",
"b.ceadddddd.####2llllllllllllllllllllllllllllllE###bgdcefaaddddw",
"b.aa........b#b.vEEEEEEEEEEEEEEEEEEEEEEEEEEEEEEEg.b#.gad........",
"ddddddddddddbb.gdahhffffffffffffffffffffffffffhhhad.dddddddddddd"};
