/* XPM */
static char *dummy[]={
"64 64 46 1",
"k c #000000",
"Q c #2c2c2c",
"w c #383838",
"H c #484848",
"h c #543c1c",
"P c #545454",
"O c #585400",
"K c #5c4020",
"p c #640000",
"B c #646464",
"N c #706c00",
"m c #7c0000",
"v c #7c7c7c",
"b c #848400",
"G c #8c8c8c",
"C c #980000",
". c #980088",
"A c #989898",
"R c #9c9c00",
"q c #a40000",
"J c #a80000",
"g c #a86840",
"z c #a8a8a8",
"d c #b4ac00",
"E c #b4b4b4",
"l c #bc0000",
"u c #c0c0c0",
"a c #ccc400",
"s c #d0d0d0",
"D c #d40000",
"t c #dcdcdc",
"M c #e4d800",
"L c #e88c58",
"j c #ec0000",
"x c #ececec",
"f c #f0945c",
"n c #fc2020",
"o c #fc4040",
"I c #fc5454",
"i c #fc5c5c",
"F c #fc7c7c",
"r c #fc9c9c",
"e c #fcf400",
"c c #fcfc7c",
"# c #fcfcb8",
"y c #fcfcfc",
"................................................................",
"................................................................",
"................................................................",
"................................#...............................",
"...............................a#b..............................",
"...............................acb..............................",
"..............................accab.............................",
"..............................accab.............................",
"...............................adb..............................",
"...............................aeb..............................",
"...............................aeb..............................",
"...............................fgh..............................",
"...............................fgh..............................",
"...............................fhh..............................",
"...............................ijk..............................",
"...............................ijlm.............................",
"...............................ijlm.............................",
"...............................ijlm.............................",
"..............................nijlm.............................",
"..............................nojlm.............................",
"..............................nojlpk............................",
"..............................nojqpk............................",
"..............................iojqmp............................",
"..............................iilqmp............................",
"..............................rstuvw............................",
".............................ruxtuvw............................",
".............................ssyzwwwp...........................",
".............................syyAqmpp...........................",
".............................rtyBqmpp...........................",
".............................ittBqmpp...........................",
"............................nittBqmpp...........................",
"............................nrttBCmpp...........................",
"............................izysDCmpp...........................",
"............................rtyuDCmpp...........................",
"............................syyElCmppp..........................",
"............................syyElCmppp..........................",
"...........................nrtyAlCmppp..........................",
"...........................nFuyAlCmppp..........................",
"...........................noutzlCmppp..........................",
"...........................nortzlCmppk..........................",
"...........................nortzlCmpm...........................",
"...........................noFuzlCmpm...........................",
"...........................noFGzHCmpm...........................",
"...........................noIvzBCmpm...........................",
"...........................noIHzHCpmm...........................",
"...........................noIJHpKmmm...........................",
"...........................noDppgKmmm...........................",
"...........................nDmJLgKmmm...........................",
"...........................npCJLgKCmm...........................",
"...........................npCCLgKCmm...........................",
"............................kCCLgKCmm...........................",
"..............................mLgKCm............................",
"...............................LgKCm............................",
"...............................LgKC.............................",
"...............................LgKC.............................",
"...............................LgKC.............................",
"...............................LgK..............................",
"...............................LgK..............................",
"...............................LgK..............................",
"...............................#eb..............................",
"............................Mc##MbNNNb..........................",
".........................Mec##eeeadbOONNOHHHHHHPPPPPPPPPBBBB....",
"........................Mec##eeeMaadbOOONOQQQwwwwwHHHPPPPPPBBB..",
"..........................ddddRRRRbbbNOOHHHHHHHPPPPPPPPBBBBB...."};
