/* XPM */
static char *dummy[]={
"64 64 29 1",
"y c #000000",
"z c #202020",
"A c #2c2c2c",
"w c #383838",
"x c #484848",
"v c #545454",
"s c #646464",
"u c #707070",
"t c #7c7c7c",
"q c #8c8c8c",
". c #980088",
"r c #989898",
"p c #a8a8a8",
"j c #b45400",
"m c #b4b4b4",
"n c #c0c0c0",
"o c #d0d0d0",
"k c #dcdcdc",
"g c #e4d800",
"l c #ececec",
"i c #fc7800",
"h c #fca85c",
"e c #fcf400",
"d c #fcf85c",
"c c #fcfc54",
"f c #fcfc7c",
"b c #fcfc9c",
"a c #fcfcb8",
"# c #fcfcfc",
"................................................................",
"................................................................",
"................................................................",
"................................................................",
"................................................................",
"................................................................",
"................................................................",
"................................................................",
"................................................................",
"................................................................",
"................................................................",
"................................................................",
"................................................................",
"................................................................",
"................................................................",
"................................................................",
"................................................................",
"................................................................",
"................................................................",
"................................................................",
"................................................................",
"................................................................",
"................................................................",
"................................................................",
"................................................................",
"................................................................",
"................................................................",
"................................................................",
"................................................................",
"................................................................",
"................................................................",
"................................................................",
"................................................................",
"................................................................",
"................................................................",
"................................................................",
"................................................................",
"...............................#a...............................",
".......................#abc...#ade...#bbfe......................",
"..........................g..chiiij..b..........................",
".....................k####################k.....................",
"....................klmmmnnooooooookkkkkkl#n....................",
"....................k#opqqrpmmmmmmmmoookl#ln....................",
".....................k##################lkn.....................",
".....................molkkkkkooonnnmmpprrrs.....................",
"......................mnokoonnmmppprrqttts......................",
"........................mnnnnmmppprrqttss.......................",
"...........................ppppprqqtssu.........................",
".............................rqqtuvv............................",
".............................pppqtuv............................",
".............................nknpquv............................",
".............................nlknqtv............................",
".............................nl#kptv............................",
".............................nl#kptv............................",
".............................nl#kptv............................",
".............................nl#kptv............................",
".............................nl#kptv............................",
".............................nl#kptv............................",
".............................n###mqv............................",
"..........................rnl####kpuvv..........................",
".........................rkl#####kmruuvvvvvvvvvvvvvvvvvvvvs.....",
".......................nnkkkkkkknnppttuuvvwwwwwwwwwwwxxxxvvvss..",
".......................k#########kknnpprqsyzzzzzAAAwwxxxxxvvvs..",
".......................qqqqqqqqquuuuuuuuusxxxxxxxxxxxxvvvvvss..."};
