/* XPM */
static char *dummy[]={
"64 64 36 1",
"k c #000000",
"n c #004343",
"o c #010001",
"a c #1f1f1f",
"d c #232323",
"h c #2f2f2f",
"H c #333333",
"C c #373737",
"z c #3b2f17",
"l c #3b3b3b",
"G c #43331b",
"b c #434343",
"c c #4b4b4b",
"y c #573f1f",
"B c #575757",
"i c #5b5b5b",
"A c #5f4323",
"g c #676767",
"x c #6f4b27",
"# c #737373",
"E c #774f2b",
"f c #7b7b7b",
"j c #7f7f7f",
"w c #83532f",
"F c #8b5b33",
"D c #935f37",
". c #980088",
"v c #9f633b",
"u c #a3673f",
"t c #ab6b43",
"e c #ababab",
"s c #b77347",
"m c #b7b7b7",
"r c #bf7b4b",
"q c #cb7f4f",
"p c #d38353",
"................................................................",
"................................................................",
"................................................................",
"................................................................",
"................................................................",
"................................................................",
"................................................................",
"................................................................",
"................................................................",
"................................................................",
"................................................................",
"................................................................",
"................................................................",
"................................................................",
"................................................................",
"................................................................",
"................................................................",
"................................................................",
"................................................................",
"................................................................",
"...........#a.............#a.............#a.....................",
".........bc#a...........bc#a...........bc#a.....................",
"..........b#a............b#a............b#a.....................",
"...........#cd............#cd............#cd....................",
"...........efd............efd............efd....................",
"...........#a.............#a.............#a.....................",
"...........#a.............#a.............#a.....................",
"...........#a.............#a.............#a.....................",
"...........#a.............#a.............#a.....................",
"...........#a.............#a.............#a.....................",
"...........efg............efg............efg....................",
"...........fbd............fbd............fbd....................",
"...........ddhh...........ddhh...........ddhh...................",
"...........dddcd..........dddcd..........dddcd..................",
"...........ifaccd.........ifaccd.........ifaccd.................",
"...........ifacca.........ifacca.........ifacca.................",
"...........ijakka.........ijakka.........ijakka.................",
"...........#clkaa.........#clkaa.........#clkaa.................",
"...........mfdhan.........mfdhan.........mfdhan.................",
"...........mfao...........mfao...........mfao...................",
"...........mfacd..........mfacd..........mfacd..................",
".......ppppmfacaqqqqqqqqqqmfacarrssssssssmfacassssssssssss......",
"......rttttmfacattttttttuumfacauvvvvvvvvvmfacavvvvvvvvvvvv......",
"......wwwwdmfacawwwwwwwwwdmfacawwwwwwwwwdmfacaxxxxxxxxxxxx......",
"..........cdfaca.....yz..cdfaca....yz...cdfaca...yz..wA.........",
"..........Bdfaca.....wy..Bdfaca....wy...Bdfaca...wy..wA.........",
"..........idfacadC...DA..idfacadC..DA...idfacadC.DA..wA.........",
"..........jhfack.b...sA..jhfack.b..sA...jhfack.b.sA..DA.........",
"..........tmfack.b...sE...mfack.b..sE....mfack.b.sE..Dx.........",
"..........tmfackkd...sE...mfackkd..sE....mfackkd.sE..Dx.........",
"..........tmfackddn..sE...mfackddn.sE....mfackddnsE..Dx.........",
"..........tmfackakan.sE...mfackakansE....mfackakanE..Dx.........",
"..........tcfaCkakkannE...cfaCkakkann....cfaCkakkann.Dx.........",
"..........tiCickaakkadE...iCickaakkad....iCickaakkad.Dx.........",
"..........ti#iacdkkakdE...i#iacdkkakd....i#iacdkkakd.Dx.........",
"..........tECjgnbakkkhE....Cjgnbakkkh.....Cjgnbakkkh.Dx.........",
"..........tE..sE.ndkdsE.....sE..ndkdE.....sE...ndkd..Dx.........",
"..........tE..sE..nn.sE.....sE...nnsE.....sE....nnE..Dx.........",
"..........tE..wy.....wy.....wy.....wy.....wy.....wy..Dx.........",
".......pppppqqqqqqqqrrrrrrrrrssssssssssssssssssssssssssss.......",
".......rFFFFFFFFFFFFFFFFFFFFFFFFFFFFFFFFFFFFFFFFFFFFFFFFw.......",
".......wwwwwwwwwwwwwwwwwwwwwwwwwwwwwwwwwwxxxxxxxxxxxxxxxx.......",
"...........AAAAAyyyyyyyyyyyyyyyyyyyyyyyyyyyyyyyyyAGGGGbbbbbbbb..",
"..........wwExAAhhhhhhhhhhhhhhhhhhhhhhhhhhhhhhhhhhxxwwxhhhHhhlb."};
