/* XPM */
static char * E1_xpm[] = {
"64 64 6 1",
" 	c #CDC087",
".	c #4D4D4D",
"+	c #000000",
"@	c #9E9E9E",
"#	c #E7E7E7",
"$	c #909090",
"                                                                ",
"                                                                ",
"                                                                ",
"                                                                ",
"                                                                ",
"                                                                ",
"                                                                ",
"                                                                ",
"                                                                ",
"                                                                ",
"                                                                ",
"                                                                ",
"                                                                ",
"                                                                ",
"       .+++++++++++++++++++++++++++@                            ",
"       .+++++++++++++++++++++++++++@                            ",
"       .+++++++++++++++++++++++++++@                            ",
"       .+++++++++++++++++++++++++++@                            ",
"       .+++++++++++++++++++++++++++@                            ",
"       .+++++#                                                  ",
"       .+++++#                                                  ",
"       .+++++#                                                  ",
"       .+++++#                                                  ",
"       .+++++#                                                  ",
"       .+++++#                                                  ",
"       .+++++#                                                  ",
"       .+++++#                                                  ",
"       .+++++#                                                  ",
"       .+++++#                                                  ",
"       .+++++#                                                  ",
"       .+++++#                                                  ",
"       .+++++#                                                  ",
"       .++++++++++++++++++++++++++$                             ",
"       .++++++++++++++++++++++++++$                             ",
"       .++++++++++++++++++++++++++$                             ",
"       .++++++++++++++++++++++++++$                             ",
"       .++++++++++++++++++++++++++$                             ",
"       .+++++#                                                  ",
"       .+++++#                                                  ",
"       .+++++#                                                  ",
"       .+++++#                                                  ",
"       .+++++#                                                  ",
"       .+++++#                                                  ",
"       .+++++#                                                  ",
"       .+++++#                                                  ",
"       .+++++#                                                  ",
"       .+++++#                                                  ",
"       .+++++#                                                  ",
"       .+++++#                                                  ",
"       .+++++#                                                  ",
"       .+++++#                                                  ",
"       .+++++#                                                  ",
"       .+++++#                                                  ",
"       .+++++#                                                  ",
"       .++++++++++++++++++++++++++++#                           ",
"       .++++++++++++++++++++++++++++#                           ",
"       .++++++++++++++++++++++++++++#                           ",
"       .++++++++++++++++++++++++++++#                           ",
"       .++++++++++++++++++++++++++++#                           ",
"                                                                ",
"                                                                ",
"                                                                ",
"                                                                ",
"                                                                "};
