/* XPM */
static char * north2_xpm[] = {
"64 64 121 2",
"  	c #491D13",
". 	c #3C1911",
"+ 	c #401A12",
"@ 	c #441B12",
"# 	c #65281A",
"$ 	c #7A311F",
"% 	c #923926",
"& 	c #280A05",
"* 	c #000000",
"= 	c #260D08",
"- 	c #3D150C",
"; 	c #7C2F1F",
"> 	c #200803",
", 	c #030100",
"' 	c #3F1910",
") 	c #4B1B0F",
"! 	c #2B0E08",
"~ 	c #672819",
"{ 	c #010000",
"] 	c #5C2417",
"^ 	c #190503",
"/ 	c #37120A",
"( 	c #552115",
"_ 	c #0E0302",
": 	c #40180F",
"< 	c #39150E",
"[ 	c #0C0302",
"} 	c #1E0805",
"| 	c #270D07",
"1 	c #3D170E",
"2 	c #0F0302",
"3 	c #270B05",
"4 	c #7B2F1F",
"5 	c #5A2014",
"6 	c #602516",
"7 	c #331008",
"8 	c #913926",
"9 	c #78301E",
"0 	c #321007",
"a 	c #622617",
"b 	c #79311F",
"c 	c #662818",
"d 	c #2B0C05",
"e 	c #79301F",
"f 	c #0B0201",
"g 	c #3A130A",
"h 	c #5D2415",
"i 	c #64281A",
"j 	c #582216",
"k 	c #220804",
"l 	c #8F3725",
"m 	c #3F1A12",
"n 	c #250B06",
"o 	c #33120B",
"p 	c #481D13",
"q 	c #421910",
"r 	c #0A0201",
"s 	c #461B12",
"t 	c #3C150C",
"u 	c #632417",
"v 	c #5E2518",
"w 	c #080101",
"x 	c #0E0201",
"y 	c #732E1D",
"z 	c #41170E",
"A 	c #4C1C10",
"B 	c #602618",
"C 	c #170402",
"D 	c #050100",
"E 	c #702C1C",
"F 	c #562013",
"G 	c #38130A",
"H 	c #622719",
"I 	c #180502",
"J 	c #592216",
"K 	c #2B100A",
"L 	c #220A05",
"M 	c #220B07",
"N 	c #481C13",
"O 	c #110402",
"P 	c #3D170F",
"Q 	c #742C1C",
"R 	c #351108",
"S 	c #3C130A",
"T 	c #632617",
"U 	c #7A2E1E",
"V 	c #2C0D06",
"W 	c #1F0804",
"X 	c #5E2416",
"Y 	c #33140D",
"Z 	c #1B0603",
"` 	c #632719",
" .	c #1D0905",
"..	c #491B10",
"+.	c #39170F",
"@.	c #090201",
"#.	c #461C12",
"$.	c #290D07",
"%.	c #2C0F09",
"&.	c #883523",
"*.	c #060101",
"=.	c #451B11",
"-.	c #4F1D11",
";.	c #742E1D",
">.	c #140402",
",.	c #030000",
"'.	c #5D2417",
").	c #552013",
"!.	c #39130B",
"~.	c #762F1E",
"{.	c #1E0703",
"].	c #5A2316",
"^.	c #5B2215",
"/.	c #321008",
"(.	c #150402",
"_.	c #38150D",
":.	c #3A120A",
"<.	c #652718",
"[.	c #381209",
"}.	c #572115",
"|.	c #331109",
"    . .     +   @ .     @     + @     +     @ .   + @     +     +     . @     @     .   @     + @     + @   @       @     +     ",
"  # $ $ $ % % % % % % % % % %     # $ $ $ % % % % % % % % % % @   $ $ % % % % % % % % % % % %     $ $ $ $ $ $ $ % % % % % % % @ ",
"@ # $ $ $ $ $ $ % $ $ $ % % % @   # $ $ $ $ $ $ % $ $ $ % % %     $ $ $ $ $ $ $ % % $ $ $ % % @   $ $ $ $ $ $ $ $ % $ $ % % %   ",
"  # # $ $ $ $ $ $ $ $ $ $ % %   . # $ $ $ $ $ $ $ % $ $ $ % %   + # $ $ $ $ $ $ % $ $ $ $ $ %     # $ $ $ $ $ $ $ $ $ $ $ % %   ",
"+ # # $ $ $ $ $ $ $ $ $ $ $ %   @ # # $ $ $ $ $ $ $ $ $ $ $ % .   # $ $ $ $ $ $ $ $ $ $ $ $ % +   # $ $ $ $ $ $ $ $ $ $ $ $ % . ",
"  # # # # # # # $ $ $ $ $ $ $ .   # # # # # # # $ $ $ $ $ $ %   . # # # # # # $ $ $ $ $ $ $ $   + # # # $ $ $ $ $ $ $ $ $ $ %   ",
"  # # # # # # # # # # # # # #   + # # # # # # # # # # # # # # +   # # # # # # # # # # # $ $ $     # # # # # # # # $ $ $ $ $ %   ",
"+ @     +     @     .   +     +     .     +   @     . .       @ +     @ +     @ @   . +     . + @   .   +   @ @     . .     + @ ",
".       @ .   . @       + + @       . .       @ @ .       + @     @ .     + @   @       @     + .     @ @     . @ .         @ . ",
"% % % % % % %   + $ $ $ $ $ $ $ % % % % % % %     $ $ $ % % % % % % % % % % %     # $ $ $ $ $ % % % % % % % %     # $ $ $ $ $ % ",
"$ $ $ $ $ % %     $ $ $ $ $ % & * * * * * * * =   # $ $ $ $ $ $ $ % % % % % % .   # # - * * * * * ; $ $ % % %   + # # $ $ $ $ $ ",
"$ $ $ $ $ $ %     # $ $ $ $ $ > * * * * * * * , ' # $ $ $ $ $ $ $ $ $ $ % % %   . # # ) * * * * * ; $ $ $ $ % . @ # # $ $ $ $ $ ",
"$ $ $ $ $ % %     # $ $ $ $ $ > * * * * * * * * ! # # # # $ $ $ $ $ $ $ $ $ %   @ # $ ) * * * * * ~ $ $ $ $ % @   # # $ $ $ $ $ ",
"# # $ $ $ $ $ @ + # # # # # $ > * * * * * * * * { ] # # # # # # # # $ $ $ $ % +   # $ ) * * * * * ~ $ $ # # $     # $ $ $ # # # ",
"# # # # # # #   + # # # # # # ^ * * * * * * * * * / # # # # # # # # # # # # #     # # - * * * * * ( # # # # # + + # # # # # # # ",
".         . @ + @ .         + _ * * * * * * * * * * : + .     @       @       @ @ +   ! * * * * * <   + +     + @ .         + @ ",
"+ .     @       @     @ @     [ * * * * * * * * * * }       @ + + . .       +       . | * * * * * 1     @ +     + +   . .     + ",
". $ $ % % % % % % % % % % % % 2 * * * * * 3 * * * * * 4 % % %   . # $ $ $ % % % % % % 5 * * * * * ( $ $ $ % % % % % % % % % %   ",
"  $ $ $ $ $ $ $ % % $ $ $ % % 2 * * * * * 6 * * * * * 7 8 % %     # $ $ $ $ $ $ % $ $ ) * * * * * ( $ $ $ $ $ $ % $ $ $ % % % + ",
"  # $ $ $ $ $ $ % $ $ $ $ $ % [ * * * * * 9 0 * * * * * a % % +   # # $ $ $ $ $ $ $ $ ) * * * * * ( $ $ $ $ $ $ $ % $ $ $ % %   ",
"+ # $ $ $ $ $ $ $ $ $ $ $ $ % 2 * * * * * b c * * * * * d e %   + # # $ $ $ $ $ $ $ $ ) * * * * * ( # $ $ $ $ $ $ $ $ $ $ $ %   ",
"  # # # # # # $ $ $ $ $ $ $ $ f * * * * * b $ g * * * * * h %   . # # # # # # # $ $ $ ) * * * * * ( # # # # # # $ $ $ $ $ $ % . ",
". # # # # # # # # # # # $ $ $ f * * * * * i # j * * * * * k l +   # # # # # # # # # # - * * * * * ( # # # # # # # # # # # # #   ",
"+     @   @     @     + +   . 2 * * * * * m @   n * * * * * o @ + @     + @     @ .   ! * * * * * 1 .   + +     +     . @     @ ",
"  @ +   @     . @ .     +     f * * * * * p   @ q { * * * * r s +     . +     @ @   + ! * * * * * 1   @     + . @ .     +   @   ",
"% % % % % % %   + # $ $ $ $ $ & * * * * * 8 %     t * * * * * u % % % % % % % .   $ $ ) * * * * * ; % % % % % +   $ $ $ % % % % ",
"$ % % % % % % .   # # # $ $ $ > * * * * * 8 % +   v w * * * * x y $ $ $ $ % %   + $ $ ) * * * * * ; % % % % %     # $ $ $ $ $ $ ",
"$ $ $ $ % % % . . # # $ $ $ $ > * * * * * b %   @ # z * * * * * A $ $ $ $ $ %   @ # $ ) * * * * * ; $ $ $ % %   @ # $ $ $ $ $ $ ",
"$ $ $ $ $ $ %     # $ $ $ $ $ > * * * * * b %   . # B C * * * * D E $ $ $ % % @   # $ ) * * * * * ; $ $ $ $ % @   # # # # $ $ $ ",
"# # $ $ $ $ % +   # $ $ # # # ^ * * * * * i $ @   # $ F * * * * * G $ $ $ $ $   + # # - * * * * * ~ $ $ $ $ %   + # # # # # # # ",
"# # # # # # #   + # # # # # # ^ * * * * * i #     # # H I * * * * * J # # # #     # # - * * * * * ( $ $ $ $ $     # # # # # # # ",
".     + +   @ + @     + . .   _ * * * * * p   @ @ .     K * * * * * L     .   @ @     M * * * * * 1 +     .   +   . @   .     @ ",
"  . .     + +   @   . @     + 2 * * * * * p @ .   + @   N O * * * * * P @     @     . | * * * * * <     @ +     + +       + @ + ",
". # % % % % % % % % % % % % % f * * * * * 8 % % % % % % % Q * * * * * R 8 % % % % % % 5 * * * * * ~ $ $ $ $ $ $ % % % % % % %   ",
"@ # $ $ % $ $ $ $ $ $ $ % % % 2 * * * * * b $ $ $ $ $ $ $ 8 S * * * * * T % % % $ $ $ ) * * * * * ~ $ $ $ $ $ $ $ $ $ % $ % %   ",
"  # # $ $ $ $ $ $ $ $ $ $ $ % 2 * * * * * b $ $ $ $ $ $ $ $ U * * * * * V e $ $ $ $ $ ) * * * * * ( $ $ $ $ $ $ $ $ $ % $ $ % + ",
"  # # $ $ $ $ # $ $ $ $ $ $ % [ * * * * * b $ $ $ $ $ # $ $ % W * * * * * X $ $ $ $ $ - * * * * * ( $ $ $ $ $ $ $ $ $ $ $ $ %   ",
". # # # $ $ $ $ # $ $ $ $ $ % 2 * * * * * b $ $ $ $ # # $ $ $ Y * * * * * Z ` # $ $ # - * * * * * ( # $ $ $ $ $ $ # # $ $ $ $   ",
"  # # # # # # # # # # # # % % 2 * * * * * i # # # # # # # # #    .* * * * * ..# # # # - * * * * * ( # # # # # # # # $ $ $ $ $ + ",
"+     @   @ +     . .     @   [ * * * * * p @   +     .     +   +.{ * * * * @.#.  .   ! * * * * * 1 .   +     @ +     .     + @ ",
"  @   @ @     . @ .     + + @ 2 * * * * * m @ @ @ .     +     . + $.* * * * * %.@ @   ! * * * * * <     @   + . @ . @     + @   ",
"% % % % % % % +   # % % % % % & * * * * * 8 %   + $ $ $ % % % % % &.x * * * * *.=.$ $ ) * * * * * ; % % % % %     # $ $ $ % % % ",
"$ $ $ % % % %     # $ $ $ $ % & * * * * * 8 %     # $ $ $ $ % % % % -.* * * * * = $ $ ) * * * * * ; $ $ $ % %   + # $ $ $ $ % $ ",
"$ $ $ $ $ $ %   . # # $ $ $ $ > * * * * * 8 % . @ # $ $ $ $ $ $ $ $ ;.>.* * * * ,.'.$ ) * * * * * ~ $ $ $ $ % .   # # $ $ $ $ $ ",
"$ $ $ $ $ $ % @   # # # $ $ $ > * * * * * 8 %   . # $ $ $ $ $ $ # # $ ).* * * * * !.$ ) * * * * * ~ $ $ $ $ $   . # # $ $ $ $ $ ",
"$ $ $ # $ $ $ +   # # # # # # > * * * * * i %     # # # # # $ # $ $ $ ~.{.* * * * * ].- * * * * * ( # $ $ % %   + # # # $ $ $ $ ",
"# # # # # $ $   + # # # # # # ^ * * * * * i # + + # # # # # # # # # # # ^.* * * * * /.- * * * * * ( $ $ $ $ $ +   # # # # # # # ",
"  @         @   @ .       . + 2 * * * * * . + @ @     +     + @     +   N 2 * * * * * (.* * * * * 1 +   +     + @     + .   +   ",
"+ .   .   + +     . .   @ +   2 * * * * * m     + +     . +   + +   .   @ _.* * * * * * * * * * * <     @ +     + +     . +   + ",
". $ $ $ % % % % % % % % % % % f * * * * * b $ $ % % % % % % %     # % % % 8 :.* * * * * * * * * * ( $ $ $ % % % % % % % % % %   ",
"  # $ $ $ % % % $ $ $ $ % % % 2 * * * * * b $ $ $ $ $ % $ % % +   # $ $ % $ <.* * * * * * * * * * ( $ $ # $ $ $ $ $ $ $ $ % %   ",
"  # $ $ $ $ $ $ $ $ $ $ $ % % [ * * * * * b $ $ $ $ $ % $ $ %   + # # $ $ $ $ [.* * * * * * * * * ( # # $ $ $ $ $ $ $ $ $ $ % + ",
"+ # # $ $ $ $ $ $ $ $ # $ $ % 2 * * * * * b $ $ $ $ $ $ $ $ % . + # # $ $ $ $ }.* * * * * * * * * ( # $ $ $ $ $ $ $ $ # $ $ %   ",
"  # # # # # # # $ $ # # $ $ % 2 * * * * * b $ $ $ # # $ $ $ $     # # # $ $ $ $ |.* * * * * * * * ( # # # $ $ $ $ $ # # $ $ $   ",
". # # # # # # # # # # # # $ $ f * * * * * i # # # # $ $ $ $ $     # # # # # # # ].* * * * * * * * ( # # # # # # # # # # # # # + ",
"+     @   @ +     . .     @   + @     . +   @ @     .   @     @ + @     +     @ @   . +     . + @ @   . +     @   +   . @     @ ",
"  @     @     . @     @       .     . .     @     .     + + @       . .   + @     @     @     + .     @     +   @ .   @     @   ",
"% % % % % % %   + $ $ $ $ $ $ % % % % % % % % +   # $ $ $ % % % % % % % % % %   + # % % % % % % % % % % % % %     $ $ $ % % % % ",
"% % $ $ % % %     $ $ $ $ $ $ $ $ % $ $ $ % %   + # $ $ $ $ % $ $ $ $ % % % % .   # $ $ $ $ % % % % % $ % % % +   # $ $ $ $ % % ",
"$ $ $ $ $ % % .   # $ $ $ $ $ $ % $ $ $ $ $ %   @ # # $ $ $ $ $ $ $ $ $ $ $ % +   # # $ $ $ $ $ $ $ $ $ $ % %   @ # $ $ $ $ $ $ ",
"# # $ $ $ % %   . # $ $ $ $ $ $ $ $ $ $ $ $ $ @   # # $ $ $ $ $ $ $ $ $ $ $ %   @ # # # $ $ $ $ $ $ $ $ $ % %   . # $ $ $ $ $ $ ",
"$ $ $ $ $ $ % @ + # # # $ $ $ # # # # $ $ % % +   # # # $ $ $ $ $ $ $ # $ $ $   + # # # # # # $ $ $ $ $ # # % @   # # # # # $ # ",
"# # # # $ $ $     # # # # # # # # # $ $ $ $ $   + # # # # # # # # # # # # $ $     # # # # # # # # # # # # # #   + # # # # # # # ",
".     +   . @   @       . .     . .     .   +   @     +     +   . .   @       @   + +     +   .     + +     @ + @     + .     @ "};
