/* XPM */
static char * W1_xpm[] = {
"64 64 124 2",
"  	c #AD87CD",
". 	c #777777",
"+ 	c #000000",
"@ 	c #D2D2D2",
"# 	c #565656",
"$ 	c #E5E5E5",
"% 	c #0D0D0D",
"& 	c #CAB9DA",
"* 	c #B0B0B0",
"= 	c #A8A8A8",
"- 	c #C1C1C1",
"; 	c #D8D8D8",
"> 	c #585858",
", 	c #696969",
"' 	c #CACACA",
") 	c #919191",
"! 	c #9F9F9F",
"~ 	c #161616",
"{ 	c #9E9E9E",
"] 	c #3D3D3D",
"^ 	c #787878",
"/ 	c #CCCCCC",
"( 	c #C1ABD6",
"_ 	c #B2B2B2",
": 	c #5C5C5C",
"< 	c #D9D9D9",
"[ 	c #CBCBCB",
"} 	c #8F8F8F",
"| 	c #B1B1B1",
"1 	c #A2A2A2",
"2 	c #D7D7D7",
"3 	c #515151",
"4 	c #797979",
"5 	c #CDCDCD",
"6 	c #7A7A7A",
"7 	c #9B9B9B",
"8 	c #B89AD2",
"9 	c #757575",
"0 	c #C7C7C7",
"a 	c #606060",
"b 	c #DADADA",
"c 	c #AEAEAE",
"d 	c #E6E4E7",
"e 	c #A3A3A3",
"f 	c #1C1C1C",
"g 	c #D6D6D6",
"h 	c #494949",
"i 	c #404040",
"j 	c #CFCFCF",
"k 	c #7C7C7C",
"l 	c #959595",
"m 	c #B3B3B3",
"n 	c #707070",
"o 	c #C3C3C3",
"p 	c #636363",
"q 	c #DBDBDB",
"r 	c #ABABAB",
"s 	c #E6E6E6",
"t 	c #A6A6A6",
"u 	c #D4D4D4",
"v 	c #D0D0D0",
"w 	c #7E7E7E",
"x 	c #5A5A5A",
"y 	c #909090",
"z 	c #B4B4B4",
"A 	c #6A6A6A",
"B 	c #BFBFBF",
"C 	c #686868",
"D 	c #E3E3E3",
"E 	c #A7A7A7",
"F 	c #222222",
"G 	c #A0A0A0",
"H 	c #D1D1D1",
"I 	c #353535",
"J 	c #7D7D7D",
"K 	c #7F7F7F",
"L 	c #898989",
"M 	c #B5B5B5",
"N 	c #A9A9A9",
"O 	c #666666",
"P 	c #BBBBBB",
"Q 	c #C2C2C2",
"R 	c #DCDCDC",
"S 	c #DFDFDF",
"T 	c #929292",
"U 	c #AAAAAA",
"V 	c #2A2A2A",
"W 	c #D3D3D3",
"X 	c #808080",
"Y 	c #838383",
"Z 	c #B6B6B6",
"` 	c #B7B7B7",
" .	c #6E6E6E",
"..	c #DDDDDD",
"+.	c #262626",
"@.	c #A1A1A1",
"#.	c #D5D5D5",
"$.	c #828282",
"%.	c #5D5D5D",
"&.	c #717171",
"*.	c #DEDEDE",
"=.	c #ADADAD",
"-.	c #5F5F5F",
";.	c #767676",
">.	c #B9B9B9",
",.	c #555555",
"'.	c #9D9D9D",
").	c #AFAFAF",
"!.	c #C9C9C9",
"~.	c #818181",
"{.	c #858585",
"].	c #D9D1E2",
"^.	c #E0E0E0",
"/.	c #8B8B8B",
"(.	c #4F4F4F",
"_.	c #9A9A9A",
":.	c #2E2E2E",
"<.	c #868686",
"[.	c #BABABA",
"}.	c #A5A5A5",
"|.	c #969696",
"1.	c #C4C4C4",
"2.	c #888888",
"3.	c #E7E7E7",
"                                                                                                                                ",
"                                                                                                                                ",
"                                                                                                                                ",
"                                                                                                                                ",
"                                                                                                                                ",
"                                                                                                                                ",
"                                                                                                                                ",
"                                                                                                                                ",
"                                                                                                                                ",
"                                                                                                                                ",
"                                                                                                                                ",
"    . + + + + + @                                     # + + + + + + $                                     % + + + + + &         ",
"    * + + + + + =                                   & + + + + + + + -                                   ; + + + + + >           ",
"    ; + + + + + ,                                   ' + + + + + + + )                                   * + + + + + !           ",
"      ~ + + + + +                                   { + + + + + + + ]                                   ^ + + + + + /           ",
"      ^ + + + + + @                                 # + + + + + + + + $                                 ~ + + + + + (           ",
"      _ + + + + + =                               & + + + + + + + + + -                               ; + + + + + :             ",
"      < + + + + + ,                               [ + + + + } + + + + )                               | + + + + + 1             ",
"        ~ + + + + +                               ! + + + + 2 3 + + + ]                               4 + + + + + 5             ",
"        6 + + + + + @                             > + + + %   7 + + + + $                             ~ + + + + + 8             ",
"        _ + + + + + =                           & + + + + 9   0 + + + + -                           < + + + + + a               ",
"        b + + + + + ,                           [ + + + + c   d + + + + )                           _ + + + + + e               ",
"          f + + + + +                           ! + + + + g     h + + + i                           6 + + + + + j               ",
"          k + + + + + @                         > + + + +       l + + + + $                         ~ + + + + +                 ",
"          m + + + + + =                       ( + + + + n       o + + + + -                       b + + + + + p                 ",
"          q + + + + + ,                       [ + + + + r       s + + + + )                       _ + + + + + t                 ",
"            f + + + + +                       ! + + + + u         ] + + + i                       k + + + + + v                 ",
"            w + + + + + @                     x + + + +           y + + + + $                     f + + + + +                   ",
"            z + + + + + =                   ( + + + + A           B + + + + -                   b + + + + + C                   ",
"            q + + + + + ,                   [ + + + + =           D + + + + )                   m + + + + + E                   ",
"              F + + + + +                   G + + + + H             I + + + i                   J + + + + + @                   ",
"              K + + + + + @                 : + + + +               L + + + + s                 f + + + + +                     ",
"              M + + + + + N               ( + + + + O               P + + + + Q               q + + + + + A                     ",
"              R + + + + + A               / + + + + t               S + + + + T               z + + + + + U                     ",
"                F + + + + +               G + + + + v                 V + + + i               w + + + + + W                     ",
"                X + + + + + @             : + + + +                   Y + + + + s             f + + + + +                       ",
"                Z + + + + + N           ( + + + + a                   ` + + + + Q           q + + + + +  .                      ",
"                ..+ + + + + A           5 + + + + e                   R + + + + T           M + + + + + r                       ",
"                  +.+ + + + +           @.+ + + + 5                     f + + + i           K + + + + + #.                      ",
"                  $.+ + + + + @         %.+ + + + (                     J + + + + s         F + + + + +                         ",
"                  ` + + + + + N       ( + + + + x                       m + + + + Q       R + + + + + &.                        ",
"                  *.+ + + + + A       5 + + + + !                       < + + + + T       Z + + + + + =.                        ",
"                    +.+ + + + +       1 + + + + [                         % + + + i       X + + + + + g                         ",
"                    Y + + + + + @     -.+ + + + &                         ;.+ + + + s     F + + + + %                           ",
"                    >.+ + + + + N   8 + + + + ,.                          c + + + + Q   R + + + + + 9                           ",
"                    *.+ + + + + A   5 + + + + '.                          g + + + + T   Z + + + + + ).                          ",
"                      V + + + + +   1 + + + + !.                            + + + + i   ~.+ + + + + 2                           ",
"                      {.+ + + + + @ -.+ + + + ].                             .+ + + + ^.+.+ + + + %                             ",
"                      >.+ + + + + /.+ + + + (.                              U + + + + /.+ + + + + .                             ",
"                      S + + + + + + + + + + _.                              @ + + + + + + + + + + |                             ",
"                        :.+ + + + + + + + + 0                                 + + + + + + + + + + ;                             ",
"                        <.+ + + + + + + + + d                                 O + + + + + + + + ~                               ",
"                        [.+ + + + + + + + h                                   }.+ + + + + + + + 6                               ",
"                        ^.+ + + + + + + + |.                                  j + + + + + + + + _                               ",
"                          :.+ + + + + + + 1.                                  8 + + + + + + + + b                               ",
"                          2.+ + + + + + + 3.                                    %.+ + + + + + f                                 ",
"                                                                                                                                ",
"                                                                                                                                ",
"                                                                                                                                ",
"                                                                                                                                ",
"                                                                                                                                ",
"                                                                                                                                ",
"                                                                                                                                ",
"                                                                                                                                "};
